<svg width="50" height="50" viewBox="0 0 50 50" fill="none" xmlns="http://www.w3.org/2000/svg">
<g clip-path="url(#clip0_798_20)">
<path d="M39.5833 8.33346H37.2917C36.8081 5.98223 35.5288 3.86959 33.6693 2.35162C31.8098 0.833643 29.4838 0.00315233 27.0833 0.00012207L22.9167 0.00012207C20.5162 0.00315233 18.1902 0.833643 16.3307 2.35162C14.4712 3.86959 13.1919 5.98223 12.7083 8.33346H10.4167C7.65501 8.33676 5.00741 9.43529 3.05462 11.3881C1.10184 13.3409 0.00330804 15.9885 0 18.7501L0 39.5835C0.00330804 42.3451 1.10184 44.9927 3.05462 46.9455C5.00741 48.8983 7.65501 49.9968 10.4167 50.0001H39.5833C42.345 49.9968 44.9926 48.8983 46.9454 46.9455C48.8982 44.9927 49.9967 42.3451 50 39.5835V18.7501C49.9967 15.9885 48.8982 13.3409 46.9454 11.3881C44.9926 9.43529 42.345 8.33676 39.5833 8.33346ZM22.9167 4.16679H27.0833C28.3714 4.17213 29.6263 4.5753 30.6765 5.32114C31.7266 6.06698 32.5207 7.11906 32.95 8.33346H17.05C17.4793 7.11906 18.2734 6.06698 19.3235 5.32114C20.3737 4.5753 21.6286 4.17213 22.9167 4.16679ZM10.4167 12.5001H39.5833C41.2409 12.5001 42.8306 13.1586 44.0028 14.3307C45.1749 15.5028 45.8333 17.0925 45.8333 18.7501V25.0001H4.16667V18.7501C4.16667 17.0925 4.82515 15.5028 5.99725 14.3307C7.16935 13.1586 8.75906 12.5001 10.4167 12.5001ZM39.5833 45.8335H10.4167C8.75906 45.8335 7.16935 45.175 5.99725 44.0029C4.82515 42.8308 4.16667 41.2411 4.16667 39.5835V29.1668H22.9167V31.2501C22.9167 31.8027 23.1362 32.3326 23.5269 32.7233C23.9176 33.114 24.4475 33.3335 25 33.3335C25.5525 33.3335 26.0824 33.114 26.4731 32.7233C26.8638 32.3326 27.0833 31.8027 27.0833 31.2501V29.1668H45.8333V39.5835C45.8333 41.2411 45.1749 42.8308 44.0028 44.0029C42.8306 45.175 41.2409 45.8335 39.5833 45.8335Z" fill="#0A0A0A"/>
</g>
<defs>
<clipPath id="clip0_798_20">
<rect width="50" height="50" fill="white"/>
</clipPath>
</defs>
</svg>
