<svg width="21" height="21" viewBox="0 0 21 21" fill="none" xmlns="http://www.w3.org/2000/svg">
<path d="M7.87499 4.37498C7.99015 4.37431 8.1043 4.39638 8.21091 4.43993C8.31752 4.48347 8.41448 4.54763 8.49624 4.62873L13.7462 9.87873C13.9092 10.0427 14.0007 10.2644 14.0007 10.4956C14.0007 10.7268 13.9092 10.9485 13.7462 11.1125L8.49624 16.3625C8.32885 16.5058 8.11354 16.5807 7.89332 16.5722C7.6731 16.5637 7.46421 16.4724 7.30838 16.3166C7.15254 16.1608 7.06125 15.9519 7.05275 15.7316C7.04424 15.5114 7.11914 15.2961 7.26249 15.1287L11.8912 10.5L7.26249 5.87123C7.13962 5.74936 7.05565 5.5938 7.02119 5.42422C6.98673 5.25463 7.00332 5.07863 7.06888 4.91848C7.13444 4.75833 7.24602 4.62121 7.38951 4.52447C7.53299 4.42772 7.70194 4.3757 7.87499 4.37498Z" fill="white"/>
</svg>
