<svg width="21" height="21" viewBox="0 0 21 21" fill="none" xmlns="http://www.w3.org/2000/svg">
<path d="M7.87498 4.37498C7.99013 4.37431 8.10429 4.39638 8.2109 4.43993C8.3175 4.48347 8.41447 4.54763 8.49623 4.62873L13.7462 9.87873C13.9092 10.0427 14.0007 10.2644 14.0007 10.4956C14.0007 10.7268 13.9092 10.9485 13.7462 11.1125L8.49623 16.3625C8.32884 16.5058 8.11352 16.5807 7.89331 16.5722C7.67309 16.5637 7.46419 16.4724 7.30836 16.3166C7.15253 16.1608 7.06124 15.9519 7.05273 15.7316C7.04422 15.5114 7.11913 15.2961 7.26248 15.1287L11.8912 10.5L7.26248 5.87123C7.13961 5.74936 7.05563 5.5938 7.02117 5.42422C6.98671 5.25463 7.00331 5.07863 7.06887 4.91848C7.13443 4.75833 7.24601 4.62121 7.38949 4.52447C7.53298 4.42772 7.70193 4.3757 7.87498 4.37498Z" fill="#985AD3"/>
</svg>
