<svg width="21" height="21" viewBox="0 0 21 21" fill="none" xmlns="http://www.w3.org/2000/svg">
<path d="M7.87504 4.37534C7.99019 4.37468 8.10435 4.39675 8.21096 4.44029C8.31756 4.48384 8.41453 4.548 8.49629 4.62909L13.7463 9.87909C13.9093 10.043 14.0007 10.2648 14.0007 10.496C14.0007 10.7271 13.9093 10.9489 13.7463 11.1128L8.49629 16.3628C8.3289 16.5062 8.11358 16.5811 7.89337 16.5726C7.67315 16.5641 7.46425 16.4728 7.30842 16.317C7.15259 16.1611 7.0613 15.9522 7.05279 15.732C7.04428 15.5118 7.11919 15.2965 7.26254 15.1291L11.8913 10.5003L7.26254 5.87159C7.13967 5.74973 7.0557 5.59417 7.02123 5.42458C6.98677 5.255 7.00337 5.079 7.06893 4.91885C7.13449 4.75869 7.24607 4.62158 7.38955 4.52483C7.53304 4.42809 7.70199 4.37607 7.87504 4.37534Z" fill="#985AD3"/>
</svg>
