<svg width="15" height="15" viewBox="0 0 15 15" fill="none" xmlns="http://www.w3.org/2000/svg">
<path d="M1.25 6.875H8.125C8.45652 6.875 8.77446 6.7433 9.00888 6.50888C9.2433 6.27446 9.375 5.95652 9.375 5.625V1.25C9.375 0.918479 9.2433 0.600537 9.00888 0.366117C8.77446 0.131696 8.45652 0 8.125 0L1.25 0C0.918479 0 0.600537 0.131696 0.366117 0.366117C0.131696 0.600537 0 0.918479 0 1.25L0 5.625C0 5.95652 0.131696 6.27446 0.366117 6.50888C0.600537 6.7433 0.918479 6.875 1.25 6.875ZM1.25 1.25H8.125V5.625H1.25V1.25ZM13.75 0H11.875C11.5435 0 11.2255 0.131696 10.9911 0.366117C10.7567 0.600537 10.625 0.918479 10.625 1.25V5.625C10.625 5.95652 10.7567 6.27446 10.9911 6.50888C11.2255 6.7433 11.5435 6.875 11.875 6.875H13.75C14.0815 6.875 14.3995 6.7433 14.6339 6.50888C14.8683 6.27446 15 5.95652 15 5.625V1.25C15 0.918479 14.8683 0.600537 14.6339 0.366117C14.3995 0.131696 14.0815 0 13.75 0ZM13.75 5.625H11.875V1.25H13.75V5.625ZM3.125 8.125H1.25C0.918479 8.125 0.600537 8.2567 0.366117 8.49112C0.131696 8.72554 0 9.04348 0 9.375L0 13.75C0 14.0815 0.131696 14.3995 0.366117 14.6339C0.600537 14.8683 0.918479 15 1.25 15H3.125C3.45652 15 3.77446 14.8683 4.00888 14.6339C4.2433 14.3995 4.375 14.0815 4.375 13.75V9.375C4.375 9.04348 4.2433 8.72554 4.00888 8.49112C3.77446 8.2567 3.45652 8.125 3.125 8.125ZM3.125 13.75H1.25V9.375H3.125V13.75ZM13.75 8.125H6.875C6.54348 8.125 6.22554 8.2567 5.99112 8.49112C5.7567 8.72554 5.625 9.04348 5.625 9.375V13.75C5.625 14.0815 5.7567 14.3995 5.99112 14.6339C6.22554 14.8683 6.54348 15 6.875 15H13.75C14.0815 15 14.3995 14.8683 14.6339 14.6339C14.8683 14.3995 15 14.0815 15 13.75V9.375C15 9.04348 14.8683 8.72554 14.6339 8.49112C14.3995 8.2567 14.0815 8.125 13.75 8.125ZM13.75 13.75H6.875V9.375H13.75V13.75Z" fill="#985AD3"/>
</svg>
