<svg width="15" height="15" viewBox="0 0 15 15" fill="none" xmlns="http://www.w3.org/2000/svg">
<g clip-path="url(#clip0_798_36)">
<path d="M11.25 6.25012H10V0.625122H12.6731C12.8894 0.253247 13.2881 0.00012207 13.75 0.00012207C14.0815 0.00012207 14.3995 0.131818 14.6339 0.366239C14.8683 0.600659 15 0.918601 15 1.25012C15 1.58164 14.8683 1.89959 14.6339 2.13401C14.3995 2.36843 14.0815 2.50012 13.75 2.50012C13.5315 2.49951 13.3169 2.44144 13.1279 2.33174C12.9389 2.22204 12.7821 2.06457 12.6731 1.87512H11.25V6.25012ZM1.25 2.50012C1.71125 2.50012 2.11 2.247 2.32687 1.87512H3.75V6.25012H5V0.625122H2.32687C2.11063 0.253247 1.71187 0.00012207 1.25 0.00012207C0.918479 0.00012207 0.600537 0.131818 0.366117 0.366239C0.131696 0.600659 0 0.918601 0 1.25012C0 1.58164 0.131696 1.89959 0.366117 2.13401C0.600537 2.36843 0.918479 2.50012 1.25 2.50012ZM6.875 2.327V6.25012H8.125V2.327C8.49687 2.11075 8.75 1.712 8.75 1.25012C8.75 0.918601 8.6183 0.600659 8.38388 0.366239C8.14946 0.131818 7.83152 0.00012207 7.5 0.00012207C7.16848 0.00012207 6.85054 0.131818 6.61612 0.366239C6.3817 0.600659 6.25 0.918601 6.25 1.25012C6.25 1.71137 6.50313 2.11012 6.875 2.327ZM13.75 11.2501H1.25V3.75012C0.7925 3.75012 0.36875 3.61825 0 3.40325V12.5001H6.875V13.7501H3.75V15.0001H11.25V13.7501H8.125V12.5001H15V3.40325C14.6216 3.62809 14.1901 3.74784 13.75 3.75012V11.2501Z" fill="#985AD3"/>
</g>
<defs>
<clipPath id="clip0_798_36">
<rect width="15" height="15" fill="white"/>
</clipPath>
</defs>
</svg>
