<?xml version="1.0" standalone="no"?>
<!DOCTYPE svg PUBLIC "-//W3C//DTD SVG 1.1//EN" "http://www.w3.org/Graphics/SVG/1.1/DTD/svg11.dtd" >
<svg xmlns="http://www.w3.org/2000/svg" xmlns:xlink="http://www.w3.org/1999/xlink" version="1.1">
<metadata>
Created by FontForge 20201107 at Fri Aug  1 12:35:56 2025
 By 
Copyright (c) 2018 Commercial Type, Inc.. All rights reserved.
</metadata>
<defs>
<font id="CanelaCondensed-Black" horiz-adv-x="954" >
  <font-face 
    font-family="Canela Cond Black Trial"
    font-weight="900"
    font-stretch="condensed"
    units-per-em="2048"
    panose-1="0 0 0 0 0 0 0 0 0 0"
    ascent="1587"
    descent="-461"
    x-height="1018"
    cap-height="1499"
    bbox="-70 -483 1505 1595"
    underline-thickness="36"
    underline-position="-161"
    unicode-range="U+0020-201D"
  />
<missing-glyph horiz-adv-x="231" 
 />
    <glyph glyph-name=".notdef" horiz-adv-x="231" 
 />
    <glyph glyph-name=".null" horiz-adv-x="0" 
 />
    <glyph glyph-name="nonmarkingreturn" horiz-adv-x="682" 
 />
    <glyph glyph-name="space" unicode=" " horiz-adv-x="233" 
 />
    <glyph glyph-name="exclam" unicode="!" horiz-adv-x="378" 
d="M369 1499v-4l-168 -1073h-23l-168 1073v4h359zM188 -10q-66 0 -112.5 47t-46.5 113t46.5 111.5t112.5 45.5t113 -45.5t47 -111.5t-47 -113t-113 -47z" />
    <glyph glyph-name="quotedbl" unicode="&#x22;" horiz-adv-x="602" 
d="M145 1018l-135 481h281l-133 -481h-13zM446 1018l-135 481h281l-133 -481h-13z" />
    <glyph glyph-name="quotesingle" unicode="'" horiz-adv-x="301" 
d="M145 1018l-135 481h281l-133 -481h-13z" />
    <glyph glyph-name="comma" unicode="," horiz-adv-x="368" 
d="M8 -242l-6 15q56 35 90.5 85t34.5 89t-33 96t-76 102v9l209 155q39 -28 71 -82t32 -110q0 -98 -96 -202.5t-226 -156.5z" />
    <glyph glyph-name="hyphen" unicode="-" horiz-adv-x="358" 
d="M20 492v225h318v-225h-318z" />
    <glyph glyph-name="period" unicode="." horiz-adv-x="368" 
d="M184 -10q-63 0 -108 45t-45 108t45 107.5t108 44.5t108.5 -44.5t45.5 -107.5t-45.5 -108t-108.5 -45z" />
    <glyph glyph-name="zero" unicode="0" horiz-adv-x="1105" 
d="M545 -31q-66 0 -135 30.5t-135.5 95.5t-118 155t-83.5 220t-32 280t31.5 280t83.5 220t118 154.5t135 95t136 30.5t137.5 -30.5t139 -95t123 -154.5t87.5 -220t33 -280t-33.5 -280t-87.5 -220t-123 -155t-139.5 -95.5t-136.5 -30.5zM545 6q48 0 79 36.5t49.5 126.5
t26 227t7.5 354t-7.5 354t-26 227t-49.5 126t-79 36q-24 0 -42.5 -8.5t-33 -29t-25.5 -49t-19 -75t-13 -99.5t-8 -129.5t-4 -159t-1 -193.5q0 -149 2 -251t8 -190.5t16 -141.5t26.5 -91.5t39 -54t54.5 -15.5z" />
    <glyph glyph-name="one" unicode="1" horiz-adv-x="649" 
d="M578 0h-467v4q39 74 52 130.5t13 152.5v946h-115v12q129 40 250 120t187 183h16v-1261q0 -99 12.5 -154.5t51.5 -128.5v-4z" />
    <glyph glyph-name="two" unicode="2" horiz-adv-x="888" 
d="M719 0h-709v16q245 361 348 623t103 524q0 145 -26 237.5t-70 92.5t-121 -114q-27 -39 -158 -255l-12 2l28 359q119 45 254 45q210 0 326.5 -113.5t116.5 -288.5q0 -100 -38 -201t-116 -205t-176.5 -204t-237.5 -221h254q231 0 330 199l12 -4z" />
    <glyph glyph-name="three" unicode="3" horiz-adv-x="888" 
d="M848 457q0 -104 -41 -195.5t-110 -155t-162 -100.5t-195 -37q-73 0 -152 16.5t-131 41.5l-26 350l14 4q206 -375 307 -375q61 0 109.5 115t48.5 315q0 379 -188 379q-76 0 -166 -70l-19 19l402 438h-445l90 297h654v-20l-588 -643q61 34 166 34q79 0 154.5 -26.5
t138 -76.5t101 -130.5t38.5 -179.5z" />
    <glyph glyph-name="four" unicode="4" horiz-adv-x="950" 
d="M369 0v4q37 73 49 129.5t12 153.5v102h-420v19l486 1091h397l-848 -1073h385v362h338v-362h152l-7 -37h-145v-102q0 -98 11.5 -153.5t47.5 -129.5v-4h-458z" />
    <glyph glyph-name="five" unicode="5" horiz-adv-x="804" 
d="M305 -31q-142 0 -266 58l-29 329l15 4q49 -78 83 -128.5t76.5 -109t75.5 -87.5t55 -29q48 0 84.5 126.5t36.5 324.5q0 200 -46 295.5t-157 95.5q-76 0 -141 -55l-14 8l88 698h586l-39 -297h-549l-43 -354q78 70 223 70q62 0 122 -16.5t116 -53t98.5 -88.5t68 -129.5
t25.5 -169.5q0 -100 -29 -183.5t-77 -139.5t-109.5 -95t-125.5 -56.5t-128 -17.5z" />
    <glyph glyph-name="six" unicode="6" horiz-adv-x="1005" 
d="M854 1509q-358 -145 -440 -632q28 51 79.5 84.5t122.5 33.5q145 0 252 -123.5t107 -332.5q0 -159 -61.5 -290t-167.5 -205.5t-232 -74.5q-94 0 -180.5 46t-151 126t-103 196t-38.5 249q0 103 23.5 206.5t82.5 216t148 208.5t231 179.5t320 133.5zM389 551q0 -78 2 -142.5
t7 -128.5t14.5 -112t23 -85.5t33.5 -57t45 -19.5q72 0 92.5 103.5t20.5 347.5q0 232 -27 322.5t-96 90.5q-57 0 -98 -47q-17 -136 -17 -272z" />
    <glyph glyph-name="seven" unicode="7" horiz-adv-x="817" 
d="M465 0h-359q72 290 236 610t348 592h-659l51 297h725v-20q-278 -776 -342 -1479z" />
    <glyph glyph-name="eight" unicode="8" horiz-adv-x="911" 
d="M831 1212q0 -45 -12 -87t-38.5 -84.5t-76.5 -78t-118 -57.5q3 -2 8 -7t8 -7q64 -56 105 -98t85.5 -102.5t66.5 -130t22 -148.5q0 -195 -128.5 -319t-326.5 -124q-171 0 -283 95t-112 253q0 115 65.5 209t198.5 152q-52 46 -86.5 84.5t-69 91t-52 116.5t-17.5 138
q0 184 112.5 303t284.5 119q151 0 257.5 -91t106.5 -227zM274 1305q0 -28 7.5 -56t17 -50.5t30.5 -50.5t36 -45.5t46 -46.5t47 -43t54 -46t53 -45q103 111 103 290q0 123 -51.5 202t-155.5 79q-86 0 -136.5 -51.5t-50.5 -136.5zM205 332q0 -92 22.5 -163t75 -117t129.5 -46
q91 0 155 57.5t64 157.5q0 32 -8 63.5t-19 56.5t-33 55t-39 50t-50 50.5t-52 47t-58.5 50t-57.5 49.5q-7 7 -27 23q-102 -130 -102 -334z" />
    <glyph glyph-name="nine" unicode="9" horiz-adv-x="1005" 
d="M152 -10q358 144 440 633q-28 -51 -80 -85t-123 -34q-69 0 -133 31t-114.5 87t-80.5 144.5t-30 194.5q0 159 61.5 290t167 205t232.5 74q94 0 180.5 -46t151 -126t103 -196t38.5 -249q0 -103 -23.5 -206.5t-82.5 -216t-148 -208.5t-231 -179.5t-320 -133.5zM616 948
q0 95 -3 170t-11 147.5t-21.5 120.5t-36 77.5t-52.5 29.5q-72 0 -92.5 -103.5t-20.5 -347.5q0 -232 27 -322.5t96 -90.5q57 0 98 47q16 128 16 272z" />
    <glyph glyph-name="question" unicode="?" horiz-adv-x="628" 
d="M182 422h-20q1 94 16 175t35 141l40 120t34 139t14 170q0 97 -14.5 175.5t-32.5 114.5t-33 36q-12 0 -35.5 -36.5t-65 -107t-73.5 -116.5l-10 4l24 244q83 49 215 49q159 0 254 -80t95 -242q0 -73 -21.5 -136t-56.5 -109.5t-78 -90t-88 -89t-85 -94.5t-71 -118t-43 -149z
M203 -10q-66 0 -113 47t-47 113t47 111.5t113 45.5t112.5 -45.5t46.5 -111.5t-46.5 -113t-112.5 -47z" />
    <glyph glyph-name="A" unicode="A" horiz-adv-x="964" 
d="M281 0h-271v4q92 138 144 383l237 1112h178l242 -1112q45 -202 143 -383v-4h-575v4q39 79 53 180t-6 230l-18 92h-185l-22 -109q-54 -255 80 -393v-4zM231 543h170l-79 418z" />
    <glyph glyph-name="B" unicode="B" horiz-adv-x="1001" 
d="M516 0h-463v4q2 12 11.5 61t11.5 62.5t9 54t8.5 63.5t5 62.5t4.5 79t1 86.5v553q0 47 -1 86.5t-4.5 79t-5 62.5t-8.5 63.5t-9 54t-11.5 62.5t-11.5 61v4h420q226 0 350.5 -83t124.5 -257q0 -264 -280 -350q159 -52 236 -144t77 -241q0 -195 -122.5 -309.5t-342.5 -114.5z
M453 823h32q48 0 75.5 23.5t44 100.5t16.5 220q0 145 -10 190q-19 81 -91 98q-17 4 -37 5q5 0 -2 1q-4 0 -15 1l-13 2v-641zM477 39q45 2 74.5 28.5t46 80.5t23 125.5t6.5 175.5q0 185 -32 261t-118 76h-24v-749l25 2h-1z" />
    <glyph glyph-name="C" unicode="C" horiz-adv-x="946" 
d="M905 453l-18 -396q-48 -30 -132 -59t-175 -29q-235 0 -387 213t-152 570q0 366 146.5 572t414.5 206q131 0 279 -37l22 -344l-22 -4q-97 186 -167 267t-124 81q-40 0 -70 -24t-49.5 -75t-32 -110.5t-18.5 -151.5t-8 -176t-2 -204q0 -327 51.5 -536.5t138.5 -209.5
q20 0 39.5 12.5t42 42.5t42.5 62t49 91t51.5 108t60.5 133z" />
    <glyph glyph-name="D" unicode="D" horiz-adv-x="1110" 
d="M51 0v4q2 10 10.5 57.5t10 58t8 50.5t8 57.5t5.5 55t5 66.5t2.5 69.5t1.5 83.5v495q0 43 -1.5 83.5t-2.5 69.5t-5 66.5t-5.5 55t-8 57.5t-8 50.5t-10 58t-10.5 57.5v4q38 0 197.5 4t257.5 4q114 0 215 -50t179 -143t123.5 -237t45.5 -321t-44 -322t-120.5 -239
t-178.5 -144.5t-220 -50.5h-455zM698 727q0 114 -2 197.5t-7.5 165t-15.5 138t-25.5 105t-38 77t-53 44.5t-69.5 16q-16 0 -36 -4v-1425q20 -4 38 -4q41 0 73 16.5t54 43.5t37 76t24 99t13.5 129.5t6 149.5t1.5 176z" />
    <glyph glyph-name="E" unicode="E" horiz-adv-x="940" 
d="M51 0v4q30 133 40.5 223t10.5 256v531q0 167 -10.5 257.5t-40.5 223.5v4h764l35 -334l-16 -6q-13 18 -37 52t-34 48t-29.5 40.5t-28.5 37.5t-25.5 30t-27 27t-26 20t-28.5 17t-28.5 10t-32.5 7l-86 12v-657h47q23 0 49.5 17t54 48.5t45.5 56t43 60.5h21v-436h-21
q-7 12 -30.5 50.5t-38.5 60.5t-37.5 50t-44 42t-41.5 14h-47v-725l120 10q62 4 134 105t180 307l14 -6l-61 -457h-787z" />
    <glyph glyph-name="F" unicode="F" horiz-adv-x="860" 
d="M502 4v-4h-451v4q2 12 11.5 61t11.5 62.5t9 54t8.5 63.5t5 62.5t4.5 79t1 86.5v553q0 47 -1 86.5t-4.5 79t-5 62.5t-8.5 63.5t-9 54t-11.5 62.5t-11.5 61v4h754l35 -334l-17 -6q-112 157 -139 189q-67 79 -136 96l-22 4l-75 10v-665h49q23 0 49.5 17t54 48.5t45.5 56
t43 60.5h19v-434h-19q-8 12 -31 49.5t-38.5 59.5t-38 50t-43.5 42t-41 14h-49v-289q0 -99 7.5 -183t15.5 -132.5t28 -147.5z" />
    <glyph glyph-name="G" unicode="G" horiz-adv-x="1042" 
d="M952 119q-43 -37 -172.5 -93.5t-249.5 -56.5q-89 0 -176 55t-157 153.5t-113 249t-43 325.5q0 361 149 569.5t400 208.5q130 0 278 -37l23 -344l-23 -4q-98 191 -165 269.5t-128 78.5q-35 0 -61.5 -24t-44 -73t-29.5 -111t-18.5 -150t-9 -177t-2.5 -204q0 -330 37.5 -539
t103.5 -209q43 0 78 71.5t39 201.5q2 86 -9.5 159.5t-21 101.5t-33.5 89v4h397v-4q-27 -101 -38 -169t-11 -175v-166z" />
    <glyph glyph-name="H" unicode="H" horiz-adv-x="1150" 
d="M51 0v4q2 12 11.5 61t11.5 62.5t9 54t8.5 63.5t5 62.5t4.5 79t1 86.5v553q0 47 -1 86.5t-4.5 79t-5 62.5t-8.5 63.5t-9 54t-11.5 62.5t-11.5 61v4h451v-4q-2 -9 -9.5 -49t-9 -49t-7.5 -43.5t-7.5 -48t-5.5 -44.5t-5.5 -51.5t-3.5 -51.5t-2.5 -61.5t-0.5 -64.5v-241h247
v235q0 47 -1 87t-4.5 78.5t-6 63t-9 63t-9.5 54t-12.5 61.5t-12.5 62v4h457v-4q-2 -9 -9.5 -49t-9 -49t-7.5 -43.5t-7.5 -48t-5.5 -44.5t-5.5 -51.5t-3.5 -51.5t-2.5 -61.5t-0.5 -64.5v-565q0 -34 0.5 -64.5t2.5 -61.5t3.5 -51.5t5.5 -51.5t5.5 -44.5t7.5 -48t7.5 -43.5
t9 -49t9.5 -49v-4h-457v4q3 16 12.5 62t12.5 61.5t9.5 54t9 63t6 63t4.5 78.5t1 87v281h-247v-287q0 -34 0.5 -64.5t2.5 -61.5t3.5 -51.5t5.5 -51.5t5.5 -44.5t7.5 -48t7.5 -43.5t9 -49t9.5 -49v-4h-451z" />
    <glyph glyph-name="I" unicode="I" horiz-adv-x="552" 
d="M51 0v4q3 14 12 61.5t11 61.5t8.5 54t8.5 63t5.5 61.5t4.5 77t1 84.5v559q0 47 -1 86.5t-4.5 79t-5 62.5t-8.5 63.5t-9 54t-11.5 62.5t-11.5 61v4h451v-4q-2 -9 -9.5 -49t-9 -49t-7.5 -43.5t-7.5 -48t-5.5 -44.5t-5.5 -51.5t-3.5 -51.5t-2.5 -61.5t-0.5 -64.5v-565
q0 -34 0.5 -64.5t2.5 -61.5t3.5 -51.5t5.5 -51.5t5.5 -44.5t7.5 -48t7.5 -43.5t9 -49t9.5 -49v-4h-451z" />
    <glyph glyph-name="J" unicode="J" horiz-adv-x="778" 
d="M686 557q0 -273 -125.5 -430.5t-324.5 -157.5q-90 0 -177 35l-28 428l20 4q37 -98 71 -175.5t58 -124t43.5 -77t30.5 -42t18 -11.5q13 0 28 46t26.5 143.5t11.5 218.5v612q0 107 -7.5 193.5t-15 128t-28.5 147.5v4h450v-4q-20 -99 -28 -147.5t-15.5 -132.5t-7.5 -183
v-475z" />
    <glyph glyph-name="K" unicode="K" horiz-adv-x="1130" 
d="M51 0v4q3 14 12 61.5t11 61.5t8.5 54t8.5 63t5.5 61.5t4.5 77t1 84.5v559q0 47 -1 86.5t-4.5 79t-5 62.5t-8.5 63.5t-9 54t-11.5 62.5t-11.5 61v4h451v-4q-2 -9 -9.5 -49t-9 -49t-7.5 -43.5t-7.5 -48t-5.5 -44.5t-5.5 -51.5t-3.5 -51.5t-2.5 -61.5t-0.5 -64.5v-287
l256 365q120 170 10 385v4h407v-4q-100 -61 -180 -143t-174 -215l-39 -56l223 -661q61 -181 103 -277t84 -139v-4h-449l-241 727v-260q0 -34 0.5 -64.5t2.5 -61.5t3.5 -51.5t5.5 -51.5t5.5 -44.5t7.5 -48t7.5 -43.5t9 -49t9.5 -49v-4h-451z" />
    <glyph glyph-name="L" unicode="L" horiz-adv-x="851" 
d="M51 0v4q3 14 12 60.5t11.5 61t8.5 53t8 62t5.5 61.5t4.5 76.5t1 84.5v573q0 46 -1 84.5t-4.5 76.5t-5.5 61.5t-8 62t-8.5 53t-11.5 61t-12 60.5v4h451v-4q-20 -99 -28 -146t-15.5 -129.5t-7.5 -179.5v-993l53 4q62 4 133 104.5t180 307.5l14 -6l-61 -457h-719z" />
    <glyph glyph-name="M" unicode="M" horiz-adv-x="1202" 
d="M698 0v4q21 98 29.5 145.5t15.5 130t7 187.5v598l-275 -1020h-57l-275 1008v-604q0 -140 29 -228t100 -217v-4h-245v4q3 9 12.5 41.5t12 41t10.5 37t10 39.5t8 38t8 43t5.5 42.5t5 49.5t2.5 52.5t1 60.5v659q0 126 -16 209t-55 178v4h356l223 -817l215 817h346v-4
q-39 -95 -55 -178t-16 -209v-641q0 -144 11 -235t38 -228v-4h-451z" />
    <glyph glyph-name="N" unicode="N" 
d="M817 -6l-674 1145v-693q-1 -60 7.5 -111.5t19 -88.5t35.5 -83.5t43.5 -75t56.5 -83.5v-4h-276v4q30 101 40 139t21.5 121t11.5 182v662q0 126 -16 209t-55 178v4h329l451 -764v318q0 74 -10 131.5t-36 114t-47.5 91.5t-68.5 105v4h275v-4q-29 -98 -39.5 -138.5
t-21.5 -122.5t-11 -181v-1051z" />
    <glyph glyph-name="O" unicode="O" horiz-adv-x="1124" 
d="M561 -31q-103 0 -196.5 53.5t-165.5 150.5t-115 246.5t-43 328.5t43 329t115 247.5t165.5 151.5t196.5 54t196.5 -54t166.5 -151.5t116 -247.5t43 -329t-43 -328.5t-116 -246.5t-166.5 -150.5t-196.5 -53.5zM561 6q31 0 55.5 24t41 72t28 111t18 149.5t9 178.5t2.5 207
q0 120 -2 208.5t-8 178.5t-16.5 151t-27.5 110t-42 73t-58 24t-58 -24t-41.5 -74t-27.5 -111t-16.5 -151t-7.5 -178t-2 -207q0 -115 2.5 -206t9 -178.5t17.5 -150t27.5 -111t41 -72.5t55.5 -24z" />
    <glyph glyph-name="P" unicode="P" horiz-adv-x="985" 
d="M502 4v-4h-451v4q2 12 11.5 61t11.5 62.5t9 54t8.5 63.5t5 62.5t4.5 79t1 86.5v553q0 47 -1 86.5t-4.5 79t-5 62.5t-8.5 63.5t-9 54t-11.5 62.5t-11.5 61v4h428q227 0 356.5 -102.5t129.5 -309.5q0 -218 -137 -350.5t-377 -132.5v-137q0 -155 10.5 -250.5t40.5 -212.5z
M463 1462h-12v-821h10q71 0 112 130.5t41 334.5q0 184 -36.5 270t-114.5 86z" />
    <glyph glyph-name="Q" unicode="Q" horiz-adv-x="1124" 
d="M561 -31h-12q86 -76 234.5 -89.5t263.5 42.5l-78 -274q-56 -23 -103 -23q-167 0 -257.5 94.5t-106.5 253.5q-94 15 -177 74.5t-146.5 156t-100.5 237.5t-37 307q0 179 43 329t115 247.5t165.5 151.5t196.5 54t196.5 -54t166.5 -151.5t116 -247.5t43 -329t-43 -328.5
t-116 -246.5t-166.5 -150.5t-196.5 -53.5zM561 6q31 0 55.5 24t41 72t28 111t18 149.5t9 178.5t2.5 207q0 120 -2 208.5t-8 178.5t-16.5 151t-27.5 110t-42 73t-58 24t-58 -24t-41.5 -74t-27.5 -111t-16.5 -151t-7.5 -178t-2 -207q0 -115 2.5 -206t9 -178.5t17.5 -150
t27.5 -111t41 -72.5t55.5 -24z" />
    <glyph glyph-name="R" unicode="R" horiz-adv-x="1079" 
d="M502 4v-4h-451v4q2 12 11.5 61t11.5 62.5t9 54t8.5 63.5t5 62.5t4.5 79t1 86.5v553q0 47 -1 86.5t-4.5 79t-5 62.5t-8.5 63.5t-9 54t-11.5 62.5t-11.5 61v4h418q510 0 510 -391q0 -209 -145 -315l149 -553q2 -8 9 -33t9 -32.5t8.5 -28t9.5 -28.5t9.5 -24.5t12 -25
t13.5 -21.5t17 -23t19 -20v-4h-431l-174 684h-34v-211q0 -102 7.5 -187t15.5 -134t28 -148zM461 1462h-10v-741h24q83 0 115.5 92t32.5 291q0 200 -33.5 279t-128.5 79z" />
    <glyph glyph-name="S" unicode="S" horiz-adv-x="802" 
d="M662 1499l20 -321l-23 -7q-118 182 -179 243t-124 61q-58 0 -93.5 -35t-35.5 -97q0 -55 33.5 -112t75 -97t114.5 -107.5t115 -113.5q97 -108 152 -222t55 -263q0 -118 -32 -205.5t-91 -140t-135.5 -77.5t-171.5 -25q-81 0 -160.5 15.5t-111.5 37.5l-39 399l22 6
q133 -215 227.5 -314t161.5 -99q43 0 74 36t31 103q0 33 -6.5 64t-24.5 64.5t-31.5 56.5t-45.5 60t-47.5 54.5t-57 60.5t-55.5 58q-56 61 -91.5 106t-75 110t-58.5 139t-19 157q0 209 115.5 317.5t312.5 108.5q117 0 199 -21z" />
    <glyph glyph-name="T" unicode="T" horiz-adv-x="995" 
d="M723 4v-4h-451v4q37 186 44 270q8 83 8 193v981q-57 -9 -113 -88.5t-162 -288.5l-18 8l43 420h848l43 -420l-19 -8q-106 210 -161.5 289t-112.5 88v-981q0 -34 0.5 -64.5t2.5 -61.5t3.5 -51.5t5.5 -51.5t5.5 -44.5t7.5 -48t7.5 -43.5t9 -49t9.5 -49z" />
    <glyph glyph-name="U" unicode="U" horiz-adv-x="964" 
d="M518 -31q-196 0 -306 103.5t-110 300.5v653q0 47 -1 87t-4.5 78.5t-6 63t-9 63t-9.5 54t-12.5 61.5t-12.5 62v4h459v-4q-31 -143 -42 -227t-11 -236v-692q0 -159 47.5 -234t130.5 -75q190 0 190 338v673q0 79 -10 139.5t-36 117t-49.5 93t-70.5 103.5v4h303l-4 -4
q-35 -93 -50 -139t-28.5 -130t-13.5 -186v-655q0 -79 -6.5 -135t-27 -112.5t-57.5 -91t-100.5 -56t-152.5 -21.5z" />
    <glyph glyph-name="V" unicode="V" horiz-adv-x="978" 
d="M10 1499h592v-4q-120 -140 -57 -448l108 -529l133 584q28 118 3.5 224.5t-97.5 168.5v4h277v-4q-28 -41 -71 -154t-69 -225l-251 -1116h-179l-249 1116q-24 111 -68 224t-72 155v4z" />
    <glyph glyph-name="W" unicode="W" horiz-adv-x="1515" 
d="M10 1499h557v-4q-28 -57 -40.5 -116t-9 -123t9 -103t18.5 -104l100 -498l115 489l-17 82q-47 250 -114 373v4h530v-4q-26 -44 -40.5 -92.5t-20 -85.5t-2 -90.5t7 -79.5t13.5 -82l3 -18l84 -484l115 537q18 84 19 150.5t-23.5 132.5t-79.5 112v4h270v-4
q-91 -161 -139 -379l-242 -1116h-163l-183 946l-223 -946h-164l-239 1112q-43 200 -142 383v4z" />
    <glyph glyph-name="X" unicode="X" horiz-adv-x="1073" 
d="M1053 0h-566v6q32 48 37.5 113.5t-8 128.5t-43.5 149l-98 283l-84 -229q-30 -82 -32 -157.5t18.5 -131t46 -94t55.5 -64.5v-4h-359v6q55 63 107.5 161t118.5 273l110 291l-114 330q-68 192 -110 284t-91 148v6h565v-6q-32 -48 -37.5 -113t8 -128t44.5 -150l77 -225
l64 172q30 82 32 157.5t-18.5 131t-46 93.5t-55.5 64v4h358v-6q-54 -62 -106.5 -160t-118.5 -274l-90 -236l135 -385q65 -188 108.5 -282t92.5 -150v-6z" />
    <glyph glyph-name="Y" unicode="Y" horiz-adv-x="1011" 
d="M274 0v4q3 17 14 70t14.5 70.5t10.5 62.5t9.5 76t5 79t2.5 101v258l-140 403q-75 216 -180 369v6h570v-6q-49 -90 -54 -173t31 -177l109 -291l96 229q36 83 37 154.5t-28.5 133t-90.5 124.5v6h321v-6q-30 -35 -56 -79.5t-40.5 -77.5t-42 -102t-43.5 -108l-157 -374
l12 -293q0 -34 0.5 -63.5t2.5 -59.5t3.5 -50.5t5.5 -50.5t5.5 -44t7.5 -47t8 -43t9 -48.5t9 -48.5v-4h-451z" />
    <glyph glyph-name="Z" unicode="Z" horiz-adv-x="880" 
d="M31 0v10l450 1456l-65 -8q-25 -3 -47.5 -10t-44.5 -21t-38.5 -25.5t-38.5 -36t-34.5 -38t-35 -46t-32.5 -46.5t-35 -53t-34 -52l-19 7l54 362h737v-10l-451 -1456l95 12q85 11 175.5 128t174.5 298l18 -6l-61 -465h-768z" />
    <glyph glyph-name="a" unicode="a" horiz-adv-x="860" 
d="M219 -31q-83 0 -141 57.5t-58 168.5q0 82 35.5 150.5t98 116.5t130.5 81t150 57v76q0 87 -37 128.5t-121 41.5q-54 0 -111.5 -14.5t-84.5 -30.5l-6 10q172 242 407 242q131 0 204 -75t73 -210v-506q0 -88 61 -88q24 0 41 10l6 -4q-8 -33 -20.5 -62.5t-37.5 -66.5
t-68.5 -59.5t-100.5 -22.5q-77 0 -131.5 51.5t-67.5 139.5q-27 -80 -83 -135.5t-138 -55.5zM315 326q0 -146 84 -146q24 0 35 15v366q-119 -54 -119 -235z" />
    <glyph glyph-name="b" unicode="b" horiz-adv-x="942" 
d="M82 8v1118q0 126 -15 200t-65 151v2l404 116v-690l6 -2q65 150 204 150q137 0 211 -119.5t74 -333.5q0 -131 -29 -243.5t-85.5 -200t-147.5 -137.5t-207 -50q-160 0 -260 82l-70 -43h-20zM477 2q27 0 47 45t31 146.5t10 252.5q-1 170 -11.5 258.5t-32.5 123t-64 34.5
q-30 0 -51 -14v-610q12 -236 71 -236z" />
    <glyph glyph-name="c" unicode="c" horiz-adv-x="720" 
d="M692 303l8 -4q-26 -153 -112.5 -241.5t-208.5 -88.5q-159 0 -253.5 146t-94.5 377q0 245 123 403t321 158q60 0 176 -27l23 -260l-19 -4q-54 86 -122 172t-93 86q-18 0 -36.5 -41.5t-32 -127t-13.5 -192.5q0 -124 16 -213t44 -138t62 -71t75 -22q89 0 137 88z" />
    <glyph glyph-name="d" unicode="d" horiz-adv-x="952" 
d="M489 1053q27 0 41 -2v75q0 125 -15.5 199t-63.5 152v4l405 114v-1259q0 -96 18.5 -149t59.5 -117v-4l-399 -99v152h-5q-65 -150 -204 -150q-135 0 -210 121.5t-75 339.5q0 178 52.5 318.5t155.5 222.5t240 82zM377 555q0 -158 10.5 -243t33 -118.5t64.5 -33.5q25 0 45 10
v575q0 275 -63 275q-90 0 -90 -465z" />
    <glyph glyph-name="e" unicode="e" horiz-adv-x="819" 
d="M582 215q18 0 35.5 3t30 6t27 10.5t22.5 12t21 15t17 14t17 16t14 13.5l10 -4q-31 -146 -134 -239t-236 -93q-113 0 -199 71t-131 192t-45 272q0 149 50 274t142.5 200t208.5 75q111 0 193 -70t121.5 -175.5t41.5 -229.5l-426 6q6 -111 26 -186.5t51.5 -114t65 -53.5
t77.5 -15zM358 711q0 -61 2 -90h125v110q0 289 -65 289q-62 0 -62 -309z" />
    <glyph glyph-name="f" unicode="f" horiz-adv-x="579" 
d="M47 0v4q38 119 46 177q9 63 9 145v659h-94v33h94v45q0 237 121 383.5t320 146.5q50 0 110 -8l25 -231l-16 -6q-127 156 -162 189q-26 24 -37 24q-37 0 -37 -318v-225h156v-33h-156v-661q0 -104 12.5 -170.5t42.5 -149.5v-4h-434z" />
    <glyph glyph-name="g" unicode="g" horiz-adv-x="894" 
d="M401 326q-83 0 -159 39q-47 -23 -47 -66q0 -15 5 -28t20.5 -28t52.5 -24.5t92 -11.5l137 -6q175 -7 265.5 -78t88.5 -195q-1 -72 -31.5 -142.5t-88.5 -131.5t-157 -99t-223 -38q-150 0 -250 50.5t-100 137.5q0 63 50.5 116t125.5 81q-172 50 -172 221q0 183 209 254
q-82 47 -132 130.5t-50 180.5q0 154 106 259.5t254 105.5q124 0 226 -76l225 164l4 -2v-244h-6l-197 59q117 -107 117 -266q0 -155 -108 -258.5t-257 -103.5zM401 358q38 0 55 73.5t17 256.5q0 187 -16.5 259.5t-59.5 72.5q-40 0 -52.5 -69t-12.5 -263q0 -190 14 -260
t55 -70zM158 -264q0 -187 223 -187q141 0 225 68t86 150q1 55 -53 78.5t-193 29.5l-137 6q-59 3 -106 15q-45 -70 -45 -160z" />
    <glyph glyph-name="h" unicode="h" 
d="M43 0v4q3 12 10.5 40t11 43.5t8.5 43t7 59t2 70.5v866q0 126 -15 200t-65 151v2l401 116v-710q18 56 84 112t160 56q102 0 169 -73.5t67 -197.5v-522q0 -24 1 -46t2 -37.5t4.5 -36t4.5 -29t6 -29.5t6 -25t7.5 -27.5t7.5 -25.5v-4h-400v4q21 62 30 112t9 142v526
q0 35 -18.5 56.5t-53.5 21.5q-61 0 -86 -51v-553q0 -37 2 -67.5t7 -58.5t8 -43t11 -45t11 -40v-4h-399z" />
    <glyph glyph-name="i" unicode="i" horiz-adv-x="475" 
d="M213 1151q-76 0 -130 53.5t-54 128.5q0 77 54 131t130 54q75 0 128.5 -54.5t53.5 -130.5q0 -75 -53.5 -128.5t-128.5 -53.5zM47 0v4q1 5 6.5 26t7 26.5t5.5 25t5.5 29t4 29t3.5 36t2 38.5t1 46v336q0 126 -15 198.5t-63 147.5v4l399 117v-805q0 -45 4.5 -86t8.5 -59.5
t15 -59t13 -49.5v-4h-397z" />
    <glyph glyph-name="j" unicode="j" horiz-adv-x="471" 
d="M213 1151q-76 0 -130 53.5t-54 128.5q0 77 54 131t130 54q75 0 128.5 -54.5t53.5 -130.5q0 -75 -53.5 -128.5t-128.5 -53.5zM-66 -440l-4 12q67 38 109.5 135t42.5 248v641q0 126 -15 198.5t-63 147.5v4l399 117l-8 -928q-1 -146 -35 -253.5t-97.5 -173t-143.5 -100.5
t-185 -48z" />
    <glyph glyph-name="k" unicode="k" horiz-adv-x="960" 
d="M45 0v4q2 12 10.5 53t11 58t7.5 53.5t6.5 74t1.5 83.5v800q0 124 -15.5 198.5t-64.5 152.5v4l401 114v-1271q0 -71 5.5 -130t12.5 -94.5t21 -95.5v-4h-397zM956 0h-366l-187 537l209 215q62 67 60 138.5t-60 123.5v4h324v-4q-38 -23 -72.5 -51.5t-52.5 -46.5t-63 -64
l-86 -88l178 -512q36 -104 59 -156t57 -92v-4z" />
    <glyph glyph-name="l" unicode="l" horiz-adv-x="475" 
d="M45 0v4q2 10 10.5 47.5t11 52.5t7.5 48t6.5 66.5t1.5 74.5v833q0 124 -15.5 198.5t-64.5 152.5v4l401 114v-1304q0 -91 9 -149t30 -138v-4h-397z" />
    <glyph glyph-name="m" unicode="m" horiz-adv-x="1421" 
d="M43 0v4q3 12 10.5 40t11 43.5t8.5 43t7 59t2 70.5v334q-3 129 -18 201.5t-62 148.5v2l395 117v-184h4q6 22 24.5 50t48 56.5t75.5 48t98 19.5q85 0 147.5 -48.5t77.5 -125.5h2q6 22 24.5 50t48 56.5t75.5 48t98 19.5q102 0 166 -73t64 -198v-522q0 -24 1 -46t2 -37.5
t4.5 -36t4.5 -29t6 -29.5t6 -25t7.5 -27.5t7.5 -25.5v-4h-400v4q21 62 30 112t9 142v526q0 78 -67 78q-59 0 -84 -51v-551q0 -60 6.5 -111.5t11.5 -71t20 -73.5v-4h-399v4q21 62 30 112t9 142v526q0 35 -17 56.5t-51 21.5q-59 0 -84 -51v-553q0 -37 2 -67.5t7 -58.5t8 -43
t11 -45t11 -40v-4h-399z" />
    <glyph glyph-name="n" unicode="n" 
d="M43 0v4q3 13 10.5 44.5t11 49t8.5 48t7 65.5t2 78v305q-3 129 -18 201.5t-62 148.5v2l395 117v-184h4q6 22 24.5 50t48 56.5t75.5 48t98 19.5q102 0 169 -73.5t67 -197.5v-493q0 -23 0.5 -44t2 -41t3 -34t4.5 -33t4.5 -28t6 -28t5.5 -24.5t6.5 -27t6.5 -25.5v-4h-400v4
q21 68 30 124.5t9 158.5v497q0 35 -18.5 56.5t-53.5 21.5q-61 0 -86 -51v-524q0 -41 2 -75t7 -65.5t8 -48t11.5 -50t10.5 -44.5v-4h-399z" />
    <glyph glyph-name="o" unicode="o" horiz-adv-x="868" 
d="M434 -31q-66 0 -136.5 39.5t-130 107.5t-98 172t-38.5 222t38.5 222.5t98 173t130 108t136.5 39.5t136.5 -39.5t130.5 -108t98.5 -173t38.5 -222.5t-38.5 -222t-98.5 -172t-130.5 -107.5t-136.5 -39.5zM436 2q42 0 58 114t16 394q0 281 -16.5 395.5t-59.5 114.5
t-59.5 -114.5t-16.5 -395.5q0 -276 17.5 -392t60.5 -116z" />
    <glyph glyph-name="p" unicode="p" horiz-adv-x="937" 
d="M41 -461v4q3 10 11 39t11 43.5t8 42.5t7 60t2 71v795q0 123 -15.5 197.5t-64.5 152.5v2l397 117v-158l11 -2q65 150 204 150q137 0 211 -119.5t74 -333.5q0 -173 -50.5 -315t-151.5 -229t-236 -87q-22 0 -58 4v-176q0 -37 2 -67t7 -60t8 -42.5t11.5 -45.5t10.5 -39v-4
h-399zM473 2q88 0 88 444q0 169 -11 258.5t-33 123.5t-64 34q-31 0 -52 -14v-621q12 -225 72 -225z" />
    <glyph glyph-name="q" unicode="q" horiz-adv-x="927" 
d="M891 -461h-395v4q3 14 11 49t11.5 55.5t7.5 62t4 89.5v320q-65 -150 -204 -150q-135 0 -210 121.5t-75 339.5q0 178 52 318t155.5 222.5t243.5 82.5q67 0 135.5 -19t117.5 -47l103 70h8v-1260q0 -37 1.5 -67.5t6.5 -59.5t7.5 -42.5t10 -45t9.5 -39.5v-4zM377 555
q0 -158 10.5 -243t33 -118.5t64.5 -33.5q25 0 45 10v575q0 275 -63 275q-90 0 -90 -465z" />
    <glyph glyph-name="r" unicode="r" horiz-adv-x="702" 
d="M43 0v4q22 67 30.5 115t8.5 141v332q0 123 -15.5 197.5t-64.5 152.5v4l395 117v-225l2 -4q11 15 35 55.5t43 67t48.5 56.5t66.5 42.5t80 5.5v-320h-6q-34 26 -84.5 45t-98.5 19q-55 0 -80 -29v-518q0 -89 8.5 -138.5t30.5 -115.5v-4h-399z" />
    <glyph glyph-name="s" unicode="s" horiz-adv-x="663" 
d="M551 1022l24 -258l-16 -4q-24 34 -55.5 83.5t-47.5 72.5t-37 49t-39 35.5t-38 9.5q-31 0 -51.5 -26t-20.5 -69q0 -48 20 -89.5t52 -74.5t71 -65.5t77.5 -69t70.5 -78t52 -99.5t20 -126q0 -152 -92.5 -242.5t-247.5 -90.5q-126 0 -232 32l-20 275l18 4q196 -279 287 -279
q53 0 53 86q0 50 -19.5 95t-50.5 81t-68.5 72t-75 75.5t-68.5 83t-50.5 103t-19.5 127.5q0 150 96.5 228.5t255.5 78.5q91 0 152 -20z" />
    <glyph glyph-name="t" unicode="t" horiz-adv-x="612" 
d="M582 152q-23 -66 -90 -119t-170 -53q-113 0 -176.5 73t-63.5 217v715h-64v14l367 285h21v-266h153v-33h-153v-704q0 -156 94 -156q44 0 75 31z" />
    <glyph glyph-name="u" unicode="u" horiz-adv-x="935" 
d="M72 233v555q0 61 -7.5 104t-14.5 60.5t-27 57.5v8h370v-782q0 -76 56 -76q53 0 81 51v584q0 62 -6 104t-12.5 59t-24.5 56v4h367v-682q0 -96 18.5 -149t59.5 -117v-4l-393 -99v174l-7 2q-12 -53 -79 -113.5t-162 -60.5q-97 0 -158 70t-61 194z" />
    <glyph glyph-name="v" unicode="v" horiz-adv-x="720" 
d="M575 641l-176 -641h-114l-181 637q-52 182 -77 251.5t-58 125.5v4h469v-4q-27 -44 -33.5 -101.5t3.5 -124.5t36 -167l45 -172l54 194q33 130 24 223t-53 148v4h197v-4q-34 -56 -63 -134t-73 -239z" />
    <glyph glyph-name="w" unicode="w" horiz-adv-x="1196" 
d="M291 0l-185 635q-79 276 -137 379v4h475v-4q-78 -107 0 -367l56 -184l73 272q-33 137 -51.5 192t-42.5 87v4h453v-4q-78 -106 -14 -367l45 -184l51 182q25 87 19 164.5t-24.5 129.5t-41.5 75v4h219v-4q-53 -94 -137 -379l-187 -635h-110l-154 635q-4 22 -8 31l-189 -666
h-110z" />
    <glyph glyph-name="x" unicode="x" horiz-adv-x="845" 
d="M223 328l68 123l-105 251q-67 163 -91 213.5t-60 98.5v4h461v-4q-67 -98 16 -297l29 -68l43 80q30 54 35 108.5t-9 96.5t-41 80v4h238v-4q-46 -56 -78 -106.5t-106 -180.5l-66 -117l121 -295q59 -144 88.5 -201t69.5 -110v-4h-461v4q34 58 28 122.5t-49 168.5l-47 115
l-43 -80q-51 -95 -53.5 -187.5t37.5 -138.5v-4h-238v4q59 74 106 143t107 181z" />
    <glyph glyph-name="y" unicode="y" horiz-adv-x="722" 
d="M10 -461v309q52 -10 108 -12t120 12t94 48l-217 741q-55 187 -79.5 255.5t-55.5 121.5v4h460v-4q-17 -30 -25.5 -84t-2 -138t33.5 -171l50 -160l49 182q32 130 23 223t-52 148v4h197v-4q-34 -55 -62.5 -132.5t-72.5 -240.5l-162 -594q-32 -115 -71 -201.5t-76 -138
t-84.5 -87t-85.5 -51.5t-89 -30z" />
    <glyph glyph-name="z" unicode="z" horiz-adv-x="757" 
d="M725 395l-57 -395h-645v16l329 969l-43 -4q-28 -3 -59.5 -32t-55.5 -62.5t-68.5 -100t-74.5 -106.5l-14 4l63 334h598v-17l-329 -972l75 6q57 5 114 85q39 55 143 253q9 17 14 26z" />
    <glyph glyph-name="quoteleft" unicode="&#x2018;" horiz-adv-x="335" 
d="M307 1546l6 -14q-51 -32 -75.5 -78.5t-24.5 -87.5q0 -37 30 -87t72 -95v-8l-198 -154q-37 26 -67 77.5t-30 104.5q0 95 83 194t204 148z" />
    <glyph glyph-name="quoteright" unicode="&#x2019;" horiz-adv-x="335" 
d="M29 1022l-6 14q51 32 75.5 78.5t24.5 87.5q0 71 -103 182v9l199 153q36 -26 66 -77.5t30 -104.5q0 -95 -82.5 -194t-203.5 -148z" />
    <glyph glyph-name="quotedblleft" unicode="&#x201c;" horiz-adv-x="661" 
d="M633 1546l6 -14q-51 -32 -75.5 -78.5t-24.5 -87.5q0 -37 30 -87t72 -95v-8l-199 -154q-36 26 -66 77.5t-30 104.5q0 95 83 194t204 148zM307 1546l6 -14q-51 -32 -75.5 -78.5t-24.5 -87.5q0 -37 30 -87t72 -95v-8l-198 -154q-37 26 -67 77.5t-30 104.5q0 95 83 194
t204 148z" />
    <glyph glyph-name="quotedblright" unicode="&#x201d;" horiz-adv-x="661" 
d="M29 1022l-6 14q51 32 75.5 78.5t24.5 87.5q0 71 -103 182v9l199 153q36 -26 66 -77.5t30 -104.5q0 -95 -82.5 -194t-203.5 -148zM354 1022l-6 14q51 32 76 78.5t25 87.5q0 71 -103 182v9l199 153q36 -26 66 -77.5t30 -104.5q0 -95 -83 -194t-204 -148z" />
    </font>
</defs>
</svg>
