<?xml version="1.0" standalone="no"?>
<!DOCTYPE svg PUBLIC "-//W3C//DTD SVG 1.1//EN" "http://www.w3.org/Graphics/SVG/1.1/DTD/svg11.dtd" >
<svg xmlns="http://www.w3.org/2000/svg" xmlns:xlink="http://www.w3.org/1999/xlink" version="1.1">
<metadata>
Created by FontForge 20201107 at Fri Aug  1 12:35:57 2025
 By 
Copyright (c) 2018 Commercial Type, Inc.. All rights reserved.
</metadata>
<defs>
<font id="CanelaCondensed-MediumItalic" horiz-adv-x="776" >
  <font-face 
    font-family="Canela Cond Medium Trial"
    font-weight="500"
    font-style="italic"
    font-stretch="condensed"
    units-per-em="2048"
    panose-1="0 0 0 0 0 0 0 0 0 0"
    ascent="1587"
    descent="-461"
    x-height="991"
    cap-height="1499"
    bbox="-186 -467 1386 1595"
    underline-thickness="36"
    underline-position="-161"
    slope="-10"
    unicode-range="U+0020-201D"
  />
<missing-glyph horiz-adv-x="231" 
 />
    <glyph glyph-name=".notdef" horiz-adv-x="231" 
 />
    <glyph glyph-name=".null" horiz-adv-x="0" 
 />
    <glyph glyph-name="nonmarkingreturn" horiz-adv-x="682" 
 />
    <glyph glyph-name="space" unicode=" " horiz-adv-x="212" 
 />
    <glyph glyph-name="exclam" unicode="!" horiz-adv-x="364" 
d="M446 1499v-4l-262 -1063h-24l86 1063l2 4h198zM125 -10q-50 0 -86.5 37t-36.5 88t36.5 87t86.5 36q52 0 88.5 -36t36.5 -87t-36.5 -88t-88.5 -37z" />
    <glyph glyph-name="quotedbl" unicode="&#x22;" horiz-adv-x="493" 
d="M215 1022h-14l-8 477h200zM457 1022h-15l-8 477h201z" />
    <glyph glyph-name="quotesingle" unicode="'" horiz-adv-x="251" 
d="M215 1022h-14l-8 477h200z" />
    <glyph glyph-name="comma" unicode="," horiz-adv-x="366" 
d="M-59 -264l-7 12q61 55 101.5 126t40.5 122q0 35 -19 78.5t-41 72.5v5l179 122q22 -22 38.5 -60.5t16.5 -82.5q0 -105 -94.5 -216.5t-214.5 -178.5z" />
    <glyph glyph-name="hyphen" unicode="-" horiz-adv-x="376" 
d="M47 510l29 154h289l-27 -154h-291z" />
    <glyph glyph-name="period" unicode="." horiz-adv-x="366" 
d="M137 -10q-51 0 -88 37t-37 88t37 87t88 36t88 -36t37 -87t-37 -88t-88 -37z" />
    <glyph glyph-name="zero" unicode="0" horiz-adv-x="903" 
d="M926 991q0 -176 -47 -360t-123 -329.5t-181 -239t-213 -93.5q-134 0 -218.5 152t-84.5 389q0 175 47.5 359t123.5 329.5t181.5 238.5t213.5 93q134 0 217.5 -151.5t83.5 -387.5zM721 1221q0 270 -103 270q-76 0 -145.5 -134.5t-114 -328.5t-70.5 -396t-26 -351
q0 -271 105 -271q61 0 118.5 89t99 228t73 303t47.5 319t16 272z" />
    <glyph glyph-name="one" unicode="1" horiz-adv-x="462" 
d="M313 319q-17 -105 -15.5 -167t21.5 -148v-4h-313v4q45 81 64 142t39 176l145 919h-102l2 10q204 78 335 275h15z" />
    <glyph glyph-name="two" unicode="2" horiz-adv-x="731" 
d="M537 0h-594l6 31q152 197 263.5 368.5t173 294t97.5 235t46 184.5t10 149q0 123 -25 177t-65 54q-50 0 -112.5 -77t-148.5 -226l-12 4l78 307q118 29 192 29q149 0 223 -88t74 -238q0 -199 -151.5 -434t-487.5 -573h297q38 0 71 13.5t62.5 42t52.5 58.5t54 78l8 -4z" />
    <glyph glyph-name="three" unicode="3" horiz-adv-x="729" 
d="M246 4q52 0 97 56t73 142.5t43.5 184.5t15.5 188q0 285 -151 285q-64 0 -131 -67l-17 14l436 496h-403l84 196h522l-4 -20l-524 -596q47 18 98 18q129 0 211 -93.5t82 -260.5q0 -76 -16.5 -154t-53.5 -154.5t-88.5 -136t-128.5 -96.5t-168 -37q-59 0 -115 14.5t-77 30.5
l-4 340l12 2q17 -61 29.5 -100.5t29 -84t31.5 -71.5t33 -51t39 -34.5t45 -10.5z" />
    <glyph glyph-name="four" unicode="4" horiz-adv-x="729" 
d="M2 389l2 23l551 1087h227l-745 -1075h334l75 459h201l-74 -459h97l-11 -35h-92l-10 -65q-17 -106 -17.5 -175.5t13.5 -144.5v-4h-291v4q37 76 55 140t37 180l11 65h-363z" />
    <glyph glyph-name="five" unicode="5" horiz-adv-x="714" 
d="M201 -31q-59 0 -109.5 17.5t-73.5 40.5l-4 315l13 2q26 -89 44 -141.5t42.5 -103t52.5 -73t63 -22.5q66 0 118 90.5t77 223.5t25 278q0 155 -39 222t-113 67q-76 0 -152 -70l-10 8l193 676h483l-59 -196h-447l-123 -424q75 53 176 53q129 0 212 -93t83 -280
q0 -92 -21 -179.5t-61 -161t-94 -130t-125.5 -88t-150.5 -31.5z" />
    <glyph glyph-name="six" unicode="6" horiz-adv-x="798" 
d="M780 1513q-274 -177 -420 -636q77 118 191 118q97 0 158 -90.5t61 -251.5q0 -119 -34.5 -241.5t-92.5 -220.5t-141 -160t-172 -62q-134 0 -205.5 121.5t-71.5 317.5q0 72 9 148.5t32.5 168.5t59 179.5t93 179.5t130 171.5t174.5 151.5t223 123zM256 236q0 -226 82 -226
q62 0 115 115t80.5 268t27.5 287q0 113 -24 159t-76 46q-73 0 -123 -84q-82 -299 -82 -565z" />
    <glyph glyph-name="seven" unicode="7" horiz-adv-x="638" 
d="M242 0h-209q233 676 643 1303h-502l57 196h555l-2 -20q-365 -735 -542 -1479z" />
    <glyph glyph-name="eight" unicode="8" horiz-adv-x="720" 
d="M748 1245q0 -122 -66 -235.5t-182 -165.5l2 -4q33 -48 50 -74t44 -74.5t40.5 -86t24.5 -89.5t11 -104q0 -182 -105.5 -312.5t-263.5 -130.5q-130 0 -212.5 91.5t-82.5 242.5q0 62 16 123t49.5 120.5t93 110t138.5 82.5q-63 93 -97 180.5t-34 196.5q0 182 98 298t236 116
q108 0 174 -80.5t66 -204.5zM336 1241q0 -55 11 -104.5t37 -101.5t44 -82t57 -89q73 73 109.5 180.5t36.5 219.5q0 110 -33.5 169.5t-97.5 59.5q-75 0 -119.5 -71t-44.5 -181zM133 293q0 -133 45.5 -211t130.5 -78q86 0 140.5 77t54.5 206q0 44 -9 88.5t-17.5 73.5
t-33.5 74.5t-34.5 61.5t-44 67t-41.5 61q-1 2 -4.5 6t-4.5 6q-100 -81 -141 -196.5t-41 -235.5z" />
    <glyph glyph-name="nine" unicode="9" horiz-adv-x="798" 
d="M78 -14q297 182 444 639q-79 -121 -188 -121q-98 0 -159.5 90.5t-61.5 251.5q0 119 34.5 241.5t92.5 220.5t141 160t172 62q134 0 205 -122t71 -321q0 -71 -9 -147t-32.5 -167.5t-60 -179t-95.5 -179t-134 -170.5t-181.5 -151.5t-232.5 -123.5zM322 819
q0 -112 24.5 -158.5t75.5 -46.5q79 0 125 91q82 290 82 555q0 231 -82 231q-61 0 -114.5 -115.5t-82 -269.5t-28.5 -287z" />
    <glyph glyph-name="question" unicode="?" horiz-adv-x="632" 
d="M205 432h-25q12 97 36.5 179.5t54.5 139.5t63 108t63.5 97.5t55.5 96t40 114.5t15 142q0 86 -20.5 135t-57.5 49q-36 0 -81 -49.5t-136 -179.5l-8 2l65 239q87 25 168 25q130 0 201.5 -69.5t71.5 -203.5q0 -75 -22.5 -138.5t-60.5 -112t-84.5 -93t-97.5 -93t-97 -101
t-85 -126.5t-59 -161zM170 -10q-51 0 -87 37t-36 88t36 87t87 36t88 -36t37 -87t-37 -88t-88 -37z" />
    <glyph glyph-name="A" unicode="A" horiz-adv-x="798" 
d="M121 0h-207v4q51 59 86.5 132t75.5 183l444 1190h82l74 -1202q6 -111 19.5 -179t43.5 -124v-4h-317v4q61 104 47 328l-12 203h-260l-54 -142q-33 -88 -44.5 -166.5t-4.5 -132t27 -90.5v-4zM209 571h246l-33 570z" />
    <glyph glyph-name="B" unicode="B" horiz-adv-x="843" 
d="M-29 0v4q46 96 70.5 173.5t44.5 195.5l121 749q22 134 25.5 204t-9.5 169l2 4q70 0 186.5 3t149.5 3q165 0 244.5 -78.5t79.5 -212.5q0 -152 -90 -271t-242 -155q258 -49 258 -317q0 -93 -30 -176.5t-87 -150t-150 -105.5t-210 -39h-363zM541 1466q-16 0 -66 -4
l-108 -655h94q72 0 124.5 67t75.5 163.5t23 207.5q0 221 -143 221zM457 770h-97l-122 -725q39 -8 73 -8q136 0 211.5 133.5t75.5 351.5q0 132 -33 190t-108 58z" />
    <glyph glyph-name="C" unicode="C" horiz-adv-x="866" 
d="M805 397l-66 -317q-38 -36 -128 -73.5t-181 -37.5q-180 0 -273.5 156t-93.5 416q0 156 34 306.5t95 272t140.5 215t176 144.5t196.5 51q116 0 223 -60l-23 -284l-16 -4q-72 182 -116 246.5t-105 64.5q-100 0 -192 -168t-144.5 -420t-52.5 -502q0 -397 141 -397
q37 0 74 22t85.5 80t78.5 99.5t96 138.5l39 57z" />
    <glyph glyph-name="D" unicode="D" horiz-adv-x="950" 
d="M-20 0v4q39 73 59.5 144t36.5 178l143 862q17 104 17 165.5t-15 141.5v4q59 -1 154.5 3.5t173.5 2.5q430 -14 430 -561q0 -191 -50 -364.5t-136.5 -301t-210 -203t-263.5 -75.5h-339zM322 35q85 3 158.5 65.5t124.5 163.5t88 230.5t54 266.5t17 271q0 223 -54 331
t-178 107q-28 0 -57 -2l-233 -1437q70 4 80 4z" />
    <glyph glyph-name="E" unicode="E" horiz-adv-x="813" 
d="M-23 0v4q76 178 99 330l139 827q16 114 15 175t-15 159v4h602l10 -311l-16 -4q-49 127 -92.5 196.5t-95.5 73.5l-150 12l-111 -669h82q29 0 56.5 13.5t53.5 41t45.5 55t45.5 68.5h14l-69 -397h-15q-14 45 -24.5 71t-26.5 55t-37.5 42.5t-48.5 13.5h-82l-118 -727l194 12
q62 4 139 96t179 252l14 -6l-100 -387h-687z" />
    <glyph glyph-name="F" unicode="F" horiz-adv-x="768" 
d="M279 4v-4h-304v4q43 87 65.5 159.5t41.5 184.5l129 797q20 121 21 192.5t-13 157.5v4h625l4 -309l-17 -4q-46 123 -90.5 193.5t-95.5 74.5l-174 12l-111 -671h93q29 0 55 13t52.5 42t44 53t46.5 68h17l-72 -398h-14q-11 36 -19 58t-21 49t-26 42t-31.5 25.5t-40.5 10.5
h-90l-67 -410q-17 -103 -18 -179.5t10 -164.5z" />
    <glyph glyph-name="G" unicode="G" horiz-adv-x="931" 
d="M934 672q-43 -74 -68 -162.5t-43 -220.5l-20 -135q-3 -2 -23 -20t-29 -25.5t-32 -26t-39 -28.5t-41 -25.5t-47.5 -24t-49.5 -18t-56 -13.5t-58 -4q-94 0 -166 46.5t-114.5 128.5t-63.5 184.5t-21 222.5q0 157 34 306.5t95 270t141 211.5t177 141t197 50q129 0 241 -60
l-18 -292l-17 -4q-80 189 -123.5 254t-107.5 65q-108 0 -204.5 -165t-151 -418t-54.5 -513q0 -391 160 -391q98 0 157 123t64 326q3 116 -22 217v4h303v-4z" />
    <glyph glyph-name="H" unicode="H" horiz-adv-x="956" 
d="M-20 0v4q42 88 63 161.5t39 182.5l127 799q19 119 20.5 188t-12.5 160v4h303v-4q-46 -95 -67 -163.5t-39 -186.5l-56 -354h347l55 356q20 116 21 188.5t-13 159.5v4h301v-4q-44 -91 -64.5 -160t-37.5 -190l-127 -799q-26 -170 -9 -342v-4h-303v4q44 91 67 165t40 179
l63 406h-346l-63 -408q-27 -174 -8 -342v-4h-301z" />
    <glyph glyph-name="I" unicode="I" horiz-adv-x="405" 
d="M-25 0v4q43 87 65.5 159.5t41.5 184.5l129 799q19 121 20.5 190.5t-12.5 157.5v4h303l-2 -4q-44 -87 -64 -156.5t-38 -193.5l-131 -799q-17 -102 -18 -178t10 -164v-4h-304z" />
    <glyph glyph-name="J" unicode="J" horiz-adv-x="575" 
d="M594 1120l-121 -737q-33 -192 -120 -303t-220 -111q-76 0 -149 27l22 301l12 4q79 -295 140 -295q27 0 50 71t48 228l133 817q19 125 19.5 204.5t-13.5 168.5v4h303v-4q-43 -89 -61.5 -159.5t-42.5 -215.5z" />
    <glyph glyph-name="K" unicode="K" horiz-adv-x="872" 
d="M809 0h-266l-189 739l287 412q151 200 96 344v4h264v-4q-83 -60 -145.5 -130t-157.5 -200l-166 -241l160 -625q52 -207 117 -295v-4zM-25 0v4q43 87 65.5 159.5t41.5 184.5l129 799q19 121 20.5 190.5t-12.5 157.5v4h309l-2 -4q-47 -85 -67.5 -154t-40.5 -196l-131 -799
q-17 -102 -18 -178t10 -164v-4h-304z" />
    <glyph glyph-name="L" unicode="L" horiz-adv-x="743" 
d="M205 1096q22 132 23.5 218t-11.5 181v4h303l2 -4q-46 -102 -68 -182t-44 -219l-172 -1059l122 8q116 7 312 317l10 -6l-94 -354h-608v4q42 99 65 181.5t45 213.5z" />
    <glyph glyph-name="M" unicode="M" horiz-adv-x="1062" 
d="M621 0v4q43 86 65 159t39 185l141 871l-463 -1176h-38l-89 1176l-133 -822q-22 -131 -16.5 -214t43.5 -179v-4h-209v4q65 99 93 177.5t50 215.5l129 793q14 98 9.5 170t-31.5 135v4h242l77 -1022l406 1022h244v-4q-47 -63 -72 -129.5t-45 -183.5l-131 -836
q-15 -107 -16.5 -178t10.5 -164v-4h-305z" />
    <glyph glyph-name="N" unicode="N" horiz-adv-x="868" 
d="M653 -2l-377 1235l-133 -836q-20 -139 -14 -216t43 -177v-4h-203v4q60 98 85.5 174.5t49.5 218.5l121 746l-2 -6q23 127 21 209t-41 149v4h200l314 -1032l102 637q19 133 14.5 212.5t-36.5 178.5v4h198v-4q-61 -100 -88 -178.5t-49 -214.5l-178 -1102z" />
    <glyph glyph-name="O" unicode="O" horiz-adv-x="993" 
d="M63 559q0 151 34 298.5t94 267t136 211.5t165.5 143t177.5 51q112 0 193 -79.5t120 -210t39 -294.5q0 -151 -34 -299t-93.5 -268.5t-135.5 -213.5t-164.5 -144.5t-176.5 -51.5q-114 0 -196 81.5t-120.5 212.5t-38.5 296zM270 399q0 -393 156 -393q79 0 152.5 107
t123.5 270t80.5 355.5t30.5 365.5q0 389 -151 389q-79 0 -154 -107.5t-125.5 -270.5t-81.5 -354.5t-31 -361.5z" />
    <glyph glyph-name="P" unicode="P" horiz-adv-x="802" 
d="M279 4v-4h-299v4q38 71 58.5 144t43.5 200l137 840q17 104 17 165.5t-15 141.5v4h340q162 0 241 -90.5t79 -239.5q0 -136 -61 -256.5t-173 -196t-248 -75.5h-63l-49 -295q-17 -102 -18 -178t10 -164zM524 1462q-35 0 -53 -2l-129 -782h59q84 0 147.5 82t93.5 201t30 249
q0 252 -148 252z" />
    <glyph glyph-name="Q" unicode="Q" horiz-adv-x="993" 
d="M63 559q0 151 34 298.5t94 267t136 211.5t165.5 143t177.5 51q112 0 193 -79.5t120 -210t39 -294.5q0 -180 -48 -353.5t-126.5 -304t-181 -216.5t-207.5 -101q93 -110 264 -110q127 0 223 47l-61 -205q-43 -29 -119 -29q-62 0 -117 22t-91 54t-66 75t-45.5 76.5
t-26.5 67.5h-2q-114 0 -196 81.5t-120.5 212.5t-38.5 296zM270 399q0 -393 156 -393q79 0 152.5 107t123.5 270t80.5 355.5t30.5 365.5q0 389 -151 389q-79 0 -154 -107.5t-125.5 -270.5t-81.5 -354.5t-31 -361.5z" />
    <glyph glyph-name="R" unicode="R" horiz-adv-x="888" 
d="M279 4v-4h-299v4q38 69 58.5 142.5t43.5 201.5l137 840q17 104 17 165.5t-15 141.5v4h330q167 0 249.5 -83t82.5 -228q0 -128 -62 -240t-180 -168l70 -501q15 -111 33 -170.5t51 -104.5v-4h-256l-99 731h-90l-63 -385q-17 -102 -18 -178t10 -164zM528 1462h-57l-115 -694
h78q65 0 114.5 47t76.5 121t40 151.5t13 151.5q0 108 -34.5 165.5t-115.5 57.5z" />
    <glyph glyph-name="S" unicode="S" horiz-adv-x="722" 
d="M735 1491l-22 -279l-15 -2q-56 167 -99 225t-99 58q-71 0 -118.5 -60.5t-47.5 -156.5q0 -36 8 -73.5t18 -66t31.5 -69t35 -62.5t43 -68.5t42.5 -66.5q69 -108 108 -211.5t39 -228.5q1 -213 -111.5 -337t-275.5 -124q-67 0 -140 18.5t-107 43.5l10 317l14 4
q120 -346 273 -346q74 0 123 74t49 201q0 53 -10.5 105.5t-22 87t-39.5 89t-40.5 75t-49.5 79.5q-51 80 -79 132.5t-53.5 133.5t-25.5 160q0 179 103 283t262 104q93 0 196 -39z" />
    <glyph glyph-name="T" unicode="T" horiz-adv-x="872" 
d="M313 348l183 1118l-64 -4q-47 -3 -158 -157q-23 -33 -116 -168l-11 4l93 358h725l-13 -360l-10 -2q-53 157 -95 238t-91 85l-54 4l-182 -1118q-17 -97 -18 -175.5t10 -166.5v-4h-305v4q41 86 64 160.5t42 183.5z" />
    <glyph glyph-name="U" unicode="U" horiz-adv-x="847" 
d="M383 -31q-163 0 -249 118.5t-52 322.5l117 710q22 131 24.5 205t-12.5 170l2 4h309l-2 -4q-43 -88 -68 -169t-46 -206l-119 -733q-61 -371 147 -371q57 0 103 28t77.5 79.5t53 116t34.5 143.5l123 723q22 140 15.5 215t-47.5 174l2 4h219l-2 -4q-67 -95 -96 -170.5
t-54 -220.5l-121 -723q-16 -93 -41.5 -163.5t-66.5 -129t-104 -89t-146 -30.5z" />
    <glyph glyph-name="V" unicode="V" 
d="M160 1499h313v-4q-59 -121 -51 -346l31 -776l276 764q41 131 37.5 219t-37.5 139v4h219v-4q-83 -90 -164 -324l-430 -1183h-88l-51 1194q-6 116 -18 185.5t-37 127.5v4z" />
    <glyph glyph-name="W" unicode="W" horiz-adv-x="1212" 
d="M166 1499h307v-4q-58 -116 -55 -356l14 -750l260 727v41q-3 123 -15 198t-38 140v4h311v-4q-61 -106 -55 -354l16 -752l242 696q94 267 35 410v4h198v-4q-48 -57 -83 -131t-82 -207l-412 -1169h-88l-25 1026l-368 -1026h-88l-27 1169q-2 209 -47 338v4z" />
    <glyph glyph-name="X" unicode="X" horiz-adv-x="866" 
d="M784 0h-342v4q30 41 38 120t-11 193l-72 377l-145 -297q-125 -246 -57 -393v-4h-256v4q71 65 125.5 144.5t117.5 203.5l203 406l-78 416q-23 135 -46 204.5t-60 116.5v4h344v-4q-28 -40 -36 -120.5t9 -192.5l55 -285l115 217q47 89 67.5 160.5t18.5 122.5t-22 98v4h254
v-4q-132 -118 -248 -336l-174 -321l98 -512q23 -134 45.5 -204t56.5 -118v-4z" />
    <glyph glyph-name="Y" unicode="Y" horiz-adv-x="770" 
d="M158 0v4q40 84 60.5 154t37.5 178l61 373l-65 477q-36 212 -88 309v4h340v-4q-31 -41 -42.5 -118.5t-0.5 -168.5l57 -428l166 357q102 216 31 358v4h227v-4q-59 -60 -99 -127t-98 -192l-223 -476l-59 -364q-15 -101 -15 -172t15 -160v-4h-305z" />
    <glyph glyph-name="Z" unicode="Z" horiz-adv-x="817" 
d="M-31 0v18l742 1444l-152 -6q-41 -1 -82 -21.5t-84.5 -60.5t-78 -77.5t-84.5 -96.5l-15 -18l-8 6l90 311h635v-18l-742 -1444l187 6q35 1 75 23t72.5 50t74.5 77.5t67 83.5t65 90l8 -5l-98 -362h-672z" />
    <glyph glyph-name="a" unicode="a" horiz-adv-x="745" 
d="M643 10l-272 -22l65 301q-51 -143 -119 -231.5t-145 -88.5q-70 0 -111.5 75t-40.5 218q2 131 41 265.5t106 246t166 182t210 70.5q91 0 155 -49l64 49h12l-168 -766q-26 -106 -20 -165t57 -81v-4zM207 311q-3 -164 69 -164q94 0 189 318l92 403l2 2q16 115 -51 115
q-73 0 -144.5 -114t-113.5 -270.5t-43 -289.5z" />
    <glyph glyph-name="b" unicode="b" horiz-adv-x="749" 
d="M461 1595l-172 -927q109 358 276 358q164 0 164 -299q0 -189 -57 -361.5t-164.5 -284.5t-239.5 -112q-119 0 -184 96.5t-33 280.5l150 858q38 194 -19 291v4zM225 274q-47 -270 54 -270q69 0 130.5 115.5t95.5 277t34 310.5q0 89 -16 126t-50 37q-44 0 -99 -93.5
t-108 -274.5z" />
    <glyph glyph-name="c" unicode="c" horiz-adv-x="602" 
d="M516 276l10 -2q-33 -145 -102 -225t-170 -80q-116 0 -176 102t-60 273q0 183 63 340.5t168 249.5t224 92q73 0 135 -31l-8 -217l-14 -4q-48 114 -83.5 165.5t-70.5 51.5q-33 0 -71 -39.5t-72.5 -108t-57.5 -177.5t-24 -232q-3 -301 141 -301q99 0 168 143z" />
    <glyph glyph-name="d" unicode="d" 
d="M412 -12l71 358q-58 -165 -135.5 -271t-169.5 -106q-72 0 -115 72t-43 213q0 129 39 265t106 249t167.5 185.5t212.5 72.5q21 0 49 -4l37 207q17 80 15.5 156t-36.5 116v4l277 88l-234 -1317q-23 -116 -16.5 -179.5t51.5 -84.5v-4zM211 299q0 -170 70 -170q48 0 105.5 92
t115.5 275h2l78 446q-17 43 -62 43q-74 0 -147 -109.5t-117.5 -270t-44.5 -306.5z" />
    <glyph glyph-name="e" unicode="e" horiz-adv-x="614" 
d="M522 274q-37 -150 -112 -227.5t-170 -77.5q-107 0 -164.5 98.5t-57.5 266.5q0 182 66 343.5t172 255t221 93.5q71 0 116.5 -37.5t45.5 -109.5q0 -109 -102 -178.5t-304 -65.5q-20 -113 -20 -223q0 -141 32.5 -207t102.5 -66q96 0 164 140zM455 991q-62 0 -124 -93
t-93 -243q80 15 136 46.5t83 72t38 76.5t11 72q0 69 -51 69z" />
    <glyph glyph-name="f" unicode="f" horiz-adv-x="436" 
d="M-39 -338l242 1296h-92l6 33h92l31 168q37 195 135.5 314.5t222.5 119.5q43 0 86 -16l-4 -244l-12 -4q-23 64 -35 94.5t-28.5 66.5t-29.5 50t-26 14q-46 0 -98 -286l-52 -277h119l-6 -33h-119l-241 -1296h-191z" />
    <glyph glyph-name="g" unicode="g" horiz-adv-x="690" 
d="M16 127q0 84 48.5 141.5t119.5 81.5q-44 40 -68 108t-24 140q0 108 49.5 208.5t127 160t157.5 59.5q65 0 115 -47l233 102l2 -2l-39 -190h-6l-168 65q68 -86 68 -221q0 -107 -49 -206.5t-126.5 -158.5t-158.5 -59q-51 0 -94 29q-58 -36 -58 -86q0 -20 9.5 -36t22.5 -27
t39.5 -22.5t49 -19t60.5 -19.5q7 -2 10 -3q41 -13 68.5 -23.5t61 -30.5t53 -43.5t33 -61.5t13.5 -85q0 -150 -112.5 -249t-292.5 -99q-128 0 -201.5 51.5t-73.5 143.5q0 89 66 150t164 87q-99 57 -99 162zM254 467q0 -62 9 -93.5t36 -31.5q40 0 80 80.5t65 202t25 235.5
q0 131 -45 131q-40 0 -80 -80.5t-65 -203t-25 -240.5zM12 -242q0 -81 49.5 -127.5t149.5 -46.5q108 0 176 50t68 124q0 26 -10 46.5t-26 35t-40 26.5t-49 21t-55 19q-17 5 -25 8q-61 18 -119 43q-54 -25 -86.5 -78.5t-32.5 -120.5z" />
    <glyph glyph-name="h" unicode="h" 
d="M-23 0v4q49 106 89 328l155 897q12 68 16 110t-3 88t-31 74v4l274 88l-184 -991q25 71 48 126.5t54.5 112.5t64.5 95t75 62t88 24q75 0 109.5 -61.5t12.5 -182.5l-96 -528q-25 -109 -19.5 -165t56.5 -75v-2l-278 -20l153 813q13 82 -37 82q-29 0 -58.5 -27t-60 -81.5
t-59 -119t-63.5 -157.5l-33 -197q-34 -197 -21 -297v-4h-252z" />
    <glyph glyph-name="i" unicode="i" horiz-adv-x="364" 
d="M305 1171q-54 0 -90.5 37.5t-36.5 91.5q0 52 37 88.5t90 36.5q52 0 88.5 -37t36.5 -88q0 -54 -36.5 -91.5t-88.5 -37.5zM-23 0v4q32 63 51.5 141t41.5 213l49 289q37 211 -21 285v4l277 86l-117 -666q-25 -147 -32 -218.5t-1 -133.5v-4h-248z" />
    <glyph glyph-name="j" unicode="j" horiz-adv-x="344" 
d="M303 1171q-54 0 -90.5 37.5t-36.5 91.5q0 52 37 88.5t90 36.5q52 0 88.5 -37t36.5 -88q0 -54 -36.5 -91.5t-88.5 -37.5zM-186 -428q130 78 174 332l129 743q37 211 -21 285v4l277 86l-168 -950q-44 -232 -151.5 -361t-235.5 -151z" />
    <glyph glyph-name="k" unicode="k" horiz-adv-x="718" 
d="M-23 0v4q49 106 89 328l155 897q12 68 16 110t-3 88t-31 74v4l274 88l-188 -1073l229 277q52 62 63.5 105t-14.5 85v4h219v-4q-62 -33 -113 -79t-132 -140l-95 -115l115 -463q35 -138 86 -186v-4h-237l-125 500l-29 -168q-23 -134 -28.5 -201.5t1.5 -126.5v-4h-252z" />
    <glyph glyph-name="l" unicode="l" horiz-adv-x="366" 
d="M229 0h-252v4q49 106 89 328l155 897q12 68 16 110t-3 88t-31 74v4l274 88l-221 -1261q-23 -134 -28.5 -201.5t1.5 -126.5v-4z" />
    <glyph glyph-name="m" unicode="m" horiz-adv-x="1157" 
d="M-25 0v4q51 114 88 326l58 336q33 207 -21 268v4l269 90l-78 -426q30 91 59.5 160t69 132.5t87.5 97.5t103 34q70 0 102.5 -63.5t10.5 -188.5l-29 -164q23 69 46.5 125.5t54 112.5t62.5 93.5t72.5 61t84.5 23.5q71 0 104.5 -63.5t11.5 -186.5l-96 -526q-24 -109 -18 -165
t55 -75v-2l-276 -20l151 805q17 92 -31 92q-45 0 -107 -109.5t-126 -286.5l-41 -210q-31 -165 -16 -275v-4h-250v4q44 107 84 330l84 459q17 92 -31 92q-47 0 -109 -111.5t-127 -292.5l-32 -196q-34 -184 -19 -281v-4h-250z" />
    <glyph glyph-name="n" unicode="n" 
d="M-25 0v4q51 114 88 326l58 336q33 207 -21 268v4l269 90l-78 -428q25 72 48.5 127.5t55.5 114.5t65 97t75 62.5t88 24.5q74 0 109 -62.5t13 -183.5l-98 -530q-24 -109 -18 -165t55 -75v-2l-276 -20l153 817q13 80 -37 80q-30 0 -61 -28.5t-62 -85t-61 -126t-64 -164.5
l-32 -196q-34 -184 -19 -281v-4h-250z" />
    <glyph glyph-name="o" unicode="o" horiz-adv-x="731" 
d="M18 356q0 163 65 319.5t169 253.5t211 97q109 0 178.5 -112t69.5 -277q0 -162 -64.5 -318t-168 -253t-210.5 -97q-109 0 -179.5 111t-70.5 276zM528 791q0 198 -69 198q-41 0 -87 -68.5t-83 -176.5t-61.5 -253t-24.5 -286q0 -201 69 -201q55 0 115 114t100.5 300
t40.5 373z" />
    <glyph glyph-name="p" unicode="p" horiz-adv-x="765" 
d="M115 637q40 216 -19 291v4l275 96l-64 -350q50 159 119 253.5t156 94.5q163 0 163 -295q0 -186 -54.5 -358.5t-161.5 -288t-240 -115.5q-52 0 -96 21l-13 -66q-29 -156 -37 -234.5t-2 -146.5v-4h-250v4q33 68 52.5 149t46.5 232zM489 870q-42 0 -95 -89.5t-109 -268.5
l-54 -301q-23 -207 64 -207q68 0 129.5 118t96 281t34.5 308q0 87 -15.5 123t-50.5 36z" />
    <glyph glyph-name="q" unicode="q" horiz-adv-x="768" 
d="M584 -102q-26 -138 -34 -212t-1 -143v-4h-252v4q55 123 100 375l68 375q-57 -145 -129.5 -234.5t-157.5 -89.5q-72 0 -115 72t-43 213q0 103 24.5 212t71.5 208.5t109.5 178.5t146 126t173.5 47q110 0 172 -55l57 51h10zM211 299q0 -170 70 -170q48 0 105.5 90.5
t113.5 269.5l61 342q16 79 6.5 116.5t-47.5 37.5q-74 0 -147 -109.5t-117.5 -270t-44.5 -306.5z" />
    <glyph glyph-name="r" unicode="r" horiz-adv-x="542" 
d="M-25 0v4q51 114 88 326l58 336q33 207 -21 268v4l269 90l-82 -442q156 442 323 442l-82 -307h-6q-12 12 -61 12q-23 0 -41 -7.5t-41 -31t-47.5 -75t-50.5 -130.5l-37 -204q-34 -184 -19 -281v-4h-250z" />
    <glyph glyph-name="s" unicode="s" horiz-adv-x="516" 
d="M500 993l-8 -198l-11 -4q-47 111 -79 154.5t-74 43.5t-67 -33.5t-25 -89.5q0 -51 22 -106t53 -105t62.5 -103.5t53.5 -122t22 -140.5q0 -146 -79.5 -233t-199.5 -87q-90 0 -168 56l2 235l10 4q58 -138 102 -199t93 -61q40 0 67 38t27 105q0 56 -21.5 114.5t-52.5 110.5
t-62.5 105.5t-53 120t-21.5 133.5q0 132 74.5 213.5t193.5 81.5q38 0 78 -9.5t62 -23.5z" />
    <glyph glyph-name="t" unicode="t" horiz-adv-x="497" 
d="M422 227q-48 -119 -116 -188.5t-142 -69.5q-70 0 -103 63t-10 189l139 737h-73l2 15l293 246h16l-43 -228h166l-6 -33h-166l-139 -755q-18 -92 39 -92q60 0 129 127z" />
    <glyph glyph-name="u" unicode="u" horiz-adv-x="741" 
d="M96 991h273l-166 -784q-22 -90 30 -90q49 0 101.5 92.5t130.5 292.5l61 282q10 46 12 79.5t-11 68t-44 55.5v4h275l-156 -712q-27 -109 -21.5 -166t56.5 -88v-5l-272 -38l73 348q-144 -361 -317 -361q-72 0 -101 63t-6 173l127 579q10 46 12 79.5t-11.5 68t-45.5 55.5v4z
" />
    <glyph glyph-name="v" unicode="v" horiz-adv-x="569" 
d="M651 987l-497 -1001h-45v737q0 112 -8.5 167t-37.5 97v4h232l-2 -639l160 322q112 228 10 313v4h188v-4z" />
    <glyph glyph-name="w" unicode="w" horiz-adv-x="876" 
d="M946 987l-440 -1001h-45l6 684l-311 -684h-45l2 719q1 110 -9 172t-36 110v4h233l-6 -612l172 381q-5 148 -53 227v4h235l-10 -606l98 221q120 277 27 381v4h182v-4z" />
    <glyph glyph-name="x" unicode="x" horiz-adv-x="665" 
d="M139 279l115 194l-53 270q-33 172 -86 244v4h288v-4q-53 -44 -14 -237l29 -152l55 98q124 215 66 291v4h190v-4q-57 -52 -99 -109t-102 -163l-98 -172l57 -297q30 -156 88 -242v-4h-286v4q46 57 10 238l-35 178l-71 -123q-115 -201 -68 -293v-4h-193v4q58 52 103 111.5
t104 163.5z" />
    <glyph glyph-name="y" unicode="y" horiz-adv-x="567" 
d="M-176 -461l43 228q89 -5 154.5 34.5t119.5 157.5l-22 766q-3 107 -14 162t-42 100v4h240l14 -639l146 320q100 230 0 315v4h186v-4l-514 -1126q-77 -168 -151.5 -237.5t-159.5 -84.5z" />
    <glyph glyph-name="z" unicode="z" horiz-adv-x="636" 
d="M567 272l-90 -272h-516v14l494 944l-109 -8q-19 -1 -40 -12t-48 -36t-44 -42.5t-52.5 -56.5t-48.5 -53l-11 4l78 237h488v-14l-492 -944l121 4q52 1 116.5 65.5t143.5 173.5z" />
    <glyph glyph-name="quoteleft" unicode="&#x2018;" horiz-adv-x="346" 
d="M432 1546l6 -12q-52 -39 -82 -94t-30 -99q0 -33 18.5 -79.5t40.5 -73.5v-6l-147 -107q-24 22 -41 62t-17 77q0 84 77 184t175 148z" />
    <glyph glyph-name="quoteright" unicode="&#x2019;" horiz-adv-x="346" 
d="M176 1075l-6 12q52 39 82.5 94t30.5 99q0 33 -19 80t-41 74v6l148 106q24 -22 40.5 -62t16.5 -77q0 -84 -77 -184t-175 -148z" />
    <glyph glyph-name="quotedblleft" unicode="&#x201c;" horiz-adv-x="598" 
d="M682 1546l6 -12q-52 -39 -82.5 -94t-30.5 -99q0 -33 18.5 -79.5t41.5 -73.5v-6l-148 -107q-24 22 -40.5 62t-16.5 77q0 84 77 184t175 148zM430 1546l6 -12q-52 -39 -82 -94t-30 -99q0 -33 18.5 -79.5t40.5 -73.5v-6l-147 -107q-24 22 -41 62t-17 77q0 84 77 184t175 148
z" />
    <glyph glyph-name="quotedblright" unicode="&#x201d;" horiz-adv-x="598" 
d="M164 1075l-6 12q52 39 82 94t30 99q0 33 -18.5 80t-40.5 74v6l147 106q24 -22 41 -62t17 -77q0 -84 -77 -184t-175 -148zM416 1075l-6 12q52 39 82 94t30 99q0 33 -18.5 80t-40.5 74v6l147 106q24 -22 41 -62t17 -77q0 -84 -77 -184t-175 -148z" />
    </font>
</defs>
</svg>
