<?xml version="1.0" standalone="no"?>
<!DOCTYPE svg PUBLIC "-//W3C//DTD SVG 1.1//EN" "http://www.w3.org/Graphics/SVG/1.1/DTD/svg11.dtd" >
<svg xmlns="http://www.w3.org/2000/svg" xmlns:xlink="http://www.w3.org/1999/xlink" version="1.1">
<metadata>
Created by FontForge 20201107 at Fri Aug  1 12:35:58 2025
 By 
Copyright (c) 2018 Commercial Type, Inc.. All rights reserved.
</metadata>
<defs>
<font id="CanelaCondensed-ThinItalic" horiz-adv-x="299" >
  <font-face 
    font-family="Canela Cond Thin Trial"
    font-weight="100"
    font-style="italic"
    font-stretch="condensed"
    units-per-em="2048"
    panose-1="0 0 0 0 0 0 0 0 0 0"
    ascent="1587"
    descent="-461"
    x-height="973"
    cap-height="1499"
    bbox="-188 -461 1217 1595"
    underline-thickness="36"
    underline-position="-161"
    slope="-10"
    unicode-range="U+0020-201D"
  />
<missing-glyph horiz-adv-x="231" 
 />
    <glyph glyph-name=".notdef" horiz-adv-x="231" 
 />
    <glyph glyph-name=".null" horiz-adv-x="0" 
 />
    <glyph glyph-name="nonmarkingreturn" horiz-adv-x="682" 
 />
    <glyph glyph-name="space" unicode=" " horiz-adv-x="186" 
 />
    <glyph glyph-name="exclam" unicode="!" horiz-adv-x="286" 
d="M348 1499v-4l-229 -1145h-21l164 1145l2 4h84zM74 -6q-32 0 -55 23t-23 55t23 55t55 23t55 -23t23 -55t-23 -55t-55 -23z" />
    <glyph glyph-name="quotedbl" unicode="&#x22;" horiz-adv-x="356" 
d="M193 1110h-15l33 389h100zM365 1110h-15l33 389h100z" />
    <glyph glyph-name="quotesingle" unicode="'" horiz-adv-x="184" 
d="M193 1110h-15l33 389h100z" />
    <glyph glyph-name="comma" unicode="," 
d="M-41 -287l-10 13q54 51 90.5 114.5t36.5 106.5q0 54 -47 116v5l98 82q20 -18 32.5 -49.5t12.5 -67.5q0 -81 -64 -167.5t-149 -152.5z" />
    <glyph glyph-name="hyphen" unicode="-" horiz-adv-x="428" 
d="M66 541l16 77h307l-16 -77h-307z" />
    <glyph glyph-name="period" unicode="." 
d="M94 -6q-32 0 -55 23t-23 55t23 55t55 23t55 -23t23 -55t-23 -55t-55 -23z" />
    <glyph glyph-name="zero" unicode="0" horiz-adv-x="854" 
d="M854 1006q0 -185 -41.5 -372t-109.5 -333.5t-164.5 -239t-198.5 -92.5q-126 0 -197 139.5t-71 385.5q0 185 41.5 372t109.5 333.5t164.5 238.5t198.5 92q126 0 197 -139t71 -385zM768 1094q0 203 -49 301t-137 98q-71 0 -133.5 -57.5t-107.5 -152t-81 -211t-58 -240
t-33 -232.5t-11 -194q0 -203 49 -301.5t137 -98.5q71 0 133.5 57.5t107.5 152.5t81 211.5t58 240t33 232.5t11 194z" />
    <glyph glyph-name="one" unicode="1" horiz-adv-x="387" 
d="M195 221q-12 -81 -11.5 -127t13.5 -90v-4h-156v4q26 46 40.5 91.5t27.5 127.5l165 1065h-100v4q59 27 122 97.5t97 136.5h6z" />
    <glyph glyph-name="two" unicode="2" horiz-adv-x="681" 
d="M510 0h-541v20q166 181 287.5 340t191 275.5t110 225t53 182.5t12.5 153q0 158 -44.5 227.5t-117.5 69.5q-20 0 -39 -6t-33 -12.5t-31.5 -24.5t-28 -29t-29.5 -39t-28 -42.5t-31 -51t-32 -53.5l-10 2l73 256q104 37 187 37q123 0 188.5 -89.5t65.5 -250.5
q0 -228 -145 -485.5t-480 -598.5h287q74 0 112 30t93 122l8 -4z" />
    <glyph glyph-name="three" unicode="3" horiz-adv-x="663" 
d="M244 6q77 0 135 51.5t90 135.5t47.5 175t15.5 185q0 179 -52.5 262.5t-166.5 83.5q-84 0 -141 -57l-14 14l471 551h-393l30 92h469v-20l-479 -559q37 12 82 12q57 0 107.5 -24.5t91.5 -72.5t64 -126.5t22 -178.5q-1 -72 -13.5 -145.5t-42.5 -149.5t-74 -134t-113.5 -95
t-154.5 -37q-59 0 -113 17t-83 41l-9 237l11 2q42 -144 90.5 -202t122.5 -58z" />
    <glyph glyph-name="four" unicode="4" horiz-adv-x="677" 
d="M-10 389v17l626 1093h103l-680 -1063h377l90 568h86l-90 -568h114l-14 -47h-108l-27 -164q-12 -93 -10 -133t18 -88v-4h-158v4q24 44 37 89t27 132l27 164h-418z" />
    <glyph glyph-name="five" unicode="5" horiz-adv-x="681" 
d="M229 -31q-66 0 -122.5 23t-88.5 53l-8 219l10 2q42 -142 93.5 -201t126.5 -59q61 0 110.5 35t81 91t52.5 130.5t29.5 149.5t8.5 153q0 357 -200 357q-97 0 -170 -78l-15 10l182 645h435l-25 -92h-399l-140 -496q62 47 150 47q130 0 201 -105t71 -292q0 -104 -22.5 -205.5
t-67 -189.5t-120.5 -142.5t-173 -54.5z" />
    <glyph glyph-name="six" unicode="6" horiz-adv-x="745" 
d="M725 1516q-321 -221 -477 -652q36 57 93.5 94t123.5 37q108 0 171.5 -99t63.5 -280q0 -161 -48.5 -309.5t-136.5 -243t-193 -94.5q-118 0 -189.5 120.5t-71.5 318.5q0 104 20 217t68.5 242.5t121 246.5t188.5 228t260 188zM152 344q0 -168 45.5 -253t126.5 -85
q70 0 126.5 58.5t90 151t51.5 196.5t18 206q0 308 -184 308q-147 0 -217 -183q-57 -209 -57 -399z" />
    <glyph glyph-name="seven" unicode="7" horiz-adv-x="632" 
d="M158 0h-97q213 694 627 1409h-502l27 90h543l-4 -20q-398 -743 -594 -1479z" />
    <glyph glyph-name="eight" unicode="8" horiz-adv-x="706" 
d="M707 1262q0 -74 -23.5 -151.5t-84 -161.5t-150.5 -140q89 -135 128 -234t39 -204q0 -160 -83.5 -281t-215.5 -121q-115 0 -192.5 89t-77.5 241q0 89 26.5 172.5t96.5 170t178 146.5q-69 103 -102 189t-33 192q0 158 74 259.5t192 101.5q103 0 165.5 -74t62.5 -194z
M420 852q6 -9 12 -21q103 70 153 186t50 247q0 229 -158 229q-94 0 -145 -78.5t-51 -208.5q0 -87 30 -162t109 -192zM119 305q0 -145 52.5 -222t150.5 -77q108 0 167.5 91t59.5 243q0 84 -36 170.5t-151 255.5q-243 -151 -243 -461z" />
    <glyph glyph-name="nine" unicode="9" horiz-adv-x="745" 
d="M55 -16q195 120 326 290t201 369q-35 -61 -95.5 -100t-130.5 -39q-108 0 -171.5 99t-63.5 280q0 161 48.5 309.5t137 243t193.5 94.5q118 0 189 -120t71 -318q0 -106 -19 -217.5t-69 -242t-126 -247t-201.5 -228t-283.5 -188.5zM211 881q0 -308 184 -308q151 0 221 183
q54 200 54 399q0 168 -45.5 253t-126.5 85q-70 0 -126.5 -58.5t-90.5 -151t-52 -197t-18 -205.5z" />
    <glyph glyph-name="question" unicode="?" horiz-adv-x="579" 
d="M168 412h-23q19 83 54.5 157t75.5 127.5t84 104.5t84 100t72.5 102t51.5 121.5t19 147.5q0 221 -140 221q-66 0 -121.5 -53.5t-142.5 -184.5l-10 5l66 233q114 37 204 37q113 0 171.5 -64.5t58.5 -191.5q0 -77 -21 -145.5t-57.5 -122.5t-81 -104.5t-94.5 -103.5t-96 -107
t-87.5 -126.5t-66.5 -152.5zM109 -6q-32 0 -55 23t-23 55t23 55t55 23t54.5 -23t22.5 -55t-22.5 -55t-54.5 -23z" />
    <glyph glyph-name="A" unicode="A" horiz-adv-x="706" 
d="M98 0h-184v4q49 51 78 101.5t65 150.5l455 1257h27l57 -1300q5 -142 49 -209v-4h-180v4q57 59 49 217l-14 344h-287l-107 -297q-28 -79 -31 -152.5t23 -111.5v-4zM227 602h271l-29 672z" />
    <glyph glyph-name="B" unicode="B" horiz-adv-x="774" 
d="M20 0v4q25 44 38.5 91.5t27.5 133.5l166 1043q21 130 -2 223v4q32 0 122.5 3t135.5 3q67 0 119 -19t83 -49.5t51 -73t27 -84.5t7 -89q0 -311 -265 -393q94 -33 150.5 -115.5t56.5 -216.5q0 -56 -10 -113.5t-38 -122.5t-71.5 -114.5t-117.5 -82t-168 -32.5h-312zM492 1470
q-41 0 -123 -8l-103 -643h180q63 0 111 25t76 63t46 90.5t24 100.5t6 100q0 137 -49.5 204.5t-167.5 67.5zM436 782h-176l-117 -735q95 -10 174 -10q88 0 152.5 32.5t101.5 92.5t54.5 136.5t17.5 172.5q0 311 -207 311z" />
    <glyph glyph-name="C" unicode="C" horiz-adv-x="823" 
d="M760 322l-68 -254q-40 -34 -117 -66.5t-155 -32.5q-114 0 -194 77.5t-117 205t-37 293.5q0 102 14.5 210.5t42.5 220t75 210.5t107 176.5t143 122.5t179 45q67 0 125.5 -17.5t79.5 -35.5l6 -242l-13 -2q-20 79 -46 133t-56.5 80.5t-58.5 36.5t-62 10q-91 0 -167 -66
t-126 -170t-84.5 -237t-49.5 -262.5t-15 -251.5q0 -110 13 -197.5t40 -157t74.5 -107.5t112.5 -38q98 0 179.5 81.5t162.5 238.5z" />
    <glyph glyph-name="D" unicode="D" horiz-adv-x="911" 
d="M20 0v4q25 44 38.5 91.5t27.5 133.5l166 1043q21 130 -2 223v4q44 0 153.5 3t133.5 3q186 0 280 -137.5t94 -380.5q0 -108 -18 -221.5t-52.5 -224t-88 -208t-119.5 -172t-153 -118t-183 -43.5h-277zM295 39q82 2 153.5 39t123.5 97.5t94.5 141.5t70 169t46 183.5
t26.5 180.5t8 164q0 222 -68 337t-217 115h-161l-232 -1431z" />
    <glyph glyph-name="E" unicode="E" horiz-adv-x="749" 
d="M20 0v4q25 44 38.5 91.5t27.5 133.5l166 1043q21 140 -2 223v4h485l4 -254l-12 -2q-16 71 -31.5 114.5t-35.5 65t-39.5 28t-51.5 7.5l-198 6l-109 -671h168q70 0 139 163h13l-62 -374h-12q-23 118 -36 143q-16 31 -46 31h-170l-115 -725l244 6q59 2 107.5 33t86 80
t89.5 137l12 -4l-98 -283h-562z" />
    <glyph glyph-name="F" unicode="F" horiz-adv-x="661" 
d="M176 4v-4h-156v4q24 50 38 105t32 161l154 961q14 100 13.5 154t-13.5 110l2 4h502l4 -254l-13 -2q-16 71 -31.5 114t-35.5 64.5t-39 28t-51 8.5l-215 8l-107 -673h168q70 0 139 163h13l-62 -374h-12q-23 117 -36 143q-16 31 -48 31h-168l-78 -488q-15 -97 -15 -154.5
t15 -109.5z" />
    <glyph glyph-name="G" unicode="G" horiz-adv-x="878" 
d="M827 647q-24 -50 -35.5 -99t-27.5 -155l-45 -297q-3 -2 -36.5 -28t-51 -36.5t-52 -29t-70.5 -26t-77 -7.5q-91 0 -161 44.5t-113 123.5t-64.5 182.5t-21.5 227.5q0 123 20 254t66 262.5t111 234.5t163 167.5t215 64.5q69 0 132 -17.5t83 -35.5l6 -242l-12 -2
q-21 79 -49 133t-60.5 80.5t-62.5 36.5t-66 10q-92 0 -169 -65.5t-128 -170t-87 -237t-52 -263t-16 -251.5q0 -500 266 -500q141 0 203.5 129t62.5 373q0 87 -18 139v4h147v-4z" />
    <glyph glyph-name="H" unicode="H" horiz-adv-x="860" 
d="M20 0v4q25 44 38.5 91.5t27.5 133.5l166 1043q21 140 -2 223v4h156v-4q-45 -80 -68 -225l-76 -475h430l76 477q21 140 -2 223v4h156v-4q-45 -80 -68 -225l-166 -1043q-21 -142 4 -223v-4h-155v4q24 43 37.5 90.5t27.5 134.5l84 529h-430l-84 -531q-21 -142 4 -223v-4
h-156z" />
    <glyph glyph-name="I" unicode="I" horiz-adv-x="344" 
d="M20 0v4q25 44 38.5 91.5t27.5 133.5l166 1043q21 140 -2 223v4h156v-4q-45 -80 -68 -225l-166 -1043q-21 -142 4 -223v-4h-156z" />
    <glyph glyph-name="J" unicode="J" horiz-adv-x="456" 
d="M463 1270l-170 -1061q-19 -115 -69 -177.5t-124 -62.5q-60 0 -110 41l16 217l12 2q24 -114 46.5 -168.5t54.5 -54.5q54 0 78 152l180 1114q22 134 -2 223v4h155v-4q-44 -78 -67 -225z" />
    <glyph glyph-name="K" unicode="K" horiz-adv-x="727" 
d="M670 0h-131l-260 764l321 483q32 48 48.5 76.5t29 61t10.5 58.5t-16 52v4h188v-4q-24 -15 -46 -34t-36 -33t-35 -42t-29 -39.5t-32 -48.5t-31 -47l-293 -440l220 -643q3 -9 10.5 -30t10 -27.5t8.5 -22t9 -21.5t9.5 -17t12.5 -17l14 -14t18 -15v-4zM20 0v4
q25 44 38.5 91.5t27.5 133.5l166 1043q21 140 -2 223v4h156v-4q-45 -80 -68 -225l-166 -1043q-21 -142 4 -223v-4h-156z" />
    <glyph glyph-name="L" unicode="L" horiz-adv-x="684" 
d="M252 1272q21 140 -2 223v4h156v-4q-45 -80 -68 -225l-199 -1239l199 6q86 3 145 58.5t138 191.5l12 -4l-98 -283h-515v4q25 44 38.5 91.5t27.5 133.5z" />
    <glyph glyph-name="M" unicode="M" horiz-adv-x="1044" 
d="M721 0v4q24 43 37.5 90.5t27.5 134.5l172 1090l-518 -1276h-28l-113 1276l-154 -975q-21 -123 -21 -186t28 -154v-4h-156v4q50 93 70 158.5t38 181.5l138 846q20 105 17 168.5t-40 136.5v4h150l110 -1261l512 1261h146v-4q-16 -19 -28.5 -37t-21.5 -31t-17 -35t-12 -32.5
t-10 -40.5t-8 -42t-8.5 -54t-9.5 -60l-150 -936q-12 -83 -10.5 -130t15.5 -93v-4h-156z" />
    <glyph glyph-name="N" unicode="N" horiz-adv-x="876" 
d="M645 -4l-346 1304l-156 -964q-19 -104 -18 -172t27 -160v-4h-156v4q49 91 67 151.5t39 180.5l136 833l-2 -8q22 119 19.5 188t-40.5 146v4h121l332 -1243l145 907q19 104 17.5 172t-27.5 160v4h155v-4q-49 -91 -67 -152.5t-37 -179.5l-186 -1163z" />
    <glyph glyph-name="O" unicode="O" horiz-adv-x="886" 
d="M72 514q0 189 42.5 373.5t113.5 326t170 229t204 87.5q90 0 155.5 -74.5t97.5 -196.5t32 -274q0 -188 -43 -373t-114 -326.5t-170 -229t-204 -87.5q-90 0 -155.5 74.5t-97 196.5t-31.5 274zM164 449q0 -93 9.5 -169.5t31 -140t60 -98.5t91.5 -35q78 0 149.5 66.5t123 176
t90 246t57.5 280.5t19 276q0 93 -10 169.5t-31 139.5t-60 98t-92 35q-97 0 -182 -101.5t-139.5 -258t-85.5 -337t-31 -347.5z" />
    <glyph glyph-name="P" unicode="P" horiz-adv-x="702" 
d="M176 4v-4h-156v4q25 44 38.5 91.5t27.5 133.5l166 1043q21 140 -2 223v4h244q76 0 130.5 -26.5t84 -74t42.5 -102.5t13 -122q0 -102 -27 -198.5t-76.5 -175t-127.5 -126t-173 -47.5h-124l-64 -400q-21 -142 4 -223zM485 1462q-58 0 -116 -4l-127 -794h133q61 0 111 25.5
t81.5 70.5t54.5 98t34.5 116t16.5 116.5t5 107.5q0 130 -45 197t-148 67z" />
    <glyph glyph-name="Q" unicode="Q" horiz-adv-x="894" 
d="M72 514q0 189 42.5 373.5t113.5 326t170 229t204 87.5q90 0 155.5 -74.5t97.5 -196.5t32 -274q0 -233 -62 -453t-170 -371t-235 -184q88 -174 270 -174q58 0 131 25l-30 -111q-58 -14 -95 -14q-104 0 -182 69t-117 201q-24 -4 -41 -4q-90 0 -155.5 74.5t-97 196.5
t-31.5 274zM164 449q0 -93 9.5 -169.5t31 -140t60 -98.5t91.5 -35q78 0 149.5 66.5t123 176t90 246t57.5 280.5t19 276q0 93 -10 169.5t-31 139.5t-60 98t-92 35q-97 0 -182 -101.5t-139.5 -258t-85.5 -337t-31 -347.5z" />
    <glyph glyph-name="R" unicode="R" horiz-adv-x="722" 
d="M176 4v-4h-156v4q25 44 38.5 91.5t27.5 133.5l166 1043q21 140 -2 223v4h244q116 0 182.5 -82.5t66.5 -236.5q0 -171 -80.5 -293t-185.5 -156l103 -551q15 -86 32 -120.5t58 -55.5v-4h-148l-133 713h-139l-78 -486q-21 -142 4 -223zM479 1462q-75 0 -112 -2l-113 -710
h127q87 0 150.5 63.5t92.5 162t29 218.5q0 137 -41 202.5t-133 65.5z" />
    <glyph glyph-name="S" unicode="S" horiz-adv-x="641" 
d="M672 1487v-254l-13 -2q-30 149 -79 205.5t-115 56.5q-94 0 -146.5 -83.5t-52.5 -195.5q0 -31 3.5 -60t14.5 -60.5t17 -50t25.5 -53t25 -45t30.5 -49.5t28 -44q37 -59 58 -97.5t47 -98.5t38 -123.5t12 -133.5q0 -183 -85.5 -306.5t-239.5 -123.5q-130 0 -234 80v275l12 2
q21 -93 48.5 -158t60.5 -99t66.5 -48.5t72.5 -14.5q50 0 90.5 23.5t66 60.5t42.5 85.5t24 96t7 95.5q0 99 -33.5 181.5t-116.5 219.5q-75 123 -110 209.5t-35 191.5q0 163 83 262t210 99q45 0 95.5 -12t82.5 -31z" />
    <glyph glyph-name="T" unicode="T" horiz-adv-x="798" 
d="M307 229l197 1239l-127 -4q-46 -1 -75 -19t-66 -76.5t-93 -180.5l-12 6l86 305h670l8 -309l-12 -2q-22 116 -44 176.5t-42.5 78.5t-53.5 19l-153 6l-197 -1241q-21 -142 4 -223v-4h-155v4q24 43 37.5 90.5t27.5 134.5z" />
    <glyph glyph-name="U" unicode="U" horiz-adv-x="833" 
d="M358 -31q-60 0 -112.5 20.5t-93.5 61.5t-58 112t-2 163l152 946q21 140 -2 223v4h155v-4q-25 -45 -39.5 -92.5t-27.5 -132.5l-152 -940q-26 -162 31.5 -241t161.5 -79q59 0 107.5 24.5t79.5 65t50 86.5t27 97l153 931q17 89 15.5 146.5t-27.5 134.5v4h154v-4
q-48 -79 -66.5 -132t-34.5 -149l-153 -931q-10 -59 -33 -112.5t-60.5 -100t-95.5 -74t-129 -27.5z" />
    <glyph glyph-name="V" unicode="V" horiz-adv-x="710" 
d="M166 1499h184v-4q-53 -55 -49 -217l16 -1049l377 1002q29 78 31.5 152.5t-23.5 111.5v4h185v-4q-48 -51 -77.5 -101t-66.5 -151l-475 -1257h-26l-27 1300q-1 77 -12.5 123.5t-36.5 85.5v4z" />
    <glyph glyph-name="W" unicode="W" horiz-adv-x="1040" 
d="M166 1499h166v-4q-47 -82 -47 -268l4 -961l327 951v10q-1 124 -7.5 176.5t-24.5 91.5v4h166v-4q-24 -44 -37 -102t-13 -166l7 -961l331 963q27 79 35 130.5t2.5 77.5t-22.5 58v4h164v-4q-43 -39 -64.5 -81.5t-67.5 -174.5l-434 -1255h-28l-7 1110l-383 -1110h-28l-6 1243
q0 120 -7.5 173.5t-25.5 94.5v4z" />
    <glyph glyph-name="X" unicode="X" horiz-adv-x="708" 
d="M625 0h-191v4q48 69 23 211l-88 498l-197 -447q-79 -178 -33 -262v-4h-170v4q48 44 76.5 89.5t69.5 139.5l241 543l-88 498q-14 78 -20.5 108.5t-19.5 61.5t-33 51v4h186v-4q-51 -73 -27 -211l78 -440l184 389q82 171 33 262v4h170v-4q-32 -30 -56 -64t-36 -58t-51 -105
l-232 -490l99 -551q18 -98 35 -145.5t47 -77.5v-4z" />
    <glyph glyph-name="Y" unicode="Y" horiz-adv-x="641" 
d="M174 0v4q25 44 38.5 91.5t27.5 133.5l75 469l-82 578q-13 94 -26.5 141t-40.5 78v4h182v-4q-47 -67 -29 -207l72 -522l219 487q66 148 15 242v4h172v-4q-41 -49 -69.5 -94.5t-63.5 -120.5l-265 -584l-73 -469q-21 -142 4 -223v-4h-156z" />
    <glyph glyph-name="Z" unicode="Z" horiz-adv-x="716" 
d="M-31 0v16l740 1452l-236 -4q-54 -1 -87 -19t-70 -69.5t-101 -169.5l-12 4l86 289h520v-16l-741 -1452l239 6q52 2 85 12t68.5 44t68.5 89.5t83 157.5l13 -6l-99 -334h-557z" />
    <glyph glyph-name="a" unicode="a" horiz-adv-x="636" 
d="M508 6l-156 -14l68 303q-136 -326 -275 -326q-125 0 -125 242q0 138 42.5 284t107.5 256.5t144 181.5t149 71q34 0 69.5 -15.5t57.5 -40.5l59 56h6l-172 -783q-24 -92 -21.5 -143.5t46.5 -67.5v-4zM113 231q0 -188 69 -188q29 0 60.5 28t58.5 68t57.5 102t51.5 113
t47 117l80 358l-2 -2q-2 42 -33 85.5t-74 43.5q-50 0 -107 -69t-102.5 -173t-75.5 -235.5t-30 -247.5z" />
    <glyph glyph-name="b" unicode="b" horiz-adv-x="669" 
d="M377 1595l-162 -921q125 330 293 330q74 0 107.5 -64t33.5 -199q0 -188 -55.5 -365.5t-153.5 -292t-211 -114.5q-94 0 -141 84.5t-16 265.5l174 1008q14 84 10.5 126.5t-29.5 80.5v4zM154 301q-51 -295 84 -295q67 0 128 68t102 173t65 231t24 243q0 107 -21.5 158
t-70.5 51q-130 0 -272 -402z" />
    <glyph glyph-name="c" unicode="c" horiz-adv-x="540" 
d="M449 209l8 -4q-48 -114 -110.5 -175t-135.5 -61q-93 0 -142 93t-49 237q0 107 27.5 227t77 228t128.5 179t171 71q61 0 102 -27l4 -170l-12 -2q-46 162 -131 162q-66 0 -131 -84.5t-107.5 -232.5t-42.5 -314q0 -291 146 -291q101 0 197 164z" />
    <glyph glyph-name="d" unicode="d" horiz-adv-x="671" 
d="M399 -8l74 403q-36 -91 -69.5 -160.5t-75 -133t-87.5 -98t-94 -34.5q-127 0 -127 264q0 110 25 223.5t69 210.5t99.5 173.5t122.5 120t133 43.5q56 0 109 -31l65 354q15 84 11.5 126.5t-29.5 80.5v4l147 57l-256 -1402q-7 -35 -8.5 -46.5t-5 -37.5t-1.5 -36t6 -25.5
t14.5 -23.5t25.5 -14v-4zM113 254q0 -211 73 -211q21 0 43.5 12.5t44.5 39t41.5 54t42 71t38.5 76.5t37 84.5t32.5 80t30.5 76.5l55 292q-3 44 -36 85.5t-81 41.5q-82 0 -158 -111t-119.5 -273.5t-43.5 -317.5z" />
    <glyph glyph-name="e" unicode="e" horiz-adv-x="526" 
d="M430 195q-38 -101 -100 -163.5t-133 -62.5q-84 0 -129 87t-45 237q0 175 58 340.5t153.5 268t197.5 102.5q56 0 90.5 -30t34.5 -87q0 -33 -11.5 -67t-41.5 -72t-75 -67t-119 -48t-167 -19q-34 -124 -34 -284q0 -285 131 -285q94 0 182 154zM412 967q-73 0 -145.5 -89.5
t-116.5 -238.5q77 4 137 22.5t95.5 44.5t58.5 58.5t31.5 61.5t8.5 57q0 84 -69 84z" />
    <glyph glyph-name="f" unicode="f" horiz-adv-x="376" 
d="M-31 -338l236 1274h-80l6 37h80l35 188q77 434 272 434q46 0 80 -24l6 -166l-8 -2q-36 76 -65 112.5t-60 36.5q-25 0 -45.5 -27t-44 -107.5t-49.5 -223.5l-41 -221h143l-6 -37h-143l-234 -1274h-82z" />
    <glyph glyph-name="g" unicode="g" horiz-adv-x="589" 
d="M61 164q0 111 115 174q-46 27 -70 89t-24 140q0 106 41 208t107 165.5t135 63.5q48 0 86 -33l198 49h2l-20 -113h-6l-158 45q57 -66 57 -196q0 -106 -40.5 -208t-106.5 -165.5t-135 -63.5q-23 0 -49 11q-72 -54 -72 -123q0 -45 35.5 -78.5t119.5 -58.5q118 -34 171 -77.5
t53 -111.5q0 -52 -28.5 -111.5t-77 -111t-122.5 -85.5t-155 -34q-98 0 -158.5 50t-60.5 139q0 98 71 183.5t174 123.5q-82 47 -82 129zM164 535q0 -95 19.5 -139t64.5 -44q87 0 140.5 124.5t53.5 311.5q0 95 -19.5 139t-64.5 44q-87 0 -140.5 -124.5t-53.5 -311.5zM-37 -242
q0 -74 44 -123t140 -49q118 0 205.5 73.5t87.5 180.5q0 23 -6 40.5t-25 37.5t-59 39t-102 37q-49 16 -82 29q-98 -40 -150.5 -111.5t-52.5 -153.5z" />
    <glyph glyph-name="h" unicode="h" horiz-adv-x="679" 
d="M-8 0v4q9 15 17 30.5t14.5 36t10.5 34t10 41.5t8.5 41.5t8.5 50t9 51.5l180 1038q15 85 11 127t-30 80v4l148 57l-168 -970q73 165 161 272t179 107q60 0 83 -51.5t3 -153.5l-115 -606q-21 -90 -13.5 -128.5t62.5 -52.5v-4l-170 -16l156 813q24 125 -49 125
q-124 0 -315 -414l-52 -301q-22 -137 -6 -211v-4h-143z" />
    <glyph glyph-name="i" unicode="i" horiz-adv-x="280" 
d="M266 1229q-28 0 -46.5 18.5t-18.5 46.5q0 27 19 46.5t46 19.5t46.5 -19.5t19.5 -46.5q0 -28 -19 -46.5t-47 -18.5zM-8 0v4q9 18 17 35.5t15.5 42t11.5 39.5t11 49t9.5 47.5t10.5 58t11 58.5l69 411q20 122 -24 207v4l151 58l-131 -762q-28 -161 -12 -248v-4h-139z" />
    <glyph glyph-name="j" unicode="j" horiz-adv-x="282" 
d="M268 1229q-28 0 -46.5 18.5t-18.5 46.5q0 27 19 46.5t46 19.5t46.5 -19.5t19.5 -46.5q0 -28 -19 -46.5t-47 -18.5zM-115 -432q41 41 63 93t36 132l166 952q21 118 -25 207v4l151 58l-202 -1168q-39 -225 -185 -286z" />
    <glyph glyph-name="k" unicode="k" horiz-adv-x="595" 
d="M-8 0v4q9 15 17 30.5t14.5 36t10.5 34t10 41.5t8.5 41.5t8.5 50t9 51.5l180 1038q15 85 11 127t-30 80v4l152 57l-244 -1380q-22 -137 -6 -211v-4h-141zM518 0h-133l-170 508l234 323q67 92 26 138v4h172v-4q-54 -20 -80 -45.5t-98 -124.5l-178 -246l133 -395
q26 -76 43.5 -106t50.5 -48v-4z" />
    <glyph glyph-name="l" unicode="l" horiz-adv-x="288" 
d="M133 0h-141v4q9 15 17 30.5t14.5 36t10.5 34t10 41.5t8.5 41.5t8.5 50t9 51.5l180 1038q15 85 11 127t-30 80v4l152 57l-244 -1380q-22 -137 -6 -211v-4z" />
    <glyph glyph-name="m" unicode="m" horiz-adv-x="983" 
d="M-8 0v4q9 15 17 30.5t14.5 36t10.5 34t10 41.5t8.5 41.5t8.5 50t9 51.5l80 456q21 118 -25 207v4l160 58l-66 -346q136 336 289 336q114 0 80 -205l-25 -142q59 153 134 250t159 97q57 0 80.5 -52t3.5 -153l-113 -606q-21 -90 -13 -128.5t63 -52.5v-4l-170 -18l153 815
q24 125 -45 125q-63 0 -128 -101.5t-148 -310.5l-54 -303q-23 -135 -6 -211v-4h-141v4q11 18 20 39t15 38t12.5 47t9.5 46t10.5 57t10.5 58l94 516q24 125 -43 125q-63 0 -128.5 -102t-148.5 -310l-51 -303q-22 -137 -6 -211v-4h-141z" />
    <glyph glyph-name="n" unicode="n" horiz-adv-x="677" 
d="M-8 0v4q9 15 17 30.5t14.5 36t10.5 34t10 41.5t8.5 41.5t8.5 50t9 51.5l80 456q21 118 -25 207v4l162 58l-74 -385q34 77 71 141t80 118.5t90.5 85t94.5 30.5q60 0 83 -51.5t3 -153.5l-113 -606q-21 -90 -13.5 -128.5t62.5 -52.5v-4l-170 -16l154 813q24 125 -49 125
q-65 0 -141.5 -104.5t-171.5 -309.5l-52 -301q-22 -137 -6 -211v-4h-143z" />
    <glyph glyph-name="o" unicode="o" horiz-adv-x="604" 
d="M16 301q0 169 52 332t142 267t189 104q35 0 67 -17.5t60 -54.5t45 -104t17 -156q0 -169 -52 -332t-142 -267t-189 -104q-35 0 -67 17.5t-60 54.5t-45 104t-17 156zM504 717q0 250 -107 250q-72 0 -141 -102t-112.5 -268t-43.5 -341q0 -250 107 -250q72 0 141 102
t112.5 268t43.5 341z" />
    <glyph glyph-name="p" unicode="p" horiz-adv-x="669" 
d="M139 698q26 148 -16 244v4l153 68l-61 -338q129 328 293 328q74 0 107.5 -64t33.5 -199q0 -187 -55 -365.5t-149.5 -292.5t-200.5 -114q-90 0 -133 84l-39 -225q-13 -76 -17.5 -104.5t-10 -70t-4.5 -64.5t5 -46v-4h-135v4q11 18 20 39t15 38t12.5 47t9.5 46t10.5 57
t10.5 58zM154 301q-28 -155 -2 -225t90 -70q65 0 125.5 68t101 173t64.5 231t24 243q0 107 -21.5 155t-70.5 48q-132 0 -272 -396l-39 -229v2z" />
    <glyph glyph-name="q" unicode="q" horiz-adv-x="667" 
d="M455 -125q-26 -144 -32.5 -205.5t1.5 -126.5v-4h-141v4q28 53 44.5 117.5t38.5 184.5q3 18 5 28l90 489q-34 -85 -67 -150t-73 -123t-84 -89t-90 -31q-127 0 -127 264q0 110 25 223.5t69 210.5t99.5 173.5t122.5 120t133 43.5q81 0 135 -54l51 47h4zM113 254
q0 -108 18 -151.5t55 -43.5q39 0 82 42t84 117.5t71 142.5t64 153l52 277q12 78 -19 121.5t-86 43.5q-82 0 -158 -111t-119.5 -273.5t-43.5 -317.5z" />
    <glyph glyph-name="r" unicode="r" horiz-adv-x="442" 
d="M-2 0v4q9 15 17 30.5t14.5 36t10.5 34t10 41.5t8.5 41.5t8.5 50t9 51.5l80 456q21 118 -25 207v4l152 58l-93 -471h3q40 114 73 192t71.5 142.5t79.5 95.5t87 31l-51 -154h-2q-10 10 -29 10q-57 0 -101.5 -89t-146.5 -372l-33 -184q-22 -137 -6 -211v-4h-137z" />
    <glyph glyph-name="s" unicode="s" horiz-adv-x="471" 
d="M430 975v-166l-8 -2q-33 92 -64 126t-75 34q-51 0 -79 -33t-28 -94q0 -43 23 -98t56 -111.5t65.5 -116.5t55.5 -131.5t23 -138.5q0 -127 -74 -201t-167 -74q-42 0 -88 13.5t-66 33.5l-4 197l8 2q57 -209 174 -209q58 0 96.5 51t38.5 160q0 61 -21 125t-51.5 119t-61 108
t-51.5 110.5t-21 108.5q0 104 62.5 160t148.5 56q33 0 64.5 -9.5t43.5 -19.5z" />
    <glyph glyph-name="t" unicode="t" horiz-adv-x="401" 
d="M311 178q-90 -209 -184 -209q-41 0 -59.5 40.5t-4.5 125.5l138 801h-80v6l188 182h6l-26 -151h170l-8 -37h-168l-138 -809q-13 -82 27 -82q56 0 125 141z" />
    <glyph glyph-name="u" unicode="u" horiz-adv-x="651" 
d="M119 973h160l-160 -744q-38 -182 49 -182q76 0 159.5 139t164.5 377l51 242q27 131 -43 164v4h162l-164 -752q-24 -92 -22 -143.5t46 -67.5v-4l-155 -14l90 399q-70 -188 -152.5 -305t-169.5 -117q-65 0 -95.5 64.5t-4.5 187.5l127 586q27 129 -43 162v4z" />
    <glyph glyph-name="v" unicode="v" horiz-adv-x="524" 
d="M596 969l-444 -979h-23l6 733q3 110 -6.5 155t-44.5 91v4h135l-10 -772l199 442q41 91 57.5 148t10.5 101t-40 77v4h160v-4z" />
    <glyph glyph-name="w" unicode="w" horiz-adv-x="774" 
d="M846 969l-422 -979h-14l14 637l-274 -637h-15l6 733q3 112 -5.5 156.5t-43.5 89.5v4h131l-10 -752l213 496v6q3 110 -6 155t-43 91v4h131l-21 -752l181 422q41 96 57 149.5t11 99t-38 77.5v4h148v-4z" />
    <glyph glyph-name="x" unicode="x" horiz-adv-x="587" 
d="M92 188l162 314l-64 293q-16 78 -29 113.5t-38 60.5v4h164v-4q-17 -11 -24.5 -46.5t3.5 -111.5l56 -250l116 209q41 73 46.5 127t-19.5 72v4h164v-4q-12 -9 -22 -17.5t-19.5 -18.5t-15.5 -16t-15 -18.5t-13 -17.5t-13.5 -21t-13 -21t-15 -25.5t-15.5 -27.5l-155 -274
l71 -334q15 -75 29.5 -111.5t40.5 -62.5v-4h-164v4q16 14 23 47.5t-4 110.5l-62 287l-125 -244q-78 -154 -28 -201v-4h-164v4q51 41 80 79.5t63 104.5z" />
    <glyph glyph-name="y" unicode="y" horiz-adv-x="524" 
d="M-188 -461l26 139q41 1 68 11.5t61 46.5t71 104.5t91 186.5l6 696q2 112 -7 156.5t-44 89.5v4h135l-10 -770l199 440q41 91 57.5 148t10.5 101t-40 77v4h160v-4l-440 -969q-66 -145 -114.5 -235t-88.5 -137.5t-70 -64.5t-71 -24z" />
    <glyph glyph-name="z" unicode="z" horiz-adv-x="530" 
d="M471 190l-84 -190h-428v10l504 936l-133 -6q-59 -3 -99.5 -32t-107.5 -117l-8 4l65 178h381v-10l-504 -936l187 8q66 3 104 33.5t115 128.5z" />
    <glyph glyph-name="quoteleft" unicode="&#x2018;" horiz-adv-x="225" 
d="M369 1546l6 -8q-113 -121 -113 -217q0 -46 37 -86v-4l-82 -68q-35 44 -35 101q0 71 55.5 145t131.5 137z" />
    <glyph glyph-name="quoteright" unicode="&#x2019;" horiz-adv-x="225" 
d="M152 1163l-7 8q113 121 113 218q0 46 -37 86v4l82 67q35 -44 35 -100q0 -71 -55.5 -146t-130.5 -137z" />
    <glyph glyph-name="quotedblleft" unicode="&#x201c;" horiz-adv-x="419" 
d="M563 1546l6 -8q-112 -120 -112 -217q0 -46 37 -86v-4l-82 -68q-35 44 -35 101q0 71 55 145.5t131 136.5zM369 1546l6 -8q-113 -121 -113 -217q0 -46 37 -86v-4l-82 -68q-35 44 -35 101q0 71 55.5 145t131.5 137z" />
    <glyph glyph-name="quotedblright" unicode="&#x201d;" horiz-adv-x="419" 
d="M152 1163l-7 8q113 121 113 218q0 46 -37 86v4l82 67q35 -44 35 -100q0 -71 -55.5 -146t-130.5 -137zM346 1163l-6 8q113 121 113 218q0 46 -37 86v4l82 67q34 -42 34 -100q0 -71 -55.5 -146t-130.5 -137z" />
    </font>
</defs>
</svg>
