<?xml version="1.0" standalone="no"?>
<!DOCTYPE svg PUBLIC "-//W3C//DTD SVG 1.1//EN" "http://www.w3.org/Graphics/SVG/1.1/DTD/svg11.dtd" >
<svg xmlns="http://www.w3.org/2000/svg" xmlns:xlink="http://www.w3.org/1999/xlink" version="1.1">
<metadata>
Created by FontForge 20201107 at Fri Aug  1 12:35:59 2025
 By 
Copyright (c) 2018 Commercial Type, Inc.. All rights reserved.
</metadata>
<defs>
<font id="CanelaCondensed-RegularItalic" horiz-adv-x="704" >
  <font-face 
    font-family="Canela Cond Regular Trial"
    font-weight="400"
    font-style="italic"
    font-stretch="condensed"
    units-per-em="2048"
    panose-1="0 0 0 0 0 0 0 0 0 0"
    ascent="1587"
    descent="-461"
    x-height="981"
    cap-height="1499"
    bbox="-188 -461 1337 1595"
    underline-thickness="36"
    underline-position="-161"
    slope="-10"
    unicode-range="U+0020-201D"
  />
<missing-glyph horiz-adv-x="231" 
 />
    <glyph glyph-name=".notdef" horiz-adv-x="231" 
 />
    <glyph glyph-name=".null" horiz-adv-x="0" 
 />
    <glyph glyph-name="nonmarkingreturn" horiz-adv-x="682" 
 />
    <glyph glyph-name="space" unicode=" " horiz-adv-x="212" 
 />
    <glyph glyph-name="exclam" unicode="!" horiz-adv-x="333" 
d="M408 1499v-4l-240 -1065h-25l113 1065l2 4h150zM109 -10q-43 0 -76 33t-33 77t33 76.5t76 32.5q45 0 77.5 -32.5t32.5 -76.5q0 -45 -32.5 -77.5t-77.5 -32.5z" />
    <glyph glyph-name="quotedbl" unicode="&#x22;" horiz-adv-x="466" 
d="M217 1038h-14l-2 461h182zM444 1038h-14l-2 461h182z" />
    <glyph glyph-name="quotesingle" unicode="'" horiz-adv-x="241" 
d="M217 1038h-14l-2 461h182z" />
    <glyph glyph-name="comma" unicode="," horiz-adv-x="362" 
d="M-47 -272l-8 10q59 61 99 136t40 130q0 32 -16.5 72t-34.5 67v4l155 105q20 -20 35 -55t15 -76q0 -73 -48.5 -153.5t-109 -138t-127.5 -101.5z" />
    <glyph glyph-name="hyphen" unicode="-" horiz-adv-x="409" 
d="M59 520l23 119h307l-20 -119h-310z" />
    <glyph glyph-name="period" unicode="." horiz-adv-x="362" 
d="M137 -10q-44 0 -76 33t-32 77t32 76.5t76 32.5t77.5 -32.5t33.5 -76.5t-33.5 -77t-77.5 -33z" />
    <glyph glyph-name="zero" unicode="0" horiz-adv-x="849" 
d="M872 999q0 -173 -41.5 -356t-110 -332.5t-167.5 -245.5t-205 -96q-130 0 -209.5 146t-79.5 385q0 174 42 357t111.5 332.5t169 245t206.5 95.5q130 0 207 -145.5t77 -385.5zM719 1159q0 334 -133 334q-88 0 -162.5 -125t-118.5 -310t-68 -375t-24 -341q0 -336 133 -336
q88 0 162.5 125.5t118.5 310.5t68 375t24 342z" />
    <glyph glyph-name="one" unicode="1" horiz-adv-x="425" 
d="M258 270q-12 -94 -8.5 -142.5t26.5 -123.5v-4h-256v4q42 71 59.5 123t31.5 143l149 977h-102v8q173 77 282 271h13z" />
    <glyph glyph-name="two" unicode="2" horiz-adv-x="714" 
d="M526 0h-567l4 31q155 194 268.5 364.5t176 291t99 231t46.5 179t10 140.5q0 135 -31.5 195.5t-80.5 60.5q-54 0 -111 -69.5t-135 -206.5l-12 4l69 282q106 27 184 27q134 0 202.5 -85t68.5 -237q0 -200 -144 -447t-475 -609h287q29 0 55.5 10t43.5 21t41 39t35 43t37 54
q9 13 13 19l8 -4z" />
    <glyph glyph-name="three" unicode="3" horiz-adv-x="714" 
d="M260 6q59 0 108 55.5t78.5 142t45.5 183.5t16 188q0 306 -170 306q-41 0 -72.5 -17.5t-66.5 -52.5l-15 14l439 525h-383l59 149h477l-4 -20l-483 -582q43 18 96 18q116 0 194 -91.5t78 -264.5q0 -76 -14.5 -154.5t-47 -157.5t-80 -140t-120 -99.5t-159.5 -38.5
q-56 0 -113 13.5t-78 31.5l-4 322l12 2q19 -68 32.5 -111t33 -89.5t39 -72.5t45.5 -42.5t57 -16.5z" />
    <glyph glyph-name="four" unicode="4" 
d="M10 389l2 25l547 1085h172l-686 -1077h350l82 504h141l-79 -504h98l-8 -33h-94l-13 -74q-17 -111 -18 -171t14 -140v-4h-233v4q37 78 55 138.5t37 172.5l12 74h-379z" />
    <glyph glyph-name="five" unicode="5" 
d="M211 -31q-61 0 -111.5 19.5t-74.5 46.5l-5 297l13 2q46 -168 91 -248t118 -80q58 0 105 56.5t75 147t42.5 195t14.5 209.5q0 289 -160 289q-76 0 -167 -78l-9 6l193 668h450l-45 -149h-417l-134 -465q69 55 170 55q122 0 197.5 -90.5t75.5 -278.5q0 -112 -27 -217.5
t-77.5 -192.5t-133 -139.5t-184.5 -52.5z" />
    <glyph glyph-name="six" unicode="6" horiz-adv-x="741" 
d="M711 1516q-144 -106 -246 -276.5t-164 -375.5q80 131 195 131q97 0 154 -90.5t57 -257.5q0 -163 -53 -319t-147 -257.5t-202 -101.5q-117 0 -181.5 115t-64.5 307q0 83 12.5 173.5t39.5 198t77 213.5t118.5 207t171 192t227.5 155zM211 279q0 -273 102 -273
q68 0 124.5 103.5t86 250.5t29.5 291q0 130 -30.5 186t-96.5 56q-85 0 -143 -92q-72 -268 -72 -522z" />
    <glyph glyph-name="seven" unicode="7" horiz-adv-x="612" 
d="M193 0h-152q204 652 621 1350h-474l43 149h521l-2 -20q-385 -775 -557 -1479z" />
    <glyph glyph-name="eight" unicode="8" horiz-adv-x="688" 
d="M709 1243q0 -77 -24.5 -154t-82.5 -150t-141 -112l6 -8q44 -64 64.5 -96t51 -90.5t43.5 -116t13 -121.5q0 -111 -41.5 -208t-119.5 -157.5t-173 -60.5q-121 0 -201.5 89t-80.5 245q0 62 14.5 122.5t46 122.5t90.5 116t139 90q-61 90 -95 177t-34 197q0 180 89 291
t208 111q100 0 164 -81t64 -206zM295 1225q0 -57 11.5 -108t37.5 -101.5t46.5 -83.5t60.5 -88q79 75 119 189t40 231q0 229 -139 229q-79 0 -127.5 -75.5t-48.5 -192.5zM129 295q0 -138 48 -213.5t136 -75.5q91 0 151 78.5t60 212.5q0 39 -4.5 74t-17.5 70t-22.5 59t-32 60
t-33 52t-40 57t-38.5 54q-2 3 -6 8t-6 8q-195 -149 -195 -444z" />
    <glyph glyph-name="nine" unicode="9" horiz-adv-x="741" 
d="M78 -16q303 205 444 645q-79 -125 -190 -125q-97 0 -154 90.5t-57 257.5q0 121 31.5 243t84.5 218t128 156.5t155 60.5q118 0 183 -116t65 -310q0 -70 -8 -144.5t-29.5 -166t-54.5 -179.5t-87.5 -181t-123.5 -174.5t-167 -157.5t-214 -132zM272 848q0 -129 31.5 -185.5
t97.5 -56.5q87 0 142 90q71 256 71 518q0 138 -22.5 208.5t-75.5 70.5q-67 0 -124.5 -103.5t-88.5 -251t-31 -290.5z" />
    <glyph glyph-name="question" unicode="?" horiz-adv-x="610" 
d="M211 432h-25q13 102 39.5 187.5t57.5 143.5t65.5 109.5t66 96t57 91t41 107t15.5 131.5q0 89 -23.5 142t-68.5 53q-43 0 -91.5 -52.5t-125.5 -164.5l-8 2l63 229q71 23 162 23q117 0 181.5 -66t64.5 -198q0 -74 -21 -137t-56 -111t-78.5 -93t-91 -94t-90 -102.5
t-79 -130.5t-55.5 -166zM166 -10q-44 0 -77.5 33t-33.5 77t33.5 76.5t77.5 32.5t77 -32.5t33 -76.5t-33 -77t-77 -33z" />
    <glyph glyph-name="A" unicode="A" horiz-adv-x="731" 
d="M100 0h-192v4q50 58 82.5 126.5t72.5 178.5l449 1204h43l72 -1226q10 -190 53 -283v-4h-244v4q53 87 41 293l-14 250h-268l-60 -158q-33 -89 -45.5 -170t-8.5 -132t19 -83v-4zM207 584h254l-35 585z" />
    <glyph glyph-name="B" unicode="B" horiz-adv-x="800" 
d="M-18 0v4q45 93 66.5 162t41.5 186l127 795q21 127 24 191.5t-10 156.5v4q74 0 185.5 3t144.5 3q143 0 212 -78.5t69 -207.5q0 -98 -36.5 -188t-110.5 -157.5t-173 -89.5q246 -42 246 -315q0 -92 -28.5 -174t-84 -149t-148.5 -106.5t-212 -39.5h-313zM512 1468
q-51 0 -82 -4l-111 -663h117q61 0 109.5 40.5t77 105.5t43 137t14.5 143q0 241 -168 241zM436 764h-123l-118 -717q54 -10 100 -10q148 0 225.5 122.5t77.5 332.5q0 138 -37.5 205t-124.5 67z" />
    <glyph glyph-name="C" unicode="C" horiz-adv-x="839" 
d="M780 397l-67 -315q-31 -36 -120.5 -74.5t-176.5 -38.5q-172 0 -261 155t-89 413q0 192 50 374.5t132.5 318t195 218t232.5 82.5q112 0 221 -72l-27 -266l-14 -4q-66 176 -110 240.5t-107 64.5q-80 0 -155 -92.5t-129 -239.5t-86.5 -335t-32.5 -375q0 -221 42.5 -333
t120.5 -112q29 0 59 14t62.5 45.5t60 62.5t63.5 84t60.5 90.5t63.5 100.5z" />
    <glyph glyph-name="D" unicode="D" horiz-adv-x="907" 
d="M-8 0v4q36 62 52.5 120t33.5 165l155 946q12 88 11.5 140t-15.5 120v4q61 -1 157 4t151 0q205 -10 302 -144.5t97 -400.5q0 -261 -81 -480.5t-225 -348.5t-319 -129h-319zM307 33q108 5 197 86.5t145 214t86.5 298t30.5 343.5q0 244 -59.5 371t-192.5 124l-86 -2
l-229 -1439z" />
    <glyph glyph-name="E" unicode="E" horiz-adv-x="780" 
d="M-10 0v4q36 84 55 146t33 149l149 901q9 53 9.5 106.5t-3 89.5t-12.5 99v4h559l19 -295l-15 -4q-51 116 -95.5 184.5t-86.5 71.5l-176 10l-107 -671h103q15 0 29 5t30.5 18t27 21.5t28.5 31t24.5 30.5t27 36t23.5 32h15l-66 -381h-14q-13 31 -21 50t-21.5 44.5t-25.5 40
t-28.5 25t-34.5 10.5h-103l-116 -725l204 10q116 7 322 340l14 -8l-102 -375h-645z" />
    <glyph glyph-name="F" unicode="F" horiz-adv-x="753" 
d="M236 4v-4h-248v4q41 81 59.5 144.5t36.5 175.5l137 852q18 122 17.5 175.5t-13.5 143.5v4h592l10 -291l-16 -4q-107 247 -176 252l-211 12l-109 -673h117q11 0 22.5 3t23.5 10.5t22 14.5t22.5 20.5t21 22t21.5 25.5l19.5 25.5t20 27.5t18.5 25h14l-66 -381h-14
q-13 31 -21 50t-21.5 44.5t-25.5 40t-28.5 25t-34.5 10.5h-117l-71 -434q-17 -111 -17 -175.5t15 -144.5z" />
    <glyph glyph-name="G" unicode="G" horiz-adv-x="897" 
d="M895 674q-42 -74 -64 -153.5t-40 -207.5l-19 -147q-3 -3 -22 -22.5t-27.5 -27.5t-30 -27.5t-36.5 -30t-38.5 -27t-45 -25.5t-47.5 -18.5t-54 -14t-57 -4.5q-117 0 -197 78.5t-115.5 205.5t-35.5 294q0 195 50 376.5t133 314.5t197 212.5t236 79.5q118 0 233 -72l-24 -266
l-14 -4q-68 182 -109 243.5t-109 61.5q-89 0 -170.5 -89.5t-138.5 -234.5t-91 -333.5t-34 -382.5q0 -447 191 -447q75 0 130 61t83.5 163.5t32.5 234.5q2 91 -15 209v4h248v-4z" />
    <glyph glyph-name="H" unicode="H" horiz-adv-x="923" 
d="M-8 0v4q41 86 60 149.5t34 165.5l133 861q17 105 17.5 169t-13.5 146v4h248v-4q-43 -88 -62 -148.5t-36 -166.5l-60 -389h408l59 389q17 105 17 169.5t-15 145.5v4h248v-4q-42 -84 -60.5 -145t-35.5 -170l-133 -861q-15 -101 -15.5 -166.5t11.5 -148.5v-4h-246v4
q42 86 61.5 150t34.5 165l68 435h-408l-67 -435q-15 -100 -15.5 -165t11.5 -150v-4h-244z" />
    <glyph glyph-name="I" unicode="I" horiz-adv-x="364" 
d="M-12 0v4q41 81 59.5 143.5t36.5 171.5l137 861q17 106 17.5 171t-13.5 144l2 4h248l-2 -4q-42 -78 -60 -138.5t-36 -176.5l-139 -861q-17 -113 -16.5 -171t14.5 -144v-4h-248z" />
    <glyph glyph-name="J" unicode="J" horiz-adv-x="516" 
d="M532 1147l-133 -834q-26 -157 -95.5 -250.5t-178.5 -93.5q-66 0 -135 27l14 283l12 4q41 -142 74 -209.5t64 -67.5q25 0 40.5 49t38.5 187l146 905q19 115 19 191.5t-13 156.5v4h246v-4q-40 -85 -59 -153t-40 -195z" />
    <glyph glyph-name="K" unicode="K" horiz-adv-x="782" 
d="M725 0h-201l-209 741l291 449q74 109 95.5 178t3.5 127v4h219v-4q-82 -56 -143 -126t-130 -175l-207 -317l179 -623q42 -148 62 -189q17 -35 40 -61v-4zM-12 0v4q41 81 59.5 143.5t36.5 171.5l137 861q17 106 17.5 171t-13.5 144l2 4h248l-2 -4q-42 -78 -60 -138.5
t-36 -176.5l-139 -861q-17 -113 -16.5 -171t14.5 -144v-4h-248z" />
    <glyph glyph-name="L" unicode="L" horiz-adv-x="710" 
d="M211 1110q21 128 22 211t-12 174v4h250l2 -4q-43 -99 -64.5 -176t-43.5 -209l-170 -1077l131 8q39 2 82 29t85.5 74t76 91t71.5 101l10 -6l-96 -330h-563v4q41 95 61 170.5t43 214.5z" />
    <glyph glyph-name="M" unicode="M" horiz-adv-x="1056" 
d="M664 0v4q41 81 60 143t36 172l147 934l-481 -1210h-33l-100 1208l-143 -895q-19 -114 -15 -187t37 -165v-4h-192v4q60 91 86 162t45 190l137 858q12 106 5.5 160t-32.5 121v4h201l92 -1128l451 1128h196v-4q-47 -65 -70.5 -126t-41.5 -175l-134 -875q-17 -106 -17.5 -171
t13.5 -144v-4h-247z" />
    <glyph glyph-name="N" unicode="N" horiz-adv-x="880" 
d="M662 -4l-371 1266l-141 -906q-17 -127 -12 -190t36 -162v-4h-182v4q54 91 76 158t43 194l131 828q19 113 14.5 178.5t-45.5 132.5v4h166l330 -1132l122 778q17 122 12.5 186.5t-30.5 163.5v4h178v-4q-55 -92 -78.5 -161.5t-42.5 -188.5l-182 -1145z" />
    <glyph glyph-name="O" unicode="O" horiz-adv-x="950" 
d="M66 551q0 151 31.5 298.5t87.5 268.5t127.5 214.5t157 145.5t171.5 52q105 0 183 -74.5t117.5 -203.5t39.5 -296q0 -151 -31.5 -300t-87.5 -271t-127.5 -216.5t-156.5 -147t-170 -52.5q-106 0 -184.5 76t-118 207t-39.5 299zM223 453q0 -208 47 -327.5t144 -119.5
q114 0 209 163.5t145.5 401.5t50.5 480q0 442 -182 442q-87 0 -166 -96.5t-132 -248t-84.5 -335.5t-31.5 -360z" />
    <glyph glyph-name="P" unicode="P" horiz-adv-x="757" 
d="M236 4v-4h-244v4q25 43 42.5 94t25.5 91t24 130l149 916q12 88 11.5 140t-15.5 120v4h297q155 0 228 -87.5t73 -233.5q0 -137 -58.5 -257.5t-164.5 -194t-233 -73.5h-78l-55 -334q-17 -113 -16.5 -171t14.5 -144zM492 1462q-41 0 -66 -4l-127 -768h74q71 0 128 46.5
t91.5 121.5t53 162.5t18.5 175.5q0 266 -172 266z" />
    <glyph glyph-name="Q" unicode="Q" horiz-adv-x="952" 
d="M66 551q0 151 31.5 298.5t87.5 268.5t127.5 214.5t157 145.5t171.5 52q105 0 183 -74.5t117.5 -203.5t39.5 -296q0 -238 -75 -459t-197.5 -362t-257.5 -162q93 -123 260 -123q115 0 221 48l-51 -170q-42 -31 -123 -31q-59 0 -112.5 22t-88 51.5t-65 71.5t-45.5 69.5
t-27 57.5h-12q-106 0 -184.5 76t-118 207t-39.5 299zM223 453q0 -208 47 -327.5t144 -119.5q114 0 209 163.5t145.5 401.5t50.5 480q0 442 -182 442q-87 0 -166 -96.5t-132 -248t-84.5 -335.5t-31.5 -360z" />
    <glyph glyph-name="R" unicode="R" horiz-adv-x="815" 
d="M236 4v-4h-244v4q25 42 42.5 93.5t25.5 91t24 130.5l149 916q12 88 11.5 140t-15.5 120v4h289q157 0 232 -79.5t75 -221.5q0 -135 -64 -248.5t-186 -165.5l74 -505q18 -119 32.5 -172.5t43.5 -102.5v-4h-197l-108 750h-111l-71 -431q-17 -113 -16.5 -171t14.5 -144z
M506 1462q-51 0 -80 -2l-111 -674h93q67 0 119 43t81 111.5t43.5 142t14.5 144.5q0 235 -160 235z" />
    <glyph glyph-name="S" unicode="S" 
d="M707 1485l-19 -266l-14 -5q-57 166 -99.5 222.5t-97.5 56.5q-75 0 -125.5 -62t-50.5 -161q0 -31 4 -60t17 -62.5t20 -54t30.5 -60t31 -52t38 -60t35.5 -55.5q79 -121 122.5 -228t43.5 -237q0 -201 -106 -316.5t-261 -115.5q-71 0 -146 20.5t-110 49.5l15 291l14 4
q58 -165 125.5 -246.5t149.5 -81.5q83 0 135.5 78t52.5 211q0 64 -12.5 123t-39.5 119t-48.5 99t-61.5 103q-47 76 -65.5 107t-50 94.5t-44 119t-12.5 116.5q0 163 96 258.5t242 95.5q88 0 191 -45z" />
    <glyph glyph-name="T" unicode="T" horiz-adv-x="833" 
d="M317 319l185 1145l-92 -6q-19 -1 -46.5 -27t-69 -83t-62.5 -87.5t-68 -101.5l-12 4l86 336h680l-5 -338l-10 -2q-23 66 -39 106t-39.5 90t-46.5 75.5t-45 27.5l-78 6l-182 -1145q-17 -103 -17.5 -169.5t13.5 -145.5v-4h-248v4q40 85 59.5 148.5t36.5 166.5z" />
    <glyph glyph-name="U" unicode="U" horiz-adv-x="819" 
d="M373 -31q-153 0 -237.5 114t-53.5 302l123 760q21 125 23 192t-13 158l2 4h248l-2 -4q-71 -154 -103 -350l-120 -754q-58 -385 155 -385q58 0 106 27.5t80.5 76t54 106t32.5 124.5l131 770q23 132 18 206t-41 179l2 4h205l-2 -4q-65 -99 -92 -173.5t-51 -211.5l-131 -770
q-14 -79 -38.5 -142.5t-63.5 -116.5t-98 -82.5t-134 -29.5z" />
    <glyph glyph-name="V" unicode="V" horiz-adv-x="739" 
d="M158 1499h256v-4q-22 -45 -36 -128.5t-9 -188.5l43 -840l295 817q38 123 36.5 207t-32.5 133v4h200v-4q-47 -58 -79 -126.5t-70 -174.5l-440 -1210h-43l-66 1214q-12 197 -55 297v4z" />
    <glyph glyph-name="W" unicode="W" horiz-adv-x="1157" 
d="M152 1499h256v-4q-21 -48 -35 -136.5t-11 -195.5l23 -815l289 782l-2 33q-5 127 -19.5 198t-38.5 134v4h256v-4q-54 -87 -45 -332l27 -817l256 731q92 255 57 418v4h172v-4q-49 -67 -81 -137.5t-76 -196.5l-420 -1177h-43l-41 1052l-383 -1052h-45l-41 1179
q-4 128 -17.5 198.5t-37.5 133.5v4z" />
    <glyph glyph-name="X" unicode="X" horiz-adv-x="798" 
d="M731 0h-272v4q25 35 32 101.5t-10 162.5l-90 443l-164 -346q-107 -222 -61 -361v-4h-225v4q66 60 115.5 131.5t103.5 181.5l219 455l-90 447q-23 120 -42 177t-54 99v4h274v-4q-23 -36 -30 -102t9 -162l70 -340l127 246q62 118 77.5 204.5t-7.5 153.5v4h227v-4
q-65 -61 -118.5 -133.5t-110.5 -179.5l-185 -346l113 -555q23 -120 41 -177t51 -100v-4z" />
    <glyph glyph-name="Y" unicode="Y" horiz-adv-x="708" 
d="M166 0v4q38 74 55 132.5t35 166.5l61 389l-73 525q-37 200 -86 278v4h272v-4q-26 -32 -35 -106.5t2 -157.5l66 -475l176 389q99 217 49 350v4h197v-4q-57 -65 -93 -126.5t-94 -184.5l-229 -504l-57 -377q-17 -103 -15.5 -161.5t21.5 -137.5v-4h-252z" />
    <glyph glyph-name="Z" unicode="Z" horiz-adv-x="776" 
d="M-20 0v20l747 1444l-170 -6q-38 -1 -73.5 -14.5t-64 -31.5t-66 -56t-64 -69t-74.5 -89l-8 6l86 295h596v-20l-748 -1444l197 6q40 1 79.5 18t73 42.5t71 67.5t67.5 81.5t69 95.5l9 -6l-99 -340h-628z" />
    <glyph glyph-name="a" unicode="a" horiz-adv-x="692" 
d="M592 6l-230 -16l60 272q-53 -130 -123 -211.5t-137 -81.5q-64 0 -103 71.5t-39 203.5q0 179 68 357t185 295.5t245 117.5q86 0 146 -49l43 49h10l-162 -752q-28 -114 -23 -174t60 -78v-4zM162 291q0 -176 80 -176q52 0 107.5 79.5t107.5 241.5l84 385q14 83 0 115.5
t-54 32.5q-81 0 -158 -111t-122 -268.5t-45 -298.5z" />
    <glyph glyph-name="b" unicode="b" horiz-adv-x="692" 
d="M418 1595l-162 -874q48 136 116.5 214.5t145.5 78.5q79 0 116.5 -71.5t37.5 -219.5q0 -201 -57 -374t-156.5 -276.5t-216.5 -103.5q-105 0 -163.5 87.5t-29.5 244.5l156 889q38 198 -19 299v4zM176 244q-21 -114 -0.5 -177t78.5 -63q75 0 139.5 110t99.5 273t35 328
q0 100 -17 143t-56 43q-20 0 -41.5 -12t-50 -42t-60.5 -94.5t-63 -156.5z" />
    <glyph glyph-name="c" unicode="c" horiz-adv-x="561" 
d="M479 258l8 -2q-33 -138 -100.5 -212.5t-155.5 -74.5q-104 0 -157.5 100.5t-53.5 264.5q0 175 55.5 332t151.5 252.5t207 95.5q78 0 137 -37l-6 -193l-14 -4q-45 97 -82.5 148t-73.5 51t-75.5 -38.5t-75.5 -107.5t-60.5 -179t-25.5 -238q-3 -312 145 -312q106 0 176 154z
" />
    <glyph glyph-name="d" unicode="d" horiz-adv-x="718" 
d="M406 -10l65 327q-55 -152 -137 -250t-166 -98q-66 0 -107 69t-41 206q0 103 24 212.5t70 208.5t106 177.5t138 125t160 46.5q28 0 68 -8l39 219q12 70 16.5 111.5t-3 87.5t-32.5 73v4l225 92l-231 -1306q-27 -126 -22 -193t59 -84v-4zM166 274q0 -184 78 -184
q54 0 118.5 88.5t126.5 272.5l80 460q-16 58 -73 58q-82 0 -159.5 -109t-124 -270.5t-46.5 -315.5z" />
    <glyph glyph-name="e" unicode="e" horiz-adv-x="565" 
d="M475 238q-38 -130 -108.5 -199.5t-149.5 -69.5q-94 0 -145.5 95t-51.5 255q0 179 60.5 341t158 258t203.5 96q65 0 105.5 -37.5t40.5 -108.5q0 -109 -97 -178.5t-301 -62.5q-24 -130 -24 -252q0 -147 32.5 -212t98.5 -65q94 0 168 144zM424 979q-64 0 -128 -91.5
t-99 -240.5q68 12 120 36.5t81.5 52t48 61.5t24.5 60.5t6 51.5q0 70 -53 70z" />
    <glyph glyph-name="f" unicode="f" horiz-adv-x="395" 
d="M-31 -338l242 1286h-100l6 33h100l47 250q30 166 111.5 264t181.5 98q44 0 84 -20l4 -234l-12 -4q-22 60 -32.5 85.5t-28 63.5t-32.5 53t-30 15q-26 0 -48.5 -60.5t-47.5 -197.5l-60 -313h121l-6 -33h-121l-239 -1286h-140z" />
    <glyph glyph-name="g" unicode="g" horiz-adv-x="628" 
d="M33 143q0 76 41 126t100 69q-42 38 -65 107t-23 143q0 109 46.5 209.5t116 158.5t136.5 58q54 0 96 -39l228 76l2 -2l-33 -162h-6l-174 69q71 -83 71 -233q0 -108 -46.5 -207.5t-116.5 -157t-138 -57.5q-39 0 -80 25q-53 -33 -53 -86q0 -20 9 -36.5t20.5 -28t37 -24.5
t43.5 -20.5t56 -21.5q32 -11 52 -19t48.5 -22.5t46 -31.5t35 -41t25.5 -57t8 -73q0 -143 -104 -233.5t-262 -90.5q-124 0 -198.5 55.5t-74.5 151.5q0 97 70.5 160t169.5 82q-84 54 -84 153zM215 483q0 -73 11 -111t42 -38q42 0 82.5 66.5t66 179.5t25.5 237q0 162 -57 162
q-64 0 -117 -149t-53 -347zM-2 -223q0 -84 45.5 -134.5t146.5 -50.5q102 0 173 52.5t71 132.5q0 33 -11.5 57t-44.5 43.5t-49 26t-69 24.5q-10 4 -16 6q-67 24 -111 48q-65 -25 -100 -78.5t-35 -126.5z" />
    <glyph glyph-name="h" unicode="h" horiz-adv-x="718" 
d="M-14 0v4q43 98 88 344l155 877q12 69 16 111t-3.5 88t-32.5 73v4l225 92l-182 -968q33 83 66 148t73.5 122t88.5 88t100 31q69 0 97.5 -58.5t6.5 -175.5l-98 -520q-25 -114 -20 -173.5t59 -76.5v-4l-230 -16l154 811q17 92 -45 92q-61 0 -122.5 -85.5t-131.5 -252.5
l-45 -254q-32 -195 -19 -297v-4h-200z" />
    <glyph glyph-name="i" unicode="i" horiz-adv-x="329" 
d="M289 1182q-40 0 -70.5 30.5t-30.5 71.5t30.5 70.5t70.5 29.5q43 0 72.5 -29.5t29.5 -70.5q0 -42 -30 -72t-72 -30zM-14 0v4q31 66 51.5 150t44.5 231l41 240q38 219 -21 293v4l228 88l-111 -633q-27 -161 -35 -234.5t-2 -138.5v-4h-196z" />
    <glyph glyph-name="j" unicode="j" horiz-adv-x="303" 
d="M287 1182q-41 0 -72 30.5t-31 71.5t30.5 70.5t72.5 29.5q41 0 71.5 -29.5t30.5 -70.5t-30.5 -71.5t-71.5 -30.5zM-174 -428q120 72 160 285l133 768q38 219 -21 293v4l228 88l-176 -1014q-35 -193 -124.5 -305t-195.5 -131z" />
    <glyph glyph-name="k" unicode="k" horiz-adv-x="653" 
d="M-14 0v4q43 98 88 344l155 877q12 69 16 111t-3.5 88t-32.5 73v4l225 92l-192 -1085l223 287q48 63 59 101.5t-12 80.5v4h195v-4q-58 -33 -105.5 -79.5t-112.5 -127.5l-127 -166l121 -418q38 -133 92 -182v-4h-190l-143 508l-29 -164q-23 -140 -28.5 -210t1.5 -130v-4
h-200z" />
    <glyph glyph-name="l" unicode="l" horiz-adv-x="329" 
d="M186 0h-200v4q43 98 88 344l155 877q12 69 16 111t-3.5 88t-32.5 73v4l225 92l-221 -1249q-23 -140 -28.5 -210t1.5 -130v-4z" />
    <glyph glyph-name="m" unicode="m" horiz-adv-x="1060" 
d="M-16 0v4q53 131 88 340l53 307q36 211 -21 271v4l220 92l-70 -387q143 383 307 383q63 0 88.5 -58.5t3.5 -175.5l-26 -141q32 81 63.5 143.5t70 117.5t83 84.5t92.5 29.5q66 0 93 -58.5t5 -175.5l-98 -520q-26 -114 -20.5 -173.5t59.5 -76.5v-4l-230 -16l156 811
q8 42 -2 67t-37 25q-49 0 -113.5 -93.5t-130.5 -250.5l-53 -277q-32 -161 -16 -268v-4h-197v4q28 68 45 139t41 201l88 457q8 42 -2 67t-37 25q-50 0 -113.5 -95.5t-127.5 -252.5l-47 -273q-31 -177 -17 -268v-4h-198z" />
    <glyph glyph-name="n" unicode="n" horiz-adv-x="718" 
d="M-16 0v4q53 131 88 340l53 307q36 211 -21 271v4l220 92l-72 -389q152 385 328 385q69 0 97.5 -58.5t6.5 -175.5l-98 -520q-25 -114 -20 -173.5t59 -76.5v-4l-230 -16l154 811q17 92 -45 92q-64 0 -126 -89.5t-132 -260.5l-47 -271q-31 -177 -17 -268v-4h-198z" />
    <glyph glyph-name="o" unicode="o" horiz-adv-x="667" 
d="M20 344q0 162 58 318t152 254t192 98q102 0 163.5 -107t61.5 -268q0 -162 -58 -318t-151.5 -254t-191.5 -98q-102 0 -164 107t-62 268zM504 729q0 248 -86 248q-60 0 -119.5 -103t-97 -272.5t-37.5 -347.5q0 -248 88 -248q60 0 119 103t96 272t37 348z" />
    <glyph glyph-name="p" unicode="p" horiz-adv-x="708" 
d="M119 610q39 232 -19 301v4l228 103l-52 -281q48 129 115 203t141 74q156 0 156 -287q0 -196 -54 -369t-153 -281t-219 -108q-64 0 -112 33l-15 -82q-27 -161 -35 -237t-2 -140v-4h-198v4q21 44 38.5 106t27.5 112.5t30 160.5zM471 901q-108 0 -215 -309l-63 -352
q-27 -236 75 -236q75 0 140 114.5t100 279t35 323.5q0 96 -17 138t-55 42z" />
    <glyph glyph-name="q" unicode="q" horiz-adv-x="710" 
d="M532 -76q-27 -153 -36 -229.5t-4 -151.5v-4h-201l2 4q49 118 104 410l60 326q-56 -138 -133 -224t-156 -86q-66 0 -107 69t-41 206q0 130 38.5 267t103.5 248.5t159.5 183t196.5 71.5q94 0 156 -51l43 51h12zM166 274q0 -184 78 -184q52 0 115.5 85t125.5 261l70 385l2 2
q14 82 -1.5 114t-59.5 32q-82 0 -159.5 -109t-124 -270.5t-46.5 -315.5z" />
    <glyph glyph-name="r" unicode="r" horiz-adv-x="493" 
d="M-16 0v4q30 71 48.5 143.5t39.5 196.5l53 307q36 211 -21 271v4l220 92l-82 -420q48 124 93.5 210t104 146t117.5 60l-72 -252h-4q-14 14 -45 14q-21 0 -39.5 -8.5t-43.5 -32.5t-53 -76.5t-58 -132.5l-43 -254q-31 -177 -17 -268v-4h-198z" />
    <glyph glyph-name="s" unicode="s" horiz-adv-x="485" 
d="M463 975l-8 -184l-9 -3q-45 107 -76.5 148t-76.5 41t-71.5 -34t-26.5 -93q0 -52 22.5 -110.5t54.5 -113t64.5 -112t55 -127.5t22.5 -139q0 -129 -72 -204t-172 -75q-55 0 -101 20.5t-69 43.5v217l10 4q64 -137 106 -193.5t89 -56.5q42 0 70 40t28 116q0 60 -21.5 122.5
t-52.5 117t-62.5 109.5t-53 120t-21.5 129q0 120 68.5 188t161.5 68q38 0 78 -11.5t63 -27.5z" />
    <glyph glyph-name="t" unicode="t" horiz-adv-x="458" 
d="M373 215q-108 -246 -223 -246q-57 0 -84.5 57t-6.5 169l140 753h-76v13l246 235h12l-39 -215h166l-6 -33h-166l-139 -770q-15 -88 34 -88q19 0 37 11.5t36 36t27.5 40t26.5 45.5z" />
    <glyph glyph-name="u" unicode="u" horiz-adv-x="673" 
d="M94 981h223l-170 -799q-18 -92 41 -92q57 0 113.5 84t136.5 266l74 346q5 25 7.5 42t3 41.5t-4.5 42t-17.5 35.5t-33.5 30v4h223l-149 -694q-30 -120 -25.5 -176.5t59.5 -85.5v-5l-229 -38l66 323q-29 -68 -61 -125t-69.5 -106t-81 -77t-87.5 -28q-67 0 -95 60.5
t-6 154.5l131 604q9 42 11 70.5t-12 63.5t-48 55v4z" />
    <glyph glyph-name="v" unicode="v" horiz-adv-x="538" 
d="M618 977l-485 -997h-22l6 755q0 109 -8.5 156t-40.5 86v4h184l-8 -688l178 369q58 121 60.5 196t-48.5 119v4h184v-4z" />
    <glyph glyph-name="w" unicode="w" horiz-adv-x="817" 
d="M885 977l-432 -997h-23l16 718l-311 -718h-20l8 729q1 111 -9 166.5t-40 101.5v4h184l-10 -657l196 460q-3 67 -16 109.5t-39 83.5v4h191l-17 -653l103 239q47 112 66 192.5t13 131t-34 86.5v4h174v-4z" />
    <glyph glyph-name="x" unicode="x" horiz-adv-x="630" 
d="M137 252l127 209l-61 280q-35 155 -86 236v4h229v-4q-47 -33 -6 -219l37 -170l65 112q125 214 68 277v4h180v-4q-59 -61 -98.5 -112t-89.5 -136l-113 -192l66 -299q20 -90 38.5 -137.5t47.5 -96.5v-4h-228v4q23 28 23.5 72t-21.5 145l-41 189l-77 -129
q-114 -188 -72 -277v-4h-184v4q62 60 104 112.5t92 135.5z" />
    <glyph glyph-name="y" unicode="y" horiz-adv-x="528" 
d="M-188 -461l38 182q37 0 68 8t68 30.5t72.5 70.5t66.5 121l20 49l-24 737q-2 100 -13.5 147t-46.5 93v4h193l16 -690l158 366q32 76 44 133.5t1.5 106t-47.5 80.5v4h184v-4l-485 -1116q-40 -91 -80.5 -153.5t-81 -96.5t-75 -49.5t-76.5 -22.5z" />
    <glyph glyph-name="z" unicode="z" horiz-adv-x="598" 
d="M518 223l-74 -223h-485v14l510 932l-141 -8q-71 -5 -209 -162l-8 4l65 201h453v-16l-508 -930l158 4q53 1 107 50.5t124 137.5z" />
    <glyph glyph-name="quoteleft" unicode="&#x2018;" horiz-adv-x="360" 
d="M430 1546l6 -10q-47 -41 -76.5 -97.5t-29.5 -101.5q0 -33 14.5 -77t32.5 -66v-6l-127 -86q-23 23 -37 60t-14 71q0 81 74.5 173.5t156.5 139.5z" />
    <glyph glyph-name="quoteright" unicode="&#x2019;" horiz-adv-x="360" 
d="M188 1102l-6 10q47 41 77 97.5t30 101.5q0 33 -14.5 77t-32.5 66v6l127 86q23 -23 37 -60t14 -71q0 -81 -75 -173.5t-157 -139.5z" />
    <glyph glyph-name="quotedblleft" unicode="&#x201c;" horiz-adv-x="595" 
d="M664 1546l6 -10q-47 -41 -77 -97.5t-30 -101.5q0 -33 14.5 -77t32.5 -66v-6l-127 -86q-23 23 -37 60t-14 71q0 81 75 173.5t157 139.5zM428 1546l6 -10q-47 -41 -76.5 -97.5t-29.5 -101.5q0 -33 14.5 -77t32.5 -66v-6l-127 -86q-23 23 -37 60t-14 71q0 81 74.5 173.5
t156.5 139.5z" />
    <glyph glyph-name="quotedblright" unicode="&#x201d;" horiz-adv-x="595" 
d="M172 1102l-6 10q47 41 76.5 97.5t29.5 101.5q0 33 -14.5 77t-32.5 66v6l127 86q23 -23 37 -60t14 -71q0 -81 -74.5 -173.5t-156.5 -139.5zM408 1102l-7 10q47 41 77 97.5t30 101.5q0 33 -14.5 77t-32.5 66v6l127 86q23 -23 37 -60t14 -71q0 -81 -74.5 -173.5
t-156.5 -139.5z" />
    </font>
</defs>
</svg>
