<?xml version="1.0" standalone="no"?>
<!DOCTYPE svg PUBLIC "-//W3C//DTD SVG 1.1//EN" "http://www.w3.org/Graphics/SVG/1.1/DTD/svg11.dtd" >
<svg xmlns="http://www.w3.org/2000/svg" xmlns:xlink="http://www.w3.org/1999/xlink" version="1.1">
<metadata>
Created by FontForge 20201107 at Fri Aug  1 12:35:57 2025
 By 
Copyright (c) 2018 Commercial Type, Inc.. All rights reserved.
</metadata>
<defs>
<font id="CanelaCondensed-BoldItalic" horiz-adv-x="368" >
  <font-face 
    font-family="Canela Cond Bold Trial"
    font-weight="700"
    font-style="italic"
    font-stretch="condensed"
    units-per-em="2048"
    panose-1="0 0 0 0 0 0 0 0 0 0"
    ascent="1587"
    descent="-461"
    x-height="1006"
    cap-height="1499"
    bbox="-199 -477 1438 1595"
    underline-thickness="36"
    underline-position="-161"
    slope="-10"
    unicode-range="U+0020-201D"
  />
<missing-glyph horiz-adv-x="231" 
 />
    <glyph glyph-name=".notdef" horiz-adv-x="231" 
 />
    <glyph glyph-name=".null" horiz-adv-x="0" 
 />
    <glyph glyph-name="nonmarkingreturn" horiz-adv-x="682" 
 />
    <glyph glyph-name="space" unicode=" " horiz-adv-x="210" 
 />
    <glyph glyph-name="exclam" unicode="!" horiz-adv-x="397" 
d="M492 1499l-3 -4l-286 -1067h-25l55 1067l3 4h256zM143 -10q-57 0 -98 41t-41 98t41 97t98 40t98.5 -40t41.5 -97t-41.5 -98t-98.5 -41z" />
    <glyph glyph-name="quotedbl" unicode="&#x22;" horiz-adv-x="516" 
d="M211 1008h-14l-13 491h217zM467 1008h-14l-13 491h217z" />
    <glyph glyph-name="quotesingle" unicode="'" horiz-adv-x="262" 
d="M211 1008h-14l-13 491h217z" />
    <glyph glyph-name="comma" unicode="," 
d="M-74 -252l-6 12q64 47 103.5 111t39.5 111q0 37 -21 85t-46 78v9l199 139q26 -22 45.5 -65t19.5 -91q0 -99 -100 -213.5t-234 -175.5z" />
    <glyph glyph-name="hyphen" unicode="-" horiz-adv-x="335" 
d="M33 500l35 190h268l-35 -190h-268z" />
    <glyph glyph-name="period" unicode="." 
d="M133 -10q-57 0 -98 41t-41 98t41 97t98 40q59 0 100 -40t41 -97t-41.5 -98t-99.5 -41z" />
    <glyph glyph-name="zero" unicode="0" horiz-adv-x="966" 
d="M987 979q0 -143 -34 -292t-93.5 -275.5t-135.5 -227t-165.5 -158t-177.5 -57.5q-92 0 -166 73.5t-115 199.5t-41 278q0 144 34 293t94 275.5t136 227t166.5 157.5t178.5 57q139 0 229 -159t90 -392zM727 1288q0 199 -70 199q-62 0 -126 -145.5t-109 -350t-74 -420
t-29 -358.5q0 -201 70 -201q62 0 126 146t109 350.5t74 420t29 359.5z" />
    <glyph glyph-name="one" unicode="1" horiz-adv-x="505" 
d="M373 377q-20 -124 -21.5 -199.5t15.5 -173.5v-4h-375v4q48 91 68 162.5t44 214.5l142 856h-101l2 10q252 86 400 281h14z" />
    <glyph glyph-name="two" unicode="2" horiz-adv-x="747" 
d="M551 0h-627l8 31q150 199 258.5 371.5t169.5 296.5t96.5 238.5t45.5 190.5t10 160q0 205 -68 205q-78 0 -274 -336l-12 4l86 336q120 33 202 33q167 0 247.5 -93t80.5 -239q0 -203 -160.5 -427.5t-500.5 -522.5h307q77 0 135.5 48.5t118.5 147.5l10 -4z" />
    <glyph glyph-name="three" unicode="3" horiz-adv-x="745" 
d="M227 4q60 0 109.5 95t74.5 224t25 250q0 265 -131 265q-57 0 -123 -66l-18 16l434 463h-424l109 248h577l-4 -20l-569 -611q44 17 96 17q142 0 229.5 -96.5t87.5 -258.5q0 -76 -18.5 -153t-59 -150.5t-97 -130.5t-138.5 -92t-178 -35q-65 0 -121 14.5t-76 30.5l-4 357
l12 2q29 -95 49.5 -154t46.5 -113t53 -78t58 -24z" />
    <glyph glyph-name="four" unicode="4" horiz-adv-x="755" 
d="M-10 389l4 23l559 1087h291l-821 -1075h321l70 410h264l-68 -410h95l-11 -35h-88l-10 -59q-30 -185 -4 -326v-4h-354v4q34 72 52 137.5t38 188.5l10 59h-348z" />
    <glyph glyph-name="five" unicode="5" horiz-adv-x="724" 
d="M188 -31q-58 0 -107.5 15t-70.5 34l-4 330l12 4q22 -68 33.5 -102.5t29.5 -83t30.5 -71.5t29.5 -47.5t34.5 -34t37.5 -9.5q58 0 105 81t72.5 210.5t25.5 275.5q0 160 -37 227.5t-111 67.5q-70 0 -131 -61l-14 10l194 684h523l-74 -248h-481l-111 -379q77 52 180 52
q65 0 122.5 -23t103 -68t72 -119t26.5 -169q0 -158 -69.5 -292t-182 -209t-238.5 -75z" />
    <glyph glyph-name="six" unicode="6" horiz-adv-x="866" 
d="M864 1513q-286 -161 -438 -624q76 106 186 106q99 0 165.5 -89.5t66.5 -246.5q0 -117 -38 -240t-101.5 -222.5t-155.5 -163.5t-191 -64q-104 0 -175.5 63t-103.5 164t-32 232q0 74 10 152t36.5 170.5t66.5 179.5t104.5 177t146 166t196.5 144t251 113zM303 186
q0 -174 64 -174q43 0 83 76.5t66.5 187.5t42.5 229.5t16 207.5q0 93 -18 128.5t-55 35.5q-61 0 -105 -78q-48 -168 -71 -334t-23 -279z" />
    <glyph glyph-name="seven" unicode="7" horiz-adv-x="671" 
d="M297 0h-270q135 348 312.5 675.5t358.5 575.5h-542l73 248h600l-2 -20q-342 -678 -530 -1479z" />
    <glyph glyph-name="eight" unicode="8" horiz-adv-x="759" 
d="M795 1249q0 -122 -69.5 -231t-178.5 -154q32 -52 47.5 -77.5t41.5 -76t38.5 -88t22.5 -90t10 -104.5q0 -194 -115.5 -326.5t-292.5 -132.5q-139 0 -222 95t-83 239q0 85 29 164t99.5 150.5t172.5 105.5q-61 95 -95 184t-34 195q0 187 106 307.5t267 120.5
q121 0 188.5 -80t67.5 -201zM383 1262q0 -52 10.5 -99.5t36 -100t42.5 -81.5t56 -90q64 68 95.5 168t31.5 207q0 104 -30.5 165.5t-92.5 61.5q-70 0 -109.5 -64.5t-39.5 -166.5zM139 291q0 -128 41.5 -207.5t122.5 -79.5q83 0 131.5 74.5t48.5 195.5q0 37 -4.5 72
t-16.5 70.5t-20.5 59.5t-30.5 61.5t-31 53t-36.5 58t-34.5 53.5l-2 5q-90 -77 -129 -187.5t-39 -228.5z" />
    <glyph glyph-name="nine" unicode="9" horiz-adv-x="866" 
d="M74 -14q293 163 448 624q-76 -106 -186 -106q-99 0 -165.5 89.5t-66.5 246.5q0 117 38 240t102 222.5t156 163.5t192 64q103 0 174 -63t103 -164.5t32 -233.5q0 -74 -10 -151.5t-36 -169.5t-66.5 -179t-105.5 -177t-148 -166t-199.5 -144t-255.5 -113zM375 786
q0 -92 18 -127.5t53 -35.5q64 0 107 79q48 167 71 331t23 278q0 176 -63 176q-56 0 -106.5 -129t-76.5 -289t-26 -283z" />
    <glyph glyph-name="question" unicode="?" horiz-adv-x="657" 
d="M195 428h-23q11 90 34 168t51.5 133t60.5 106t62 100t54 102.5t38.5 124.5t14.5 155q0 176 -65 176q-26 0 -68.5 -48t-150.5 -198l-8 4l69 250q85 29 176 29q148 0 225.5 -73.5t77.5 -209.5q0 -76 -24 -140.5t-65 -113.5t-91 -94.5t-105 -93.5t-104.5 -99t-92.5 -123
t-66 -155zM172 -10q-57 0 -98 41t-41 98t41 97t98 40t98 -40t41 -97t-41 -98t-98 -41z" />
    <glyph glyph-name="A" unicode="A" horiz-adv-x="878" 
d="M145 0h-223v4q51 56 87.5 131.5t80.5 194.5l438 1173h129l74 -1175q7 -112 22.5 -185.5t53.5 -138.5v-4h-399v4q39 66 51 148.5t4 216.5l-8 151h-254l-49 -131q-45 -126 -46 -226.5t39 -158.5v-4zM215 557h238l-33 555z" />
    <glyph glyph-name="B" unicode="B" horiz-adv-x="890" 
d="M-39 0v4q45 96 72 182t47 203l117 711q24 141 27.5 217t-9.5 178l2 4q48 1 173.5 4.5t170.5 3.5q190 0 280.5 -78.5t90.5 -222.5q0 -155 -94.5 -264.5t-255.5 -146.5q148 -28 213 -110t65 -212q0 -94 -31 -178t-89 -150.5t-150.5 -105.5t-206.5 -39h-422zM573 1462
q-13 0 -45 -4l-108 -643h72q63 0 109.5 61.5t68.5 162t22 225.5q0 103 -26 150.5t-93 47.5zM481 778h-67l-125 -737q28 -4 43 -4q124 0 197 147.5t73 374.5q0 124 -29 171.5t-92 47.5z" />
    <glyph glyph-name="C" unicode="C" horiz-adv-x="897" 
d="M834 393l-62 -317q-56 -37 -143.5 -72t-179.5 -35q-189 0 -288.5 157.5t-99.5 418.5q0 158 36 308t100 271t148 213t185.5 142.5t206.5 50.5q101 0 221 -43l-16 -307l-16 -2q-74 181 -122 248t-106 67q-97 0 -185 -184.5t-137.5 -448t-49.5 -510.5q0 -344 118 -344
q35 0 68 18t80 72.5t76 93.5t100 140q32 45 49 69z" />
    <glyph glyph-name="D" unicode="D" horiz-adv-x="1003" 
d="M-35 0v4q74 150 111 363l127 766q22 125 23.5 197.5t-13.5 164.5v4q35 0 148 4t204 2q121 -1 210.5 -43t144.5 -119t81.5 -180t26.5 -233q0 -185 -52 -354.5t-142.5 -296.5t-222 -203t-281.5 -76h-365zM338 35q85 2 157.5 76t120.5 189t82.5 259t50 283t15.5 262
q0 197 -47 282t-160 84h-29l-237 -1435h47z" />
    <glyph glyph-name="E" unicode="E" horiz-adv-x="849" 
d="M-35 0v4q79 179 111 365l125 749q21 119 22 204t-12 173v4h645v-330l-14 -4q-44 139 -88.5 209.5t-108.5 77.5l-121 10l-110 -661h59q68 0 111.5 41t97.5 139h16l-75 -418h-17q-11 46 -17.5 69.5t-18.5 53.5t-25 44t-33.5 24t-48.5 10h-55l-121 -729l184 12
q57 4 129 92.5t178 261.5l15 -6l-99 -395h-729z" />
    <glyph glyph-name="F" unicode="F" horiz-adv-x="780" 
d="M330 4v-4h-367v4q79 168 115 373l121 735q23 132 25.5 210.5t-11.5 172.5v4h657l-4 -330l-14 -4q-44 139 -88.5 209.5t-108.5 77.5l-129 10l-114 -669h63q66 0 107 40t102 142h16l-75 -418h-17q-11 45 -17.5 68t-18.5 53t-25 44t-33.5 24t-48.5 10h-59l-64 -383
q-29 -172 -12 -369z" />
    <glyph glyph-name="G" unicode="G" horiz-adv-x="972" 
d="M977 666q-45 -70 -71 -165t-48 -237l-18 -129q-2 -2 -24.5 -18.5t-32 -22.5t-34.5 -23t-42 -25.5t-44 -23t-50 -22t-51 -16t-57.5 -12t-58.5 -3.5q-83 0 -149.5 33t-109.5 88t-72 132t-41.5 160t-12.5 175q0 194 56 375t148 311t215.5 208.5t254.5 78.5q120 0 252 -43
l-14 -324l-17 -4q-94 196 -141.5 265t-107.5 69q-76 0 -148.5 -109.5t-123 -278t-81 -374.5t-30.5 -397q0 -161 29 -244.5t98 -83.5q86 0 139.5 117.5t54.5 320.5q2 124 -31 222v4h363v-4z" />
    <glyph glyph-name="H" unicode="H" horiz-adv-x="991" 
d="M-35 0v4q79 171 113 373l121 735q21 131 23.5 209t-11.5 174v4h362v-4q-46 -100 -69 -177.5t-43 -207.5l-51 -319h274l51 321q23 132 26 209t-11 174v4h360v-4q-46 -99 -68.5 -176.5t-42.5 -208.5l-120 -737q-28 -179 -11 -369v-4h-366v4q81 175 114 373l62 377h-275
l-61 -381q-26 -168 -12 -369v-4h-365z" />
    <glyph glyph-name="I" unicode="I" horiz-adv-x="454" 
d="M-37 0v4q79 168 115 373l121 735q22 134 24.5 210t-10.5 173v4h360v-4q-46 -93 -67.5 -171t-42.5 -214l-123 -737q-27 -176 -10 -369v-4h-367z" />
    <glyph glyph-name="J" unicode="J" horiz-adv-x="643" 
d="M662 1098l-109 -637q-42 -233 -148 -362.5t-266 -129.5q-82 0 -164 29l35 319l13 2q32 -148 68 -230.5t67 -82.5q62 0 123 373l118 721q23 137 24.5 216.5t-17.5 178.5v4h368v-4q-33 -64 -53.5 -127t-30 -110t-28.5 -160z" />
    <glyph glyph-name="K" unicode="K" horiz-adv-x="978" 
d="M907 0h-344l-164 735l2 6l283 367q57 70 86 142t28 132t-24 113v4h316v-4q-81 -64 -143 -132t-191 -226l-123 -164l141 -625q47 -210 133 -342v-6zM-37 0v4q79 168 115 373l121 735q22 134 24.5 210t-10.5 173v4h375l-2 -4q-51 -95 -76 -173t-47 -212l-62 -369l-2 -2v-4
l-59 -362q-27 -176 -10 -369v-4h-367z" />
    <glyph glyph-name="L" unicode="L" horiz-adv-x="778" 
d="M199 1087q24 137 26 224t-12 184v4h362v-4q-46 -103 -69 -187t-45 -225l-174 -1044l114 8q59 4 133.5 90.5t172.5 247.5l14 -6l-98 -379h-658v4q78 177 117 397z" />
    <glyph glyph-name="M" unicode="M" horiz-adv-x="1071" 
d="M573 0v4q43 92 69 175.5t44 197.5l129 790l-440 -1122h-45l-74 1133l-121 -734q-25 -151 -18.5 -245t49.5 -195v-4h-225v4q68 111 98 198t57 244l121 732l-2 -9q32 218 -18 326v4h290l62 -895l352 895h299v-4q-49 -63 -74.5 -135t-46.5 -195l-129 -792q-27 -176 -10 -369
v-4h-367z" />
    <glyph glyph-name="N" unicode="N" horiz-adv-x="854" 
d="M643 -2l-383 1202l-125 -756q-24 -153 -17.5 -245.5t48.5 -194.5v-4h-221v4q66 111 95 196.5t56 245.5l109 658q23 133 22.5 230t-34.5 161v4h241l293 -919l78 475q24 152 18 244.5t-45 195.5v4h219v-4q-67 -112 -96.5 -199t-54.5 -243l-174 -1051z" />
    <glyph glyph-name="O" unicode="O" horiz-adv-x="1040" 
d="M61 565q0 188 57 368t147 309.5t205.5 208.5t229.5 79q91 0 162.5 -49.5t115 -133.5t65.5 -189t22 -222q0 -151 -36.5 -298.5t-100 -266t-144 -210.5t-173.5 -142t-183 -50q-92 0 -164 49.5t-115.5 134.5t-65.5 189.5t-22 222.5zM322 336q0 -330 116 -330q71 0 140.5 120
t117.5 297.5t77.5 378t29.5 363.5t-26 245.5t-87 82.5q-72 0 -142 -120.5t-118 -297.5t-78 -377.5t-30 -361.5z" />
    <glyph glyph-name="P" unicode="P" horiz-adv-x="856" 
d="M330 4v-4h-365v4q74 149 113 373l125 756q22 125 23.5 197.5t-13.5 164.5v4h387q170 0 255 -94t85 -248q0 -100 -37 -195.5t-101 -171t-160.5 -121.5t-207.5 -46h-51l-43 -250q-27 -176 -10 -369zM561 1460q-25 0 -37 -2l-135 -799h45q58 0 106 50t78.5 132t47 182.5
t16.5 205.5q0 118 -28 174.5t-93 56.5z" />
    <glyph glyph-name="Q" unicode="Q" horiz-adv-x="1040" 
d="M61 565q0 188 57 368t147 309.5t205.5 208.5t229.5 79q91 0 162.5 -49.5t115 -133.5t65.5 -189t22 -222q0 -180 -52 -353.5t-136 -302t-191.5 -212t-216.5 -97.5q91 -98 268 -98q132 0 219 41l-73 -240q-41 -24 -113 -24q-64 0 -118.5 21t-91.5 53.5t-66.5 77t-46 84.5
t-27.5 83q-90 2 -160.5 52.5t-112.5 134.5t-64 188t-22 221zM322 336q0 -330 116 -330q71 0 140.5 120t117.5 297.5t77.5 378t29.5 363.5t-26 245.5t-87 82.5q-72 0 -142 -120.5t-118 -297.5t-78 -377.5t-30 -361.5z" />
    <glyph glyph-name="R" unicode="R" horiz-adv-x="972" 
d="M330 4v-4h-365v4q74 149 113 373l125 756q22 125 23.5 197.5t-13.5 164.5v4h375q178 0 269 -87.5t91 -235.5q0 -122 -60 -231.5t-173 -170.5l65 -502q14 -107 36 -169.5t61 -96.5v-6h-326l-92 707h-64l-55 -334q-27 -176 -10 -369zM553 1462h-31l-121 -719h64
q50 0 90.5 35t65 89.5t41.5 124t23.5 134t6.5 125.5q0 104 -31 157.5t-108 53.5z" />
    <glyph glyph-name="S" unicode="S" horiz-adv-x="739" 
d="M766 1499l-25 -293l-12 -2q-55 168 -99 228.5t-102 60.5q-70 0 -114.5 -61t-44.5 -154q0 -52 19 -109t36.5 -89.5t64 -105.5t60.5 -97q59 -97 93 -194.5t34 -215.5q1 -228 -118 -363t-292 -135q-64 0 -133.5 15.5t-101.5 35.5l2 351l16 4q120 -369 266 -369
q67 0 111.5 70.5t44.5 191.5q0 38 -4 73t-16 72t-18 58t-28 61.5t-28 51t-34.5 57t-31.5 51.5q-67 106 -104 202t-37 212q0 194 110.5 309t282.5 115q99 0 203 -31z" />
    <glyph glyph-name="T" unicode="T" horiz-adv-x="915" 
d="M307 377l182 1089l-32 -2q-47 -3 -112.5 -82.5t-194.5 -269.5l-11 6l101 381h778l-19 -385l-12 -2q-60 187 -103 267.5t-102 84.5l-28 2l-183 -1093q-28 -155 -12 -369v-4h-366v4q77 163 114 373z" />
    <glyph glyph-name="U" unicode="U" horiz-adv-x="880" 
d="M397 -31q-174 0 -263 122t-52 341l111 666q23 138 26.5 218t-10.5 179v4h375v-4q-50 -96 -77 -180t-50 -217l-119 -721q-29 -175 8 -261.5t133 -86.5q55 0 98.5 29t74.5 84.5t52.5 126.5t36.5 165l115 672q22 147 13 222t-56 167l2 4h232v-4q-70 -88 -99.5 -164
t-54.5 -227l-115 -676q-15 -88 -33 -153.5t-48 -125.5t-69.5 -98t-97.5 -60t-133 -22z" />
    <glyph glyph-name="V" unicode="V" horiz-adv-x="819" 
d="M160 1499h381v-4q-35 -67 -49 -149.5t-11 -223.5l17 -714l258 712q29 84 35.5 160.5t-5 129t-36.5 85.5v4h239v-4q-46 -42 -88 -125t-92 -221l-420 -1155h-139l-35 1173q-3 113 -14.5 187.5t-40.5 140.5v4z" />
    <glyph glyph-name="W" unicode="W" horiz-adv-x="1271" 
d="M182 1499h367v-4q-39 -69 -54.5 -156.5t-15.5 -222.5l2 -680l234 664v53q-2 124 -11 199t-38 143v4h374v-4q-40 -73 -54.5 -156.5t-14.5 -220.5l4 -684l229 670q32 94 40.5 174.5t-2 131.5t-34.5 85v4h230v-4q-47 -44 -85 -122t-87 -214l-406 -1165h-139l-6 993
l-350 -993h-140l-4 1159q0 219 -39 342v4z" />
    <glyph glyph-name="X" unicode="X" horiz-adv-x="942" 
d="M842 0h-422v4q77 99 33 371l-52 301l-125 -244q-146 -281 -49 -428v-4h-288v4q75 68 135 156t133 227l184 352l-65 383q-22 152 -48.5 234t-66.5 139v4h424v-4q-76 -98 -35 -371l37 -221l102 191q141 268 52 401v4h288v-4q-144 -122 -268 -356l-162 -299l78 -463
q23 -151 50 -233.5t65 -139.5v-4z" />
    <glyph glyph-name="Y" unicode="Y" horiz-adv-x="837" 
d="M147 0v4q41 91 66 172.5t45 194.5l59 364l-57 420q-33 228 -88 340v4h416v-4q-80 -114 -56 -313l48 -367l155 322q37 74 45.5 147t-3 123t-36.5 88v4h265v-4q-32 -28 -59.5 -61t-55 -81.5t-43 -79.5t-47.5 -97l-221 -451l-60 -356q-26 -171 -6 -365v-4h-367z" />
    <glyph glyph-name="Z" unicode="Z" horiz-adv-x="860" 
d="M-41 0v16l733 1446l-135 -8q-36 -2 -78 -27.5t-91.5 -75.5t-80 -84t-80.5 -94q-7 -8 -10 -12l-10 6l96 332h676v-16l-735 -1448l178 10q35 2 78.5 34t88 83.5t82.5 101.5t77 104q11 16 16 23l10 -4l-98 -387h-717z" />
    <glyph glyph-name="a" unicode="a" horiz-adv-x="806" 
d="M698 16l-317 -32l70 329q-110 -344 -269 -344q-76 0 -121 81t-41 233q2 100 26 204.5t70.5 203.5t109.5 177t152 125t189 47q95 0 162 -43l94 43h13l-172 -786q-24 -94 -17.5 -150.5t51.5 -83.5v-4zM258 334q-5 -150 57 -150q40 0 79.5 81t84.5 241l96 422l5 2
q-3 74 -52 74q-62 0 -126 -116.5t-103 -273t-41 -280.5z" />
    <glyph glyph-name="b" unicode="b" horiz-adv-x="815" 
d="M512 1595l-172 -938q105 383 281 383q81 0 127.5 -76t46.5 -229q0 -130 -34 -263.5t-95 -246.5t-157 -184.5t-208 -71.5q-139 0 -210 107.5t-34 326.5l142 828q34 188 -19 274v4zM283 311q-29 -157 -24.5 -233t48.5 -76q63 0 122 122t92.5 282.5t33.5 289.5
q0 142 -59 142q-46 0 -98.5 -124.5t-98.5 -312.5z" />
    <glyph glyph-name="c" unicode="c" horiz-adv-x="647" 
d="M557 297l12 -4q-31 -153 -103 -238.5t-190 -85.5q-127 0 -192.5 103.5t-65.5 279.5q0 142 42 271t111 219.5t160.5 144t188.5 53.5q67 0 131 -24l-10 -244l-14 -4q-51 132 -84.5 185t-65.5 53t-69 -41.5t-69.5 -111.5t-54 -177t-22.5 -225q0 -145 33.5 -216t103.5 -71
q51 0 88 32.5t70 100.5z" />
    <glyph glyph-name="d" unicode="d" horiz-adv-x="843" 
d="M420 -12l84 413q-27 -87 -55 -155.5t-66.5 -135.5t-87.5 -104t-105 -37q-78 0 -124 75.5t-46 219.5q0 130 39 265t108 250t176.5 188t231.5 73h27l35 203q17 75 15 148.5t-34 115.5v4l330 84l-235 -1335q-18 -99 -11.5 -159.5t41.5 -86.5v-4zM262 328q0 -154 57 -154
q90 0 195 369l76 432q-16 29 -45 29q-65 0 -132 -110.5t-109 -269t-42 -296.5z" />
    <glyph glyph-name="e" unicode="e" horiz-adv-x="671" 
d="M578 313q-36 -169 -118 -256.5t-196 -87.5q-121 0 -183.5 101t-62.5 280q0 186 72 346.5t187.5 252t242.5 91.5q79 0 128.5 -37.5t49.5 -111.5q0 -108 -106.5 -177t-308.5 -69q-17 -100 -17 -194q0 -265 140 -265q99 0 159 133zM494 1006q-60 0 -119 -95t-88 -245
q74 15 126.5 45.5t78.5 70.5t36.5 77t10.5 77q0 70 -45 70z" />
    <glyph glyph-name="f" unicode="f" horiz-adv-x="485" 
d="M-49 -338l242 1311h-82l8 33h80l12 61q45 234 162.5 380t269.5 146q50 0 90 -10l-12 -250l-14 -4q-50 136 -71.5 183t-41.5 47q-45 0 -107 -332l-41 -221h121l-6 -33h-121l-239 -1311h-250z" />
    <glyph glyph-name="g" unicode="g" horiz-adv-x="759" 
d="M-2 111q0 92 57.5 157.5t143.5 96.5q-49 40 -75 106.5t-26 138.5q0 106 52.5 206t139.5 162t181 62q81 0 141 -57l236 135v-4l-43 -221h-6l-162 61q63 -84 63 -206q0 -106 -51.5 -205.5t-138.5 -161.5t-182 -62q-59 0 -109 29q-61 -30 -61 -84q0 -16 5 -29t19 -23.5
t25.5 -17.5t39 -16t43 -13.5t53.5 -14.5q22 -6 34 -9q57 -14 96 -29.5t76.5 -42.5t56.5 -69t19 -100q0 -74 -31 -141.5t-87.5 -120t-144 -84t-192.5 -31.5q-130 0 -201 47t-71 133q0 81 59.5 143.5t155.5 94.5q-115 56 -115 170zM299 449q0 -48 6.5 -72.5t26.5 -24.5
q38 0 78.5 97t66 227t25.5 231q0 99 -33 99q-39 0 -79.5 -96.5t-65.5 -227t-25 -233.5zM29 -264q0 -78 53.5 -120t150.5 -42q116 0 181 50.5t65 117.5q0 25 -11 44.5t-27 33t-45 26t-53.5 20.5t-63.5 19l-21 6q-77 21 -127 41q-44 -29 -73 -82.5t-29 -113.5z" />
    <glyph glyph-name="h" unicode="h" horiz-adv-x="841" 
d="M-31 0v4q50 103 86 305l160 934q17 75 15.5 149t-33.5 115v4l329 84l-184 -1007q22 73 43.5 131t52 119t64 101.5t77.5 66.5t93 26q82 0 123.5 -66t19.5 -192l-96 -543q-20 -102 -13.5 -150t50.5 -69v-4l-334 -20l153 813q13 71 -26 71q-50 0 -102.5 -112t-124.5 -330v-2
l-23 -133q-36 -194 -20 -291v-4h-310z" />
    <glyph glyph-name="i" unicode="i" horiz-adv-x="405" 
d="M322 1163q-66 0 -111 45.5t-45 110.5q0 64 45 107.5t111 43.5q63 0 107 -43.5t44 -107.5q0 -65 -44 -110.5t-107 -45.5zM-33 0v4q31 60 49.5 129.5t38.5 188.5l62 358q16 85 12.5 157t-33.5 113v4l330 82l-125 -714q-23 -132 -28.5 -194t1.5 -124v-4h-307z" />
    <glyph glyph-name="j" unicode="j" horiz-adv-x="391" 
d="M322 1163q-66 0 -111 45.5t-45 110.5q0 64 45 107.5t111 43.5q63 0 107 -43.5t44 -107.5q0 -65 -44 -110.5t-107 -45.5zM-199 -426q140 84 191 381l125 725q16 85 12.5 157t-33.5 113v4l330 82l-162 -882q-28 -142 -78.5 -253t-113.5 -180t-129.5 -108t-137.5 -51z" />
    <glyph glyph-name="k" unicode="k" horiz-adv-x="796" 
d="M-31 0v4q50 103 86 305l160 934q17 75 15.5 149t-33.5 115v4l329 84l-186 -1063l240 267q57 64 68.5 111t-17.5 91v5h246v-5q-68 -36 -124 -81.5t-153 -153.5l-55 -64l108 -509q27 -138 78 -189v-4h-293l-104 494l-33 -183q-22 -125 -26.5 -188t4.5 -119v-4h-310z" />
    <glyph glyph-name="l" unicode="l" horiz-adv-x="405" 
d="M279 0h-310v4q50 103 86 305l160 934q17 75 15.5 149t-33.5 115v4l329 84l-225 -1284q-22 -125 -26.5 -188t4.5 -119v-4z" />
    <glyph glyph-name="m" unicode="m" horiz-adv-x="1267" 
d="M-33 0v4q52 108 86 305l64 379q16 83 12.5 153t-33.5 111v4l324 84l-86 -475q28 100 57 177t69.5 148.5t93 110.5t114.5 39q78 0 117 -69t16 -203l-31 -180q28 96 58 170t70.5 141.5t92 104t111.5 36.5q79 0 120.5 -69.5t18.5 -198.5l-96 -541q-20 -102 -13.5 -150
t50.5 -69v-4l-332 -20l149 794q18 97 -22 97q-78 0 -223 -453l-27 -143q-30 -161 -18 -279v-4h-310v4q24 51 41.5 120t40.5 195l82 463q18 97 -22 97q-43 0 -103 -133.5t-123 -342.5l-18 -104q-20 -112 -25.5 -172t2.5 -123v-4h-307z" />
    <glyph glyph-name="n" unicode="n" horiz-adv-x="841" 
d="M-33 0v4q52 108 86 305l64 379q16 83 12.5 153t-33.5 111v4l324 84l-84 -473q23 79 44 139t52.5 126.5t65 109t78.5 70.5t96 28q81 0 123 -66.5t20 -191.5l-98 -551q-20 -102 -13.5 -150t50.5 -69v-4l-332 -20l153 819q13 72 -26 72q-27 0 -55.5 -33.5t-58.5 -100
t-56 -138t-60 -175.5l-22 -133q-20 -112 -25.5 -172t2.5 -123v-4h-307z" />
    <glyph glyph-name="o" unicode="o" horiz-adv-x="800" 
d="M18 369q0 165 71.5 321.5t185.5 253t233 96.5q118 0 197 -114.5t79 -286.5q0 -123 -43 -246.5t-111.5 -216t-158 -150t-178.5 -57.5q-117 0 -196 114.5t-79 285.5zM557 864q0 142 -51 142q-36 0 -81.5 -77t-85 -196t-66.5 -279t-27 -309q0 -141 49 -141q36 0 81.5 77
t85.5 195.5t67.5 278.5t27.5 309z" />
    <glyph glyph-name="p" unicode="p" horiz-adv-x="831" 
d="M113 676q33 195 -21 272v4l328 88l-68 -387q109 387 285 387q80 0 127 -76t47 -229q0 -127 -34 -260t-94 -247t-155 -186.5t-206 -72.5q-43 0 -84 13l-11 -60q-29 -154 -37 -233t-2 -146v-4h-307v4q35 72 56.5 155t44.5 222zM510 838q-82 0 -191 -414l-38 -209
q-15 -100 -5.5 -156.5t48.5 -56.5q62 0 120.5 123t91.5 284.5t33 288.5q0 76 -14.5 108t-44.5 32z" />
    <glyph glyph-name="q" unicode="q" horiz-adv-x="833" 
d="M639 -137q-23 -126 -29 -187.5t2 -132.5v-4h-309v4q52 108 92 328l76 434q-118 -336 -281 -336q-78 0 -124 75.5t-46 219.5q0 130 39 265.5t108 250t176.5 187.5t231.5 73q121 0 189 -61l76 51h6zM262 328q0 -154 57 -154q88 0 193 363l55 311q15 69 12.5 112.5
t-34.5 43.5q-65 0 -132 -110.5t-109 -269t-42 -296.5z" />
    <glyph glyph-name="r" unicode="r" horiz-adv-x="600" 
d="M-33 0v4q52 108 86 305l64 379q16 83 12.5 153t-33.5 111v4l324 84l-80 -460q33 102 66.5 180t74.5 146t89 104.5t100 36.5l-95 -371h-6q-6 8 -80 8q-25 0 -42.5 -7.5t-38.5 -30.5t-41 -71.5t-41 -125.5l-29 -150q-40 -193 -23 -295v-4h-307z" />
    <glyph glyph-name="s" unicode="s" horiz-adv-x="552" 
d="M543 1016l-11 -219l-12 -2q-47 116 -79.5 163.5t-73.5 47.5q-38 0 -60 -34t-22 -87q0 -50 21 -100t51 -95t60 -94.5t51 -117t21 -142.5q0 -164 -88.5 -265.5t-228.5 -101.5q-103 0 -168 47l4 254l12 4q92 -272 189 -272q39 0 65.5 37.5t26.5 99.5q0 51 -21.5 104.5
t-51.5 102t-60.5 100.5t-52 119t-21.5 137q0 92 33.5 167t106.5 123t174 48q85 0 135 -24z" />
    <glyph glyph-name="t" unicode="t" horiz-adv-x="542" 
d="M475 242q-45 -124 -125 -198.5t-172 -74.5q-84 0 -123.5 69t-11.5 212l137 723h-71l4 16l350 252h16l-45 -235h166l-6 -33h-166l-139 -742q-18 -100 43 -100q68 0 129 123z" />
    <glyph glyph-name="u" unicode="u" horiz-adv-x="817" 
d="M100 1006h326l-162 -766q-22 -95 23 -95q41 0 88 102.5t121 321.5l49 211q20 74 11.5 128.5t-50.5 90.5v7h330l-164 -744q-22 -95 -15.5 -149.5t50.5 -85.5v-7l-318 -36l80 383q-138 -398 -334 -398q-80 0 -112 67t-3 193l119 551q19 74 10.5 129t-49.5 90v7z" />
    <glyph glyph-name="v" unicode="v" horiz-adv-x="604" 
d="M686 1001l-508 -1007h-69l-7 715q-2 116 -10.5 181t-34.5 111v5h287l4 -594l139 278q51 98 55 182t-46 129v5h190v-5z" />
    <glyph glyph-name="w" unicode="w" horiz-adv-x="946" 
d="M1016 1001l-451 -1007h-71l-2 645l-312 -645h-71l-5 706q0 214 -45 301v5h291v-578l142 293q-3 194 -48 280v5h285l-2 -562l96 213q50 114 51.5 206t-45.5 138v5h187v-5z" />
    <glyph glyph-name="x" unicode="x" horiz-adv-x="706" 
d="M137 303l103 189l-43 258q-18 109 -37.5 164t-48.5 87v5h354v-5q-26 -27 -31.5 -101.5t10.5 -158.5l23 -129l45 82q53 97 69.5 175.5t-12.5 131.5v5h199v-5q-53 -46 -96.5 -109t-112.5 -190l-82 -149l49 -299q18 -106 37 -161t47 -89v-4h-352v4q55 64 21 258l-29 170
l-66 -121q-111 -211 -59 -307v-4h-201v4q56 46 102.5 111t110.5 188z" />
    <glyph glyph-name="y" unicode="y" horiz-adv-x="614" 
d="M-162 -461l49 281q88 -9 145 13.5t101 92.5l-16 785q-2 109 -12.5 175t-38.5 115v5h292l13 -592l131 274q30 63 43 122.5t4 111t-43 79.5v5h190v-5l-546 -1130q-81 -170 -155 -243.5t-157 -88.5z" />
    <glyph glyph-name="z" unicode="z" horiz-adv-x="679" 
d="M623 328l-107 -328h-551v14l471 957l-67 -4q-24 -2 -56.5 -27t-58.5 -54.5t-73 -84t-77 -86.5l-12 8l94 283h525v-15l-473 -960l79 4q50 3 122.5 82t170.5 217z" />
    <glyph glyph-name="quoteleft" unicode="&#x2018;" horiz-adv-x="323" 
d="M432 1546l6 -12q-57 -38 -88 -91.5t-31 -94.5q0 -33 21 -82.5t47 -81.5v-6l-164 -129q-26 23 -44.5 64.5t-18.5 82.5q0 89 77 193t195 157z" />
    <glyph glyph-name="quoteright" unicode="&#x2019;" horiz-adv-x="323" 
d="M158 1049l-6 12q57 38 87.5 91t30.5 95q0 33 -20.5 82.5t-46.5 81.5v6l164 129q26 -23 44.5 -64.5t18.5 -82.5q0 -89 -77 -193t-195 -157z" />
    <glyph glyph-name="quotedblleft" unicode="&#x201c;" horiz-adv-x="591" 
d="M700 1546l7 -12q-57 -38 -88 -91.5t-31 -94.5q0 -33 20.5 -82.5t46.5 -81.5v-6l-163 -129q-26 23 -45 64.5t-19 82.5q0 89 77 193t195 157zM432 1546l6 -12q-57 -38 -88 -91.5t-31 -94.5q0 -33 21 -82.5t47 -81.5v-6l-164 -129q-26 23 -44.5 64.5t-18.5 82.5q0 89 77 193
t195 157z" />
    <glyph glyph-name="quotedblright" unicode="&#x201d;" horiz-adv-x="591" 
d="M152 1049l-7 12q57 38 88 91.5t31 94.5q0 33 -20.5 82.5t-46.5 81.5v6l163 129q26 -23 45 -64.5t19 -82.5q0 -89 -77 -193t-195 -157zM420 1049l-6 12q57 38 87.5 91t30.5 95q0 33 -20.5 82.5t-46.5 81.5v6l164 129q26 -23 44.5 -64.5t18.5 -82.5q0 -89 -77 -193
t-195 -157z" />
    </font>
</defs>
</svg>
