<?xml version="1.0" standalone="no"?>
<!DOCTYPE svg PUBLIC "-//W3C//DTD SVG 1.1//EN" "http://www.w3.org/Graphics/SVG/1.1/DTD/svg11.dtd" >
<svg xmlns="http://www.w3.org/2000/svg" xmlns:xlink="http://www.w3.org/1999/xlink" version="1.1">
<metadata>
Created by FontForge 20201107 at Fri Aug  1 12:39:25 2025
 By 
Copyright 2023, Kris Sowersby, Klim Type Foundry.
</metadata>
<defs>
<font id="Sohne-LeichtKursiv" horiz-adv-x="1210" >
  <font-face 
    font-family="Test So:hne Leicht"
    font-weight="300"
    font-style="italic"
    font-stretch="normal"
    units-per-em="2048"
    panose-1="2 11 3 3 3 2 2 13 2 3"
    ascent="1638"
    descent="-410"
    x-height="1069"
    cap-height="1470"
    bbox="-184 -389 1954 1772"
    underline-thickness="112"
    underline-position="-270"
    slope="-8"
    unicode-range="U+0020-00F6"
  />
<missing-glyph horiz-adv-x="1435" 
d="M131 0v1470h1229v-1470h-1229zM401 496l105 -105l239 240l242 -240l103 105l-238 241l238 240l-103 104l-242 -239l-239 239l-105 -104l240 -240z" />
    <glyph glyph-name=".notdef" horiz-adv-x="1435" 
d="M131 0v1470h1229v-1470h-1229zM401 496l105 -105l239 240l242 -240l103 105l-238 241l238 240l-103 104l-242 -239l-239 239l-105 -104l240 -240z" />
    <glyph glyph-name=".null" horiz-adv-x="0" 
 />
    <glyph glyph-name="nonmarkingreturn" horiz-adv-x="682" 
 />
    <glyph glyph-name="space" unicode=" " horiz-adv-x="442" 
 />
    <glyph glyph-name="comma" unicode="," horiz-adv-x="452" 
d="M59 0l27 197h184l-30 -213q-18 -118 -85 -178.5t-192 -61.5l12 84q76 1 115 40t51 118l2 14h-84z" />
    <glyph glyph-name="hyphen" unicode="-" horiz-adv-x="792" 
d="M121 537l16 122h549l-14 -122h-551z" />
    <glyph glyph-name="period" unicode="." horiz-adv-x="452" 
d="M59 0l27 197h184l-28 -197h-183z" />
    <glyph glyph-name="zero" unicode="0" horiz-adv-x="1263" 
d="M739 1491q221 0 347 -164t126 -448q0 -240 -76.5 -443.5t-222.5 -329.5t-333 -126q-222 0 -349 164t-127 448q0 179 45.5 342t126.5 286.5t201.5 197t261.5 73.5zM582 104q138 0 251 107t175.5 283t62.5 380q0 229 -89 360.5t-247 131.5q-137 0 -250 -107t-176 -283
t-63 -380q0 -229 89.5 -360.5t246.5 -131.5z" />
    <glyph glyph-name="one" unicode="1" horiz-adv-x="739" 
d="M575 1479h105l-207 -1479h-143l159 1130h-354l15 109l172 8q123 6 174.5 54.5t78.5 177.5z" />
    <glyph glyph-name="two" unicode="2" horiz-adv-x="1128" 
d="M14 121l584 438q196 147 281.5 273t85.5 243q0 130 -86 211.5t-220 81.5q-154 0 -258 -108.5t-104 -280.5q0 -65 14 -117h-133q-16 59 -16 123q0 216 142.5 361t361.5 145q193 0 315.5 -115t122.5 -297q0 -150 -97.5 -295t-312.5 -305l-477 -354h797l-19 -125h-999z" />
    <glyph glyph-name="three" unicode="3" horiz-adv-x="1159" 
d="M547 -20q-139 0 -251.5 52.5t-182.5 157.5t-74 246l135 27q9 -168 113.5 -264.5t263.5 -96.5q163 0 271 96.5t108 239.5q0 124 -89 197.5t-225 73.5h-174l19 120h180q145 0 244.5 85t99.5 208q0 107 -84 176.5t-213 69.5q-137 0 -241.5 -82t-147.5 -239l-129 32
q53 191 192 301.5t332 110.5q189 0 308.5 -101t119.5 -260q0 -133 -82.5 -230.5t-216.5 -135.5q110 -32 178 -119t68 -209q0 -90 -38 -173t-104.5 -145.5t-165.5 -100t-214 -37.5z" />
    <glyph glyph-name="four" unicode="4" horiz-adv-x="1220" 
d="M823 0h-135l57 403h-725l17 111l803 956h190l-133 -948h295l-16 -119h-297zM195 522h565l114 811z" />
    <glyph glyph-name="five" unicode="5" horiz-adv-x="1150" 
d="M322 705l-127 30l165 735h781l-19 -124h-667l-115 -504q132 119 309 119q126 0 222.5 -60t146 -159t49.5 -220q0 -106 -39.5 -204t-108 -173t-170 -120t-217.5 -45q-196 0 -327.5 118t-153.5 318l133 24q20 -159 113.5 -249.5t237.5 -90.5q170 0 283.5 122t113.5 292
q0 142 -84.5 235t-224.5 93q-85 0 -164 -35.5t-137 -101.5z" />
    <glyph glyph-name="six" unicode="6" horiz-adv-x="1193" 
d="M1194 1139l-125 -39q-15 121 -98.5 194.5t-206.5 73.5q-192 0 -341 -184t-179 -477q61 121 176.5 193.5t255.5 72.5q191 0 312.5 -123t121.5 -313q0 -107 -39 -208t-107.5 -178.5t-169.5 -124t-216 -46.5q-214 0 -344 149.5t-130 437.5q0 187 50 356.5t137.5 294.5
t213.5 199t269 74q168 0 282 -97.5t138 -254.5zM580 100q110 0 202.5 60t143.5 157t51 207q0 145 -93 236.5t-235 91.5q-112 0 -203.5 -58t-142.5 -153t-51 -205q0 -146 92.5 -241t235.5 -95z" />
    <glyph glyph-name="seven" unicode="7" horiz-adv-x="1071" 
d="M995 1346h-735l-35 -267h-129l56 391h1030l-19 -122q-207 -205 -340.5 -410.5t-210 -429t-116.5 -508.5h-144q60 433 218 757.5t425 588.5z" />
    <glyph glyph-name="eight" unicode="8" horiz-adv-x="1220" 
d="M711 1491q197 0 317.5 -101t120.5 -260q0 -122 -76.5 -217.5t-212.5 -136.5q123 -45 194.5 -135.5t71.5 -212.5q0 -187 -157.5 -317.5t-405.5 -130.5q-233 0 -370.5 111t-137.5 282q0 150 103.5 269t279.5 155q-97 45 -149.5 121t-52.5 176q0 166 131.5 281.5
t343.5 115.5zM676 844q151 0 246.5 80t95.5 200q0 111 -86.5 181.5t-222.5 70.5q-150 0 -246 -81t-96 -201q0 -110 86.5 -180t222.5 -70zM565 98q180 0 302 97.5t122 238.5q0 129 -106 209t-267 80q-181 0 -302 -97.5t-121 -238.5q0 -128 106.5 -208.5t265.5 -80.5z" />
    <glyph glyph-name="nine" unicode="9" horiz-adv-x="1193" 
d="M55 332l125 39q15 -122 98.5 -195.5t206.5 -73.5q94 0 182 48t157.5 133.5t118 210t63.5 270.5q-61 -121 -177 -193.5t-256 -72.5q-191 0 -312.5 123t-121.5 313q0 107 39.5 208t108 178.5t169.5 124t216 46.5q103 0 188.5 -36.5t149.5 -107.5t99.5 -184.5t35.5 -259.5
q0 -251 -85 -461.5t-239.5 -336t-345.5 -125.5q-168 0 -282 97.5t-138 254.5zM670 1370q-110 0 -202.5 -60t-144 -157t-51.5 -207q0 -145 93 -236.5t235 -91.5q112 0 203.5 58t142.5 153t51 205q0 146 -92.5 241t-234.5 95z" />
    <glyph glyph-name="A" unicode="A" horiz-adv-x="1388" 
d="M768 1470h156l346 -1470h-142l-98 428h-680l-231 -428h-150zM825 1307l-407 -754h581z" />
    <glyph glyph-name="B" unicode="B" horiz-adv-x="1298" 
d="M104 0l207 1470h498q212 0 321 -89.5t109 -247.5q0 -142 -83 -244.5t-208 -126.5q116 -31 181 -114.5t65 -209.5q0 -189 -135.5 -313.5t-368.5 -124.5h-586zM360 821h396q166 0 256 84t90 211q0 114 -78.5 173t-232.5 59h-357zM342 696l-80 -573h434q167 0 264 90t97 229
q0 120 -81.5 187t-246.5 67h-387z" />
    <glyph glyph-name="C" unicode="C" horiz-adv-x="1343" 
d="M1225 1042q-31 151 -135.5 236.5t-258.5 85.5q-124 0 -233 -60.5t-183.5 -160.5t-117.5 -231.5t-43 -272.5q0 -241 121 -387t319 -146q143 0 259.5 80.5t181.5 229.5l127 -56q-87 -187 -233 -283.5t-337 -96.5q-262 0 -421.5 176.5t-159.5 476.5q0 170 54.5 326.5
t149 274t231 187.5t292.5 70q201 0 342.5 -109t179.5 -299z" />
    <glyph glyph-name="D" unicode="D" horiz-adv-x="1437" 
d="M104 0l207 1470h428q297 0 469 -173t172 -466q0 -169 -53.5 -319t-152 -264.5t-250 -181t-336.5 -66.5h-484zM264 125h326q152 0 276.5 55.5t205.5 152t125 223.5t44 271q0 237 -140.5 378t-377.5 141h-289z" />
    <glyph glyph-name="E" unicode="E" horiz-adv-x="1220" 
d="M311 1470h932l-18 -124h-789l-74 -523h672l-18 -125h-672l-78 -573h789l-19 -125h-932z" />
    <glyph glyph-name="F" unicode="F" horiz-adv-x="1193" 
d="M248 0h-144l207 1470h928l-18 -124h-785l-74 -535h666l-18 -125h-666z" />
    <glyph glyph-name="G" unicode="G" horiz-adv-x="1462" 
d="M1108 0l37 268q-61 -130 -179 -209t-276 -79q-259 0 -419 173.5t-160 475.5q0 234 91.5 430.5t259 314t376.5 117.5q201 0 344 -107.5t182 -298.5l-135 -41q-37 153 -141.5 236.5t-256.5 83.5q-169 0 -303 -102t-205 -267.5t-71 -359.5q0 -243 124.5 -387t330.5 -144
q191 0 317 137.5t162 372.5h-451l19 125h589l-102 -739h-133z" />
    <glyph glyph-name="H" unicode="H" horiz-adv-x="1505" 
d="M1311 1470h143l-207 -1470h-143l98 698h-856l-98 -698h-144l207 1470h144l-90 -647h856z" />
    <glyph glyph-name="I" unicode="I" horiz-adv-x="505" 
d="M455 1470l-207 -1470h-144l207 1470h144z" />
    <glyph glyph-name="J" unicode="J" horiz-adv-x="866" 
d="M-10 16l18 131q122 -36 230 -36q145 0 219 66t98 235l150 1058h143l-150 -1069q-30 -220 -140.5 -319.5t-315.5 -99.5q-120 0 -252 34z" />
    <glyph glyph-name="K" unicode="K" horiz-adv-x="1292" 
d="M455 1470l-109 -768l844 768h184l-719 -655l539 -815h-164l-477 723l-234 -213l-71 -510h-144l207 1470h144z" />
    <glyph glyph-name="L" unicode="L" horiz-adv-x="1128" 
d="M104 0l207 1470h144l-189 -1345h768l-18 -125h-912z" />
    <glyph glyph-name="M" unicode="M" horiz-adv-x="1746" 
d="M854 0h-113l-323 1266l-178 -1266h-136l207 1470h191l319 -1275l680 1275h197l-207 -1470h-135l178 1266z" />
    <glyph glyph-name="N" unicode="N" horiz-adv-x="1482" 
d="M1432 1470l-207 -1470h-119l-684 1274l-178 -1274h-140l207 1470h154l655 -1226l172 1226h140z" />
    <glyph glyph-name="O" unicode="O" horiz-adv-x="1478" 
d="M842 1491q260 0 420.5 -176t160.5 -473q0 -170 -54 -327t-148.5 -275.5t-232 -189t-294.5 -70.5q-261 0 -421 175.5t-160 473.5q0 170 54 327t148.5 275.5t232 189t294.5 70.5zM836 1364q-124 0 -233.5 -59.5t-184.5 -159t-118.5 -232.5t-43.5 -278q0 -243 120.5 -386
t321.5 -143q165 0 300 101.5t208.5 268t73.5 360.5q0 243 -121 385.5t-323 142.5z" />
    <glyph glyph-name="P" unicode="P" horiz-adv-x="1267" 
d="M340 655l-92 -655h-144l207 1470h514q213 0 335 -96.5t122 -279.5q0 -194 -137 -316.5t-381 -122.5h-424zM358 780h400q185 0 285 86.5t100 220.5q0 125 -86 192t-246 67h-375z" />
    <glyph glyph-name="Q" unicode="Q" horiz-adv-x="1478" 
d="M1282 -121l-94 -100q-89 25 -171.5 91.5t-117.5 141.5q-101 -32 -205 -32q-261 0 -421 175.5t-160 473.5q0 170 54 327t148.5 275.5t232 189t294.5 70.5q260 0 420.5 -176t160.5 -473q0 -250 -110 -462t-297 -317q37 -63 111 -113t155 -71zM836 1364q-124 0 -233.5 -59.5
t-184.5 -159t-118.5 -232.5t-43.5 -278q0 -243 120.5 -386t321.5 -143q165 0 300 101.5t208.5 268t73.5 360.5q0 243 -121 385.5t-323 142.5z" />
    <glyph glyph-name="R" unicode="R" horiz-adv-x="1306" 
d="M340 655l-92 -655h-144l207 1470h514q214 0 335.5 -97t121.5 -281q0 -181 -121.5 -300.5t-339.5 -134.5l340 -657h-155l-336 655h-330zM358 780h400q185 0 285 86.5t100 220.5q0 125 -86 192t-246 67h-375z" />
    <glyph glyph-name="S" unicode="S" horiz-adv-x="1181" 
d="M-8 340l123 70q49 -145 168.5 -225.5t277.5 -80.5q169 0 280 88t111 228q0 99 -72 162t-259 108q-240 59 -340.5 153t-100.5 232q0 180 139 298t361 118q185 0 320 -85t180 -224l-117 -70q-40 117 -144 185.5t-245 68.5q-158 0 -255 -78.5t-97 -197.5q0 -61 28.5 -107
t107.5 -89t214 -77q233 -60 327.5 -149.5t94.5 -231.5q0 -202 -151.5 -329t-385.5 -127q-207 0 -359.5 99.5t-205.5 260.5z" />
    <glyph glyph-name="T" unicode="T" horiz-adv-x="1255" 
d="M1331 1346h-520l-188 -1346h-142l189 1346h-520l18 124h1182z" />
    <glyph glyph-name="U" unicode="U" horiz-adv-x="1433" 
d="M1413 1470l-125 -888q-42 -298 -202.5 -449t-409.5 -151q-266 0 -411.5 163.5t-106.5 436.5l125 888h141l-123 -884q-31 -217 73 -346t306 -129q189 0 311 116t156 359l125 884h141z" />
    <glyph glyph-name="V" unicode="V" horiz-adv-x="1372" 
d="M666 0h-150l-340 1470h141l295 -1294l697 1294h151z" />
    <glyph glyph-name="W" unicode="W" horiz-adv-x="1867" 
d="M997 1470h127l148 -1261l534 1261h148l-635 -1470h-141l-150 1237l-530 -1237h-142l-180 1470h137l150 -1261z" />
    <glyph glyph-name="X" unicode="X" horiz-adv-x="1306" 
d="M1384 1470l-620 -725l424 -745h-156l-360 639l-541 -639h-166l637 745l-409 725h155l348 -618l525 618h163z" />
    <glyph glyph-name="Y" unicode="Y" horiz-adv-x="1253" 
d="M653 758l549 712h162l-653 -839l-88 -631h-144l88 631l-415 839h149z" />
    <glyph glyph-name="Z" unicode="Z" horiz-adv-x="1249" 
d="M1118 125l-18 -125h-1100l16 111l1080 1235h-895l18 124h1079l-16 -110l-1077 -1235h913z" />
    <glyph glyph-name="a" unicode="a" horiz-adv-x="1073" 
d="M944 2q-114 -23 -175.5 13t-63.5 116q-48 -67 -137 -109t-191 -42q-148 0 -240 77.5t-92 208.5q0 143 112.5 240.5t346.5 134.5l270 43l8 70q14 98 -43 156.5t-170 58.5q-220 3 -299 -195l-118 45q56 131 166 201t260 70q172 0 266.5 -88t73.5 -242l-80 -570
q-6 -52 23 -71t100 -4zM725 350l33 223l-236 -38q-177 -30 -259.5 -94.5t-82.5 -168.5q0 -84 59 -132t156 -48q132 0 224 75.5t106 182.5z" />
    <glyph glyph-name="b" unicode="b" 
d="M715 1090q184 0 294.5 -126t110.5 -343q0 -127 -37.5 -243.5t-103.5 -204.5t-163.5 -140.5t-211.5 -52.5q-125 0 -217 61t-125 170l-31 -211h-135l207 1470h135l-82 -585q53 92 148.5 148.5t210.5 56.5zM311 580l-10 -80q-24 -181 60.5 -291.5t232.5 -110.5q113 0 202 70
t137 187t48 257q0 167 -79.5 262t-215.5 95q-144 0 -247 -105.5t-128 -283.5z" />
    <glyph glyph-name="c" unicode="c" horiz-adv-x="1060" 
d="M225 461q0 -171 84 -267t219 -96q227 0 312 240l112 -47q-51 -148 -163 -229.5t-267 -81.5q-194 0 -314 125.5t-120 349.5q0 126 39 241t108.5 202.5t172 139.5t221.5 52q159 0 264 -89t127 -229l-125 -45q-19 112 -90 178t-182 66q-114 0 -206 -70.5t-142 -186.5
t-50 -253z" />
    <glyph glyph-name="d" unicode="d" 
d="M88 449q0 127 37.5 243.5t104 204.5t164.5 140.5t212 52.5q122 0 214.5 -62t127.5 -170l86 612h135l-206 -1470h-136l25 184q-51 -93 -145.5 -148.5t-212.5 -55.5q-185 0 -295.5 125.5t-110.5 343.5zM899 489l10 80q24 180 -61 291t-232 111q-113 0 -202.5 -70t-138 -187
t-48.5 -257q0 -168 79.5 -263.5t215.5 -95.5q146 0 249 106t128 285z" />
    <glyph glyph-name="e" unicode="e" horiz-adv-x="1099" 
d="M528 -20q-208 0 -323 128t-115 347q0 126 38.5 241.5t107 203t170 139t219.5 51.5q142 0 239.5 -69t136 -187t15.5 -267l-8 -43h-783q-2 -20 -2 -63q0 -170 83 -266.5t226 -96.5q117 0 199.5 60.5t124.5 169.5l111 -47q-58 -144 -171 -222.5t-268 -78.5zM618 971
q-136 0 -235.5 -93.5t-138.5 -246.5h643q17 155 -56 247.5t-213 92.5z" />
    <glyph glyph-name="f" unicode="f" horiz-adv-x="624" 
d="M748 1483l-17 -123q-138 26 -209 -22t-88 -177l-12 -92h254l-17 -117h-253l-134 -952h-137l135 952h-170l17 117h170l14 109q25 174 139 256t308 49z" />
    <glyph glyph-name="g" unicode="g" horiz-adv-x="1208" 
d="M971 88q-32 -233 -163.5 -355t-342.5 -122q-175 0 -292 79t-148 220l118 45q30 -114 115 -171.5t213 -57.5q150 0 243.5 87.5t119.5 264.5l20 147q-121 -202 -352 -202q-188 0 -298 123t-110 331q0 162 61 301t179.5 225.5t269.5 86.5q126 0 215.5 -61t124.5 -163l29 203
h135zM905 578q17 116 -18.5 206t-108 137.5t-166.5 47.5q-110 0 -198 -67t-135.5 -178t-47.5 -243q0 -160 79.5 -250t215.5 -90q141 0 243 101t128 280z" />
    <glyph glyph-name="h" unicode="h" horiz-adv-x="1159" 
d="M96 0l207 1470h135l-78 -563q55 83 146 133t201 50q164 0 251.5 -107.5t61.5 -290.5l-98 -692h-136l97 674q19 133 -39 211t-180 78q-130 0 -225 -89t-115 -229l-93 -645h-135z" />
    <glyph glyph-name="i" unicode="i" horiz-adv-x="479" 
d="M266 1288l27 182h158l-27 -182h-158zM383 1069l-152 -1069h-135l150 1069h137z" />
    <glyph glyph-name="j" unicode="j" horiz-adv-x="479" 
d="M266 1288l27 182h158l-27 -182h-158zM86 -74l160 1143h137l-164 -1169q-24 -163 -124.5 -232t-278.5 -33l16 119q123 -25 180 14.5t74 157.5z" />
    <glyph glyph-name="k" unicode="k" horiz-adv-x="1069" 
d="M438 1470l-131 -933l592 532h180l-489 -428l375 -641h-154l-324 551l-202 -178l-54 -373h-135l207 1470h135z" />
    <glyph glyph-name="l" unicode="l" horiz-adv-x="479" 
d="M438 1470l-207 -1470h-135l207 1470h135z" />
    <glyph glyph-name="m" unicode="m" horiz-adv-x="1789" 
d="M324 647l-93 -647h-135l150 1069h137l-23 -164q46 80 136 132.5t196 52.5q111 0 188 -61.5t99 -160.5q56 98 154.5 160t214.5 62q161 0 245 -109.5t60 -275.5l-99 -705h-135l94 674q19 132 -33.5 210.5t-168.5 78.5q-122 0 -214.5 -91.5t-111.5 -224.5l-92 -647h-135
l96 676q19 135 -35.5 211t-167.5 76q-123 0 -215.5 -91.5t-111.5 -224.5z" />
    <glyph glyph-name="n" unicode="n" horiz-adv-x="1159" 
d="M96 0l150 1069h137l-23 -162q55 83 146 133t201 50q164 0 251.5 -107.5t61.5 -290.5l-98 -692h-136l97 674q19 133 -39 211t-180 78q-130 0 -225 -89t-115 -229l-93 -645h-135z" />
    <glyph glyph-name="o" unicode="o" horiz-adv-x="1144" 
d="M625 1090q201 0 315.5 -130t114.5 -350q0 -126 -39 -241t-108 -201t-170.5 -137t-219.5 -51q-200 0 -314 128.5t-114 348.5q0 101 24.5 196t72 174t112 138t148.5 92t178 33zM526 96q112 0 203 71t141 188t50 253q0 170 -82 267.5t-220 97.5q-112 0 -202.5 -71
t-140.5 -188t-50 -253q0 -171 81.5 -268t219.5 -97z" />
    <glyph glyph-name="p" unicode="p" 
d="M262 211l-82 -580h-135l201 1438h137l-27 -184q53 92 148.5 148.5t210.5 56.5q184 0 294.5 -126t110.5 -343q0 -127 -37.5 -243.5t-103.5 -204.5t-163.5 -140.5t-211.5 -52.5q-125 0 -217 61t-125 170zM311 580l-10 -80q-24 -181 60.5 -291.5t232.5 -110.5q113 0 202 70
t137 187t48 257q0 167 -79.5 262t-215.5 95q-144 0 -247 -105.5t-128 -283.5z" />
    <glyph glyph-name="q" unicode="q" 
d="M606 1090q122 0 214.5 -62t127.5 -170l29 211h135l-201 -1438h-135l76 553q-51 -93 -145.5 -148.5t-212.5 -55.5q-185 0 -295.5 125.5t-110.5 343.5q0 127 37.5 243.5t104 204.5t164.5 140.5t212 52.5zM899 489l10 80q24 180 -61 291t-232 111q-113 0 -202.5 -70
t-138 -187t-48.5 -257q0 -168 79.5 -263.5t215.5 -95.5q146 0 249 106t128 285z" />
    <glyph glyph-name="r" unicode="r" horiz-adv-x="741" 
d="M758 1069l-19 -133q-48 10 -80 10q-124 0 -222.5 -98t-119.5 -252l-86 -596h-135l150 1069h137l-29 -195q46 93 132.5 149t189.5 56q40 0 82 -10z" />
    <glyph glyph-name="s" unicode="s" horiz-adv-x="966" 
d="M0 262l109 70q36 -112 130.5 -176t215.5 -64q125 0 196.5 58t71.5 149q0 65 -53 109t-193 79q-182 45 -257 110.5t-75 174.5q0 135 102 226.5t279 91.5q149 0 252 -72t135 -180l-106 -64q-29 91 -104.5 146t-184.5 55q-112 0 -178 -54.5t-66 -134.5q0 -64 58.5 -106
t206.5 -78q169 -42 243 -110.5t74 -176.5q0 -141 -109 -238t-296 -97q-166 0 -289.5 80t-161.5 202z" />
    <glyph glyph-name="t" unicode="t" horiz-adv-x="698" 
d="M168 248l98 704h-178l16 117h179l43 309h133l-43 -309h258l-17 -117h-258l-98 -688q-11 -79 23 -116t120 -37q62 0 125 16l-16 -119q-76 -18 -141 -18q-279 0 -244 258z" />
    <glyph glyph-name="u" unicode="u" horiz-adv-x="1159" 
d="M1061 1069l-152 -1069h-135l23 162q-55 -83 -145.5 -132.5t-200.5 -49.5q-164 0 -252 106.5t-62 288.5l99 694h135l-97 -674q-19 -134 39.5 -211.5t180.5 -77.5q131 0 225.5 88.5t114.5 229.5l92 645h135z" />
    <glyph glyph-name="v" unicode="v" horiz-adv-x="1034" 
d="M485 0h-129l-235 1069h137l186 -897l474 897h145z" />
    <glyph glyph-name="w" unicode="w" horiz-adv-x="1474" 
d="M750 1069h118l107 -868l391 868h137l-497 -1069h-119l-107 868l-385 -868h-119l-155 1069h133l115 -868z" />
    <glyph glyph-name="x" unicode="x" horiz-adv-x="1040" 
d="M776 0l-264 461l-393 -461h-156l479 563l-290 506h149l231 -410l349 410h157l-434 -510l322 -559h-150z" />
    <glyph glyph-name="y" unicode="y" horiz-adv-x="1034" 
d="M1063 1069l-651 -1219q-66 -127 -133.5 -181t-167.5 -54q-63 0 -119 20l16 119q46 -20 98 -20q56 0 99 36.5t88 123.5l80 147l-252 1028h135l205 -872l457 872h145z" />
    <glyph glyph-name="z" unicode="z" horiz-adv-x="1007" 
d="M852 117l-16 -117h-818l15 102l762 850h-635l16 117h803l-14 -106l-756 -846h643z" />
    <glyph glyph-name="Odieresis" unicode="&#xd6;" horiz-adv-x="1478" 
d="M639 1589l25 183h157l-26 -183h-156zM977 1589l27 183h157l-26 -183h-158zM842 1491q260 0 420.5 -176t160.5 -473q0 -170 -54 -327t-148.5 -275.5t-232 -189t-294.5 -70.5q-261 0 -421 175.5t-160 473.5q0 170 54 327t148.5 275.5t232 189t294.5 70.5zM836 1364
q-124 0 -233.5 -59.5t-184.5 -159t-118.5 -232.5t-43.5 -278q0 -243 120.5 -386t321.5 -143q165 0 300 101.5t208.5 268t73.5 360.5q0 243 -121 385.5t-323 142.5z" />
    <glyph glyph-name="odieresis" unicode="&#xf6;" horiz-adv-x="1144" 
d="M432 1274l27 184h157l-26 -184h-158zM766 1274l25 184h157l-26 -184h-156zM625 1090q201 0 315.5 -130t114.5 -350q0 -126 -39 -241t-108 -201t-170.5 -137t-219.5 -51q-200 0 -314 128.5t-114 348.5q0 101 24.5 196t72 174t112 138t148.5 92t178 33zM526 96
q112 0 203 71t141 188t50 253q0 170 -82 267.5t-220 97.5q-112 0 -202.5 -71t-140.5 -188t-50 -253q0 -171 81.5 -268t219.5 -97z" />
    </font>
</defs>
</svg>
