<?xml version="1.0" standalone="no"?>
<!DOCTYPE svg PUBLIC "-//W3C//DTD SVG 1.1//EN" "http://www.w3.org/Graphics/SVG/1.1/DTD/svg11.dtd" >
<svg xmlns="http://www.w3.org/2000/svg" xmlns:xlink="http://www.w3.org/1999/xlink" version="1.1">
<metadata>
Created by FontForge 20201107 at Fri Aug  1 12:39:23 2025
 By 
Copyright 2023, Kris Sowersby, Klim Type Foundry.
</metadata>
<defs>
<font id="Sohne-Fett" horiz-adv-x="1257" >
  <font-face 
    font-family="Test So:hne Fett"
    font-weight="800"
    font-stretch="normal"
    units-per-em="2048"
    panose-1="2 11 9 3 3 2 2 6 2 3"
    ascent="1638"
    descent="-410"
    x-height="1081"
    cap-height="1470"
    bbox="-82 -379 1985 1868"
    underline-thickness="260"
    underline-position="-129"
    unicode-range="U+0020-00F6"
  />
<missing-glyph horiz-adv-x="1228" 
d="M0 0v1470h1229v-1470h-1229zM270 496l105 -105l239 240l242 -240l102 105l-237 241l237 240l-102 104l-242 -239l-239 239l-105 -104l240 -240z" />
    <glyph glyph-name=".notdef" horiz-adv-x="1228" 
d="M0 0v1470h1229v-1470h-1229zM270 496l105 -105l239 240l242 -240l102 105l-237 241l237 240l-102 104l-242 -239l-239 239l-105 -104l240 -240z" />
    <glyph glyph-name=".null" horiz-adv-x="0" 
 />
    <glyph glyph-name="nonmarkingreturn" horiz-adv-x="682" 
 />
    <glyph glyph-name="space" unicode=" " horiz-adv-x="395" 
 />
    <glyph glyph-name="comma" unicode="," horiz-adv-x="565" 
d="M66 0v418h436v-363q0 -180 -117.5 -279.5t-318.5 -99.5v191q161 3 161 125v8h-161z" />
    <glyph glyph-name="hyphen" unicode="-" horiz-adv-x="796" 
d="M82 426v354h633v-354h-633z" />
    <glyph glyph-name="period" unicode="." horiz-adv-x="565" 
d="M66 0v418h436v-418h-436z" />
    <glyph glyph-name="zero" unicode="0" horiz-adv-x="1345" 
d="M49 735q0 168 41.5 308t120 240.5t196.5 156t265 55.5q197 0 338.5 -97t212.5 -267t71 -396t-71 -396t-212.5 -267t-338.5 -97q-147 0 -265 55.5t-196.5 156t-120 240.5t-41.5 308zM453 735q0 -420 219 -420q221 0 221 420t-221 420q-219 0 -219 -420z" />
    <glyph glyph-name="one" unicode="1" horiz-adv-x="860" 
d="M449 1475h307v-1475h-402v920h-327v303l106 8q152 10 224 66t92 178z" />
    <glyph glyph-name="two" unicode="2" horiz-adv-x="1218" 
d="M70 279l411 339q82 68 125.5 106.5t87 86.5t61 88.5t17.5 83.5q0 71 -44 120.5t-120 49.5q-79 0 -124.5 -54t-45.5 -134q0 -65 23 -129h-383q-27 74 -27 157q0 148 78.5 264t208 177t283.5 61q250 0 400 -133.5t150 -349.5q0 -97 -39.5 -187t-100 -159t-152.5 -144
l-226 -182h516v-340h-1099v279z" />
    <glyph glyph-name="three" unicode="3" horiz-adv-x="1216" 
d="M621 -25q-247 0 -410.5 121t-192.5 342l396 58q9 -88 64 -137.5t136 -49.5q75 0 124.5 37.5t49.5 110.5q0 135 -200 135h-129v309h125q182 0 182 129q0 62 -40 96.5t-112 34.5q-79 0 -128 -49.5t-60 -128.5l-373 35q13 99 57.5 184.5t116 151t176.5 103.5t230 38
q240 0 384 -122.5t144 -313.5q0 -105 -55.5 -188t-136.5 -117q213 -97 213 -334q0 -189 -155 -317t-406 -128z" />
    <glyph glyph-name="four" unicode="4" horiz-adv-x="1282" 
d="M1059 0h-377v334h-662v295l537 841h502v-819h203v-317h-203v-334zM377 651h295v475z" />
    <glyph glyph-name="five" unicode="5" horiz-adv-x="1218" 
d="M469 606l-365 39l70 825h903v-340h-600l-18 -204q98 67 223 67q228 0 361 -137t133 -356q0 -230 -161.5 -377.5t-404.5 -147.5q-241 0 -398.5 120.5t-186.5 340.5l391 58q9 -88 60.5 -138.5t131.5 -50.5q79 0 133 51.5t54 132.5q0 85 -48.5 140t-130.5 55q-96 0 -147 -78
z" />
    <glyph glyph-name="six" unicode="6" horiz-adv-x="1247" 
d="M1214 1161l-313 -137q-23 68 -77 110t-134 42q-118 0 -188 -90.5t-70 -221.5q48 48 121 78.5t160 30.5q219 0 356 -135t137 -340q0 -228 -155.5 -375.5t-405.5 -147.5q-140 0 -254 57t-188 156t-114 232t-40 287q0 226 78.5 404.5t226.5 281t342 102.5q382 0 518 -334z
M844 487q0 83 -57 140t-142 57t-143 -57t-58 -140q0 -84 58 -140t143 -56t142 56t57 140z" />
    <glyph glyph-name="seven" unicode="7" horiz-adv-x="1204" 
d="M774 1137h-416v-213h-338v546h1164v-342q-126 -129 -207.5 -257.5t-124 -270t-58.5 -279t-16 -321.5h-411q0 373 101.5 647.5t305.5 489.5z" />
    <glyph glyph-name="eight" unicode="8" horiz-adv-x="1259" 
d="M629 1495q144 0 262.5 -50t192 -150.5t73.5 -233.5q0 -98 -47.5 -175t-132.5 -128q108 -44 175 -133t67 -211q0 -132 -79 -233t-212.5 -153.5t-298.5 -52.5q-164 0 -297 52.5t-212 153.5t-79 233q0 122 66.5 211t173.5 133q-85 51 -132 128t-47 175q0 134 73.5 234
t191.5 150t262 50zM629 909q75 0 121.5 40.5t46.5 105.5t-46.5 105t-121.5 40q-74 0 -120 -40.5t-46 -104.5q0 -65 46.5 -105.5t119.5 -40.5zM629 610q-86 0 -139.5 -45.5t-53.5 -118.5t53.5 -118t139.5 -45q88 0 141 44.5t53 118.5t-53 119t-141 45z" />
    <glyph glyph-name="nine" unicode="9" horiz-adv-x="1247" 
d="M33 309l313 137q23 -68 77 -109.5t134 -41.5q118 0 188 90t70 221q-48 -48 -120.5 -78t-159.5 -30q-219 0 -356.5 135t-137.5 340q0 228 155.5 375t405.5 147q186 0 323 -98.5t205 -262t68 -370.5q0 -226 -78.5 -404.5t-226.5 -281.5t-342 -103q-382 0 -518 334zM403 983
q0 -83 57 -140t142 -57t143 57t58 140q0 84 -58 140.5t-143 56.5t-142 -56t-57 -141z" />
    <glyph glyph-name="A" unicode="A" horiz-adv-x="1536" 
d="M537 1470h462l531 -1470h-408l-94 266h-532l-93 -266h-397zM762 1026l-154 -438h307z" />
    <glyph glyph-name="B" unicode="B" horiz-adv-x="1343" 
d="M100 0v1470h670q244 0 373 -103t129 -298q0 -111 -57 -190t-136 -117q104 -42 169 -131.5t65 -214.5q0 -197 -132 -306.5t-376 -109.5h-705zM485 895h242q80 0 123 32t43 93t-43 93t-123 32h-242v-250zM485 594v-266h281q75 0 117.5 36t42.5 97t-42.5 97t-117.5 36h-281z
" />
    <glyph glyph-name="C" unicode="C" horiz-adv-x="1390" 
d="M440 735q0 -187 84 -299t219 -112q101 0 169.5 63t88.5 172l377 -125q-70 -214 -231.5 -336.5t-401.5 -122.5q-204 0 -365.5 97.5t-251 270.5t-89.5 392t89.5 392t251 270.5t365.5 97.5q240 0 401.5 -122.5t231.5 -336.5l-377 -125q-20 109 -88.5 172.5t-169.5 63.5
q-135 0 -219 -112.5t-84 -299.5z" />
    <glyph glyph-name="D" unicode="D" horiz-adv-x="1443" 
d="M100 0v1470h545q354 0 557 -198t203 -537t-203 -537t-557 -198h-545zM492 338h153q175 0 269 106.5t94 290.5q0 185 -94 291.5t-269 106.5h-153v-795z" />
    <glyph glyph-name="E" unicode="E" horiz-adv-x="1236" 
d="M100 1470h1071v-340h-677v-219h561v-331h-561v-240h677v-340h-1071v1470z" />
    <glyph glyph-name="F" unicode="F" horiz-adv-x="1208" 
d="M494 0h-394v1470h1067v-340h-673v-284h557v-332h-557v-514z" />
    <glyph glyph-name="G" unicode="G" horiz-adv-x="1513" 
d="M1071 0v117q-46 -63 -140 -102.5t-214 -39.5q-146 0 -271.5 55.5t-215 153.5t-140.5 238t-51 303q0 219 90 394.5t253.5 275.5t371.5 100q248 0 412 -120t233 -335l-383 -122q-20 110 -87 169.5t-173 59.5q-140 0 -228 -114t-88 -302q0 -190 88.5 -304t233.5 -114
q98 0 166.5 54.5t89.5 140.5h-283v317h684v-825h-348z" />
    <glyph glyph-name="H" unicode="H" horiz-adv-x="1521" 
d="M1020 1470h401v-1470h-401v578h-518v-578h-402v1470h402v-555h518v555z" />
    <glyph glyph-name="I" unicode="I" horiz-adv-x="602" 
d="M502 1470v-1470h-402v1470h402z" />
    <glyph glyph-name="J" unicode="J" horiz-adv-x="851" 
d="M43 2v342q82 -10 137 -10q101 0 145 41t44 141v954h401v-1026q0 -118 -39 -206.5t-111 -142t-168.5 -79.5t-218.5 -26q-113 0 -190 12z" />
    <glyph glyph-name="K" unicode="K" horiz-adv-x="1441" 
d="M502 1470v-591l459 591h462l-501 -600l540 -870h-465l-344 547l-151 -182v-365h-402v1470h402z" />
    <glyph glyph-name="L" unicode="L" horiz-adv-x="1167" 
d="M100 0v1470h402v-1130h633v-340h-1035z" />
    <glyph glyph-name="M" unicode="M" horiz-adv-x="1800" 
d="M1032 0h-268l-279 930v-930h-385v1470h564l239 -843l240 843h557v-1470h-389v930z" />
    <glyph glyph-name="N" unicode="N" horiz-adv-x="1517" 
d="M1417 1470v-1470h-348l-586 852v-852h-383v1470h394l538 -800v800h385z" />
    <glyph glyph-name="O" unicode="O" horiz-adv-x="1517" 
d="M39 735q0 219 90.5 392t255 270.5t373.5 97.5q210 0 375 -97.5t255.5 -270.5t90.5 -392t-90.5 -392t-255.5 -270.5t-375 -97.5q-209 0 -373.5 97.5t-255 270.5t-90.5 392zM1075 735q0 190 -87 301t-230 111q-141 0 -228.5 -111t-87.5 -301t87.5 -300.5t228.5 -110.5
q143 0 230 110.5t87 300.5z" />
    <glyph glyph-name="P" unicode="P" horiz-adv-x="1345" 
d="M502 469v-469h-402v1470h643q276 0 431 -128.5t155 -372.5q0 -243 -155 -371.5t-431 -128.5h-241zM502 803h221q103 0 156 44t53 122q0 80 -52.5 123t-156.5 43h-221v-332z" />
    <glyph glyph-name="Q" unicode="Q" horiz-adv-x="1517" 
d="M39 735q0 219 90.5 392t255 270.5t373.5 97.5q210 0 375 -97.5t255.5 -270.5t90.5 -392q0 -184 -65 -337t-183 -255q40 -51 100.5 -83t157.5 -56l-229 -283q-109 32 -200 106t-134 165q-90 -17 -168 -17q-209 0 -373.5 97.5t-255 270.5t-90.5 392zM1075 735
q0 190 -87 301t-230 111q-141 0 -228.5 -111t-87.5 -301t87.5 -300.5t228.5 -110.5q143 0 230 110.5t87 300.5z" />
    <glyph glyph-name="R" unicode="R" horiz-adv-x="1384" 
d="M502 487v-487h-402v1470h643q274 0 430 -128.5t156 -362.5q0 -156 -76.5 -269.5t-216.5 -170.5l338 -539h-459l-288 487h-125zM502 805h221q103 0 156 44t53 120q0 80 -52.5 123t-156.5 43h-221v-330z" />
    <glyph glyph-name="S" unicode="S" horiz-adv-x="1249" 
d="M-35 221l219 291q91 -102 207.5 -154.5t233.5 -52.5q94 0 149 33.5t55 95.5q0 58 -63 87q-46 22 -217 55q-32 7 -49 10q-74 15 -130.5 31.5t-120 49.5t-104.5 75.5t-68.5 111t-27.5 154.5q0 110 46 202.5t125 154.5t186 96t229 34q184 0 334 -63t243 -164l-217 -271
q-152 168 -370 168q-84 0 -133.5 -30t-49.5 -86q0 -29 12 -48.5t53.5 -35.5t70 -23t110.5 -24q15 -3 23 -5q64 -13 102 -22t99.5 -28t99 -39t83 -53.5t71 -73.5t43.5 -97t18 -125q0 -154 -84.5 -269t-223.5 -173t-311 -58q-186 0 -369.5 67.5t-273.5 178.5z" />
    <glyph glyph-name="T" unicode="T" horiz-adv-x="1331" 
d="M1298 1130h-432v-1130h-401v1130h-432v340h1265v-340z" />
    <glyph glyph-name="U" unicode="U" horiz-adv-x="1443" 
d="M721 -23q-298 0 -467.5 161.5t-169.5 461.5v870h399v-858q0 -145 62.5 -215.5t175.5 -70.5q114 0 175.5 70.5t61.5 215.5v858h402v-870q0 -300 -170.5 -461.5t-468.5 -161.5z" />
    <glyph glyph-name="V" unicode="V" horiz-adv-x="1488" 
d="M950 0h-411l-533 1470h428l318 -946l319 946h412z" />
    <glyph glyph-name="W" unicode="W" horiz-adv-x="1990" 
d="M836 1470h329l207 -872l205 872h408l-388 -1470h-385l-217 868l-217 -868h-385l-387 1470h418l207 -872z" />
    <glyph glyph-name="X" unicode="X" horiz-adv-x="1480" 
d="M1450 1470l-475 -720l500 -750h-453l-289 451l-287 -451h-440l500 750l-475 720h450l262 -417l267 417h440z" />
    <glyph glyph-name="Y" unicode="Y" horiz-adv-x="1431" 
d="M725 942l301 528h420l-528 -892v-578h-402v578l-530 892h436z" />
    <glyph glyph-name="Z" unicode="Z" horiz-adv-x="1327" 
d="M1270 340v-340h-1204v299l684 831h-676v340h1188v-296l-674 -834h682z" />
    <glyph glyph-name="a" unicode="a" horiz-adv-x="1179" 
d="M410 -20q-168 0 -273.5 90t-105.5 231q0 307 456 354l201 27v16q0 107 -123 107q-58 0 -90 -26.5t-43 -82.5l-375 43q33 158 170.5 262.5t354.5 104.5q229 0 358 -99.5t129 -287.5v-383q0 -36 17.5 -49.5t60.5 -7.5v-277q-148 -31 -258 -7.5t-164 95.5
q-113 -110 -315 -110zM688 393v58l-158 -23q-59 -8 -90.5 -29.5t-31.5 -64.5q0 -39 28 -60.5t78 -21.5q74 0 124 37t50 104z" />
    <glyph glyph-name="b" unicode="b" 
d="M760 -25q-90 0 -164 35t-117 92v-102h-389v1470h389v-489q42 57 116.5 91t164.5 34q142 0 248 -77t158.5 -204t52.5 -284t-52.5 -284.5t-158.5 -204.5t-248 -77zM479 565v-51q0 -99 47 -155t125 -56q84 0 130 66.5t46 171.5t-46 171t-130 66q-78 0 -125 -56t-47 -157z
" />
    <glyph glyph-name="c" unicode="c" horiz-adv-x="1105" 
d="M420 541q0 -118 46 -184t130 -66q65 0 105 44t53 116l340 -115q-14 -70 -54.5 -134t-102.5 -115t-151.5 -81.5t-193.5 -30.5q-246 0 -400.5 157.5t-154.5 408.5q0 250 154.5 407.5t400.5 157.5q104 0 193.5 -30t151 -80t101.5 -113t54 -133l-338 -117q-13 71 -53 114.5
t-105 43.5q-84 0 -130 -66t-46 -184z" />
    <glyph glyph-name="d" unicode="d" 
d="M498 -25q-142 0 -248 77t-158.5 204.5t-52.5 284.5t52.5 284t158.5 204t248 77q90 0 164 -34t116 -91v489h389v-1470h-389v102q-43 -57 -116.5 -92t-163.5 -35zM778 565q0 101 -47 157t-125 56q-84 0 -130 -66t-46 -171t46 -171.5t130 -66.5q78 0 125 56t47 155v51z" />
    <glyph glyph-name="e" unicode="e" horiz-adv-x="1161" 
d="M602 -25q-254 0 -409.5 157.5t-155.5 410.5q0 120 42.5 224.5t117 179t178.5 117t223 42.5q165 0 286 -74.5t180.5 -200.5t59.5 -286v-88h-710q17 -87 68 -134t126 -47q145 0 187 123l319 -96q-58 -158 -200 -243t-312 -85zM594 817q-63 0 -107.5 -36.5t-64.5 -108.5h326
q-3 61 -44.5 103t-109.5 42z" />
    <glyph glyph-name="f" unicode="f" horiz-adv-x="731" 
d="M715 1477v-287q-50 4 -74 4q-60 0 -85.5 -19.5t-25.5 -72.5v-21h183v-315h-183v-766h-389v766h-131v315h131v39q0 183 104 275t335 92q57 0 135 -10z" />
    <glyph glyph-name="g" unicode="g" horiz-adv-x="1267" 
d="M1178 143q0 -168 -77 -287t-210.5 -177t-310.5 -58q-216 0 -356.5 86t-176.5 244l373 69q15 -54 61.5 -83t114.5 -29q87 0 139.5 46.5t52.5 141.5v66q-38 -54 -115 -87.5t-169 -33.5q-143 0 -249 71.5t-158 190.5t-52 268q0 150 52 269.5t158 192.5t249 73q92 0 169 -35
t115 -90v100h390v-938zM788 594q0 96 -47.5 147.5t-124.5 51.5q-84 0 -129 -60t-45 -160t45 -160.5t129 -60.5q77 0 124.5 52.5t47.5 148.5v41z" />
    <glyph glyph-name="h" unicode="h" horiz-adv-x="1224" 
d="M90 0v1470h389v-489q48 53 125 89t170 36q165 0 264 -106.5t99 -284.5v-715h-389v606q0 71 -31.5 113.5t-93.5 42.5q-60 0 -102 -41.5t-42 -116.5v-604h-389z" />
    <glyph glyph-name="i" unicode="i" horiz-adv-x="571" 
d="M90 1167v303h391v-303h-391zM479 1081v-1081h-389v1081h389z" />
    <glyph glyph-name="j" unicode="j" horiz-adv-x="571" 
d="M90 1167v303h391v-303h-391zM90 4v1077h389v-1069q0 -194 -104 -289.5t-299 -95.5q-93 0 -158 8v285q37 -6 64 -6q54 0 81 20t27 70z" />
    <glyph glyph-name="k" unicode="k" horiz-adv-x="1230" 
d="M479 1470v-725l291 336h449l-371 -393l397 -688h-438l-232 397l-96 -100v-297h-389v1470h389z" />
    <glyph glyph-name="l" unicode="l" horiz-adv-x="571" 
d="M479 1470v-1470h-389v1470h389z" />
    <glyph glyph-name="m" unicode="m" horiz-adv-x="1865" 
d="M479 604v-604h-389v1081h389v-100q48 55 124 90t169 35q99 0 180 -38t125 -107q134 145 336 145q165 0 265 -106.5t100 -284.5v-715h-389v606q0 71 -30.5 113.5t-92.5 42.5q-58 0 -98 -41t-40 -117v-604h-389v606q0 71 -30.5 113.5t-92.5 42.5q-58 0 -97.5 -41
t-39.5 -117z" />
    <glyph glyph-name="n" unicode="n" horiz-adv-x="1224" 
d="M90 0v1081h389v-100q48 53 125 89t170 36q165 0 264 -106.5t99 -284.5v-715h-389v606q0 71 -31.5 113.5t-93.5 42.5q-60 0 -102 -41.5t-42 -116.5v-604h-389z" />
    <glyph glyph-name="o" unicode="o" horiz-adv-x="1187" 
d="M1149 541q0 -252 -154 -409t-401 -157q-248 0 -402.5 157t-154.5 409t154.5 408.5t402.5 156.5t401.5 -156.5t153.5 -408.5zM420 541q0 -123 46.5 -187.5t127.5 -64.5q80 0 126 64.5t46 187.5q0 122 -46 187t-126 65q-81 0 -127.5 -65t-46.5 -187z" />
    <glyph glyph-name="p" unicode="p" 
d="M760 -25q-90 0 -164 35t-117 92v-456h-389v1435h389v-100q42 57 116.5 91t164.5 34q142 0 248 -77t158.5 -204t52.5 -284t-52.5 -284.5t-158.5 -204.5t-248 -77zM479 565v-51q0 -99 47 -155t125 -56q84 0 130 66.5t46 171.5t-46 171t-130 66q-78 0 -125 -56t-47 -157z
" />
    <glyph glyph-name="q" unicode="q" 
d="M498 -25q-142 0 -248 77t-158.5 204.5t-52.5 284.5t52.5 284t158.5 204t248 77q90 0 164 -34t116 -91v100h389v-1435h-389v456q-43 -57 -116.5 -92t-163.5 -35zM778 565q0 101 -47 157t-125 56q-84 0 -130 -66t-46 -171t46 -171.5t130 -66.5q78 0 125 56t47 155v51z" />
    <glyph glyph-name="r" unicode="r" horiz-adv-x="854" 
d="M817 1083v-366q-52 8 -98 8q-104 0 -172 -58t-68 -163v-504h-389v1081h389v-127q39 60 109.5 96.5t156.5 36.5q26 0 72 -4z" />
    <glyph glyph-name="s" unicode="s" horiz-adv-x="1062" 
d="M0 125l145 264q80 -62 186.5 -97.5t192.5 -35.5q127 0 127 61q0 34 -35.5 47.5t-155.5 34.5q-26 5 -40 7q-46 8 -78.5 15.5t-74 20.5t-70.5 28.5t-59 39.5t-48 53.5t-29.5 70.5t-11.5 91q0 175 139 278t353 103q145 0 270.5 -42t204.5 -110l-164 -237q-141 112 -305 112
q-107 0 -107 -57q0 -30 31.5 -42.5t122.5 -28.5q19 -3 29 -5q51 -9 88 -17t83 -22.5t77.5 -30.5t64.5 -41.5t53 -56t32.5 -73t12.5 -93.5q0 -122 -71 -210.5t-189.5 -131.5t-269.5 -43q-139 0 -283 40.5t-221 107.5z" />
    <glyph glyph-name="t" unicode="t" horiz-adv-x="776" 
d="M139 303v463h-131v315h131v287h383v-287h201v-315h-201v-346q0 -61 28 -83t91 -22q23 0 88 7v-316q-101 -16 -215 -16q-193 0 -284 74t-91 239z" />
    <glyph glyph-name="u" unicode="u" horiz-adv-x="1224" 
d="M1135 1081v-1081h-390v100q-49 -54 -122.5 -89.5t-165.5 -35.5q-164 0 -266.5 107.5t-102.5 284.5v714h389v-620q0 -69 31.5 -109.5t95.5 -40.5q60 0 100.5 40.5t40.5 115.5v614h390z" />
    <glyph glyph-name="v" unicode="v" horiz-adv-x="1146" 
d="M764 0h-383l-383 1081h397l189 -602l184 602h381z" />
    <glyph glyph-name="w" unicode="w" horiz-adv-x="1617" 
d="M678 1081h276l144 -573l147 573h375l-328 -1081h-334l-149 518l-150 -518h-333l-328 1081h389l152 -573z" />
    <glyph glyph-name="x" unicode="x" horiz-adv-x="1163" 
d="M745 0l-172 272l-170 -272h-409l364 555l-348 526h426l152 -241l155 241h410l-350 -526l368 -555h-426z" />
    <glyph glyph-name="y" unicode="y" horiz-adv-x="1146" 
d="M762 33q-38 -104 -76 -173t-92.5 -125t-130 -82t-176.5 -26q-84 0 -142 6v299q41 -6 82 -6q104 0 129 80l19 45l-377 1030h397l189 -594l184 594h381z" />
    <glyph glyph-name="z" unicode="z" horiz-adv-x="1077" 
d="M1014 315v-315h-953v276l471 490h-464v315h942v-276l-447 -490h451z" />
    <glyph glyph-name="Odieresis" unicode="&#xd6;" horiz-adv-x="1517" 
d="M350 1542v326h363v-326h-363zM803 1542v326h362v-326h-362zM39 735q0 219 90.5 392t255 270.5t373.5 97.5q210 0 375 -97.5t255.5 -270.5t90.5 -392t-90.5 -392t-255.5 -270.5t-375 -97.5q-209 0 -373.5 97.5t-255 270.5t-90.5 392zM1075 735q0 190 -87 301t-230 111
q-141 0 -228.5 -111t-87.5 -301t87.5 -300.5t228.5 -110.5q143 0 230 110.5t87 300.5z" />
    <glyph glyph-name="odieresis" unicode="&#xf6;" horiz-adv-x="1187" 
d="M188 1167v303h365v-303h-365zM635 1167v303h364v-303h-364zM1149 541q0 -252 -154 -409t-401 -157q-248 0 -402.5 157t-154.5 409t154.5 408.5t402.5 156.5t401.5 -156.5t153.5 -408.5zM420 541q0 -123 46.5 -187.5t127.5 -64.5q80 0 126 64.5t46 187.5q0 122 -46 187
t-126 65q-81 0 -127.5 -65t-46.5 -187z" />
    </font>
</defs>
</svg>
