<?xml version="1.0" standalone="no"?>
<!DOCTYPE svg PUBLIC "-//W3C//DTD SVG 1.1//EN" "http://www.w3.org/Graphics/SVG/1.1/DTD/svg11.dtd" >
<svg xmlns="http://www.w3.org/2000/svg" xmlns:xlink="http://www.w3.org/1999/xlink" version="1.1">
<metadata>
Created by FontForge 20201107 at Fri Aug  1 12:39:24 2025
 By 
Copyright 2023, Kris Sowersby, Klim Type Foundry.
</metadata>
<defs>
<font id="Sohne-HalbfettKursiv" horiz-adv-x="1228" >
  <font-face 
    font-family="Test So:hne Halbfett"
    font-weight="600"
    font-style="italic"
    font-stretch="normal"
    units-per-em="2048"
    panose-1="2 11 7 3 3 2 2 13 2 3"
    ascent="1638"
    descent="-410"
    x-height="1077"
    cap-height="1470"
    bbox="-203 -387 2046 1825"
    underline-thickness="221"
    underline-position="-167"
    slope="-8"
    unicode-range="U+0020-00F6"
  />
<missing-glyph horiz-adv-x="1435" 
d="M131 0v1470h1229v-1470h-1229zM401 496l105 -105l239 240l242 -240l103 105l-238 241l238 240l-103 104l-242 -239l-239 239l-105 -104l240 -240z" />
    <glyph glyph-name=".notdef" horiz-adv-x="1435" 
d="M131 0v1470h1229v-1470h-1229zM401 496l105 -105l239 240l242 -240l103 105l-238 241l238 240l-103 104l-242 -239l-239 239l-105 -104l240 -240z" />
    <glyph glyph-name=".null" horiz-adv-x="0" 
 />
    <glyph glyph-name="nonmarkingreturn" horiz-adv-x="682" 
 />
    <glyph glyph-name="space" unicode=" " horiz-adv-x="413" 
 />
    <glyph glyph-name="comma" unicode="," horiz-adv-x="491" 
d="M2 0l45 332h336l-47 -334q-21 -150 -111.5 -224.5t-265.5 -74.5l21 151q80 4 116.5 37t44.5 99l2 14h-141z" />
    <glyph glyph-name="hyphen" unicode="-" horiz-adv-x="753" 
d="M72 471l37 256h589l-36 -256h-590z" />
    <glyph glyph-name="period" unicode="." horiz-adv-x="491" 
d="M2 0l45 332h336l-45 -332h-336z" />
    <glyph glyph-name="zero" unicode="0" horiz-adv-x="1308" 
d="M756 1493q243 0 381.5 -159.5t138.5 -446.5q0 -184 -46 -348.5t-130 -289.5t-211.5 -198.5t-280.5 -73.5q-243 0 -381.5 160t-138.5 447q0 184 46 348.5t130 289.5t211.5 198t280.5 73zM618 236q102 0 184.5 85t128.5 231.5t46 324.5q0 358 -232 358q-102 0 -184 -85
t-128 -231.5t-46 -324.5q0 -358 231 -358z" />
    <glyph glyph-name="one" unicode="1" horiz-adv-x="823" 
d="M588 1479h231l-209 -1479h-303l139 991h-346l31 226l135 12q144 11 218 67.5t104 182.5z" />
    <glyph glyph-name="two" unicode="2" horiz-adv-x="1179" 
d="M31 231l520 385q184 135 256 232t72 188q0 88 -56.5 144.5t-148.5 56.5q-115 0 -186.5 -84t-71.5 -217q0 -42 6 -80h-283q-8 54 -8 94q0 149 68.5 272.5t197 197t291.5 73.5q213 0 351.5 -119t138.5 -317q0 -145 -89 -281t-278 -272l-338 -244h610l-36 -260h-1049z" />
    <glyph glyph-name="three" unicode="3" horiz-adv-x="1187" 
d="M561 -23q-151 0 -272 54.5t-194.5 161t-76.5 249.5l291 43q10 -120 84 -189t185 -69t181 64.5t70 159.5q0 86 -62 134t-171 48h-143l34 244h168q103 0 167.5 53t64.5 141q0 76 -55.5 123t-145.5 47q-100 0 -174.5 -61.5t-103.5 -169.5l-273 49q52 198 203 316t371 118
q214 0 344.5 -111.5t130.5 -279.5q0 -127 -71 -223.5t-193 -139.5q95 -37 146.5 -113t51.5 -182q0 -95 -39 -180t-110 -148.5t-176.5 -101t-231.5 -37.5z" />
    <glyph glyph-name="four" unicode="4" horiz-adv-x="1259" 
d="M907 0h-278l51 352h-686l33 230l694 888h397l-123 -872h250l-33 -246h-254zM326 598h381l86 602z" />
    <glyph glyph-name="five" unicode="5" horiz-adv-x="1165" 
d="M406 645l-267 45l176 780h848l-37 -260h-618l-72 -307q111 82 256 82q188 0 304 -123.5t116 -316.5q0 -153 -69.5 -282t-200.5 -207.5t-297 -78.5q-144 0 -260.5 54.5t-188.5 161.5t-78 251l283 35q17 -121 87 -187.5t167 -66.5q115 0 194.5 84.5t79.5 206.5
q0 101 -58 164t-157 63q-126 0 -208 -98z" />
    <glyph glyph-name="six" unicode="6" horiz-adv-x="1226" 
d="M1253 1139l-249 -95q-14 90 -80.5 145.5t-163.5 55.5q-138 0 -241.5 -119t-135.5 -295q64 67 152 105.5t188 38.5q195 0 316.5 -127t121.5 -316q0 -107 -41 -207t-112.5 -177.5t-178.5 -124t-231 -46.5q-236 0 -375 157.5t-139 434.5q0 187 50 355t140 294.5t224 200.5
t293 74q184 0 307.5 -97.5t154.5 -256.5zM604 217q123 0 203 85.5t80 201.5q0 102 -68.5 169.5t-173.5 67.5q-123 0 -203 -84.5t-80 -201.5q0 -103 68.5 -170.5t173.5 -67.5z" />
    <glyph glyph-name="seven" unicode="7" horiz-adv-x="1140" 
d="M881 1214h-506l-33 -227h-260l70 483h1099l-37 -260q-281 -274 -419 -549t-191 -661h-305q55 395 199 687.5t383 526.5z" />
    <glyph glyph-name="eight" unicode="8" horiz-adv-x="1241" 
d="M721 1493q211 0 340 -108t129 -277q0 -115 -63.5 -210t-186.5 -146q105 -46 164 -129t59 -197q0 -193 -160.5 -321t-422.5 -128q-248 0 -395.5 109.5t-147.5 288.5q0 142 90.5 255t241.5 152q-164 102 -164 281q0 180 142.5 305t373.5 125zM684 885q106 0 171 58t65 142
q0 78 -57 128.5t-152 50.5q-104 0 -171 -59.5t-67 -141.5q0 -78 58 -128t153 -50zM586 213q124 0 205 67.5t81 165.5q0 90 -71.5 146.5t-182.5 56.5q-125 0 -205.5 -68t-80.5 -165q0 -92 70.5 -147.5t183.5 -55.5z" />
    <glyph glyph-name="nine" unicode="9" horiz-adv-x="1226" 
d="M29 332l250 94q14 -90 80 -145.5t163 -55.5q138 0 241.5 119t135.5 295q-63 -66 -151.5 -104.5t-188.5 -38.5q-195 0 -316.5 126.5t-121.5 315.5q0 107 41 207t112.5 177.5t178.5 124t231 46.5q236 0 375 -157.5t139 -434.5q0 -149 -31.5 -287.5t-92.5 -254t-145.5 -201
t-197 -133.5t-239.5 -48q-184 0 -308 98t-155 257zM678 1253q-123 0 -203 -85t-80 -201q0 -102 68.5 -170t173.5 -68q123 0 203 85t80 202q0 103 -68 170t-174 67z" />
    <glyph glyph-name="A" unicode="A" horiz-adv-x="1476" 
d="M717 1470h344l323 -1470h-292l-70 315h-606l-164 -315h-311zM844 1137l-295 -566h418z" />
    <glyph glyph-name="B" unicode="B" horiz-adv-x="1316" 
d="M53 0l207 1470h578q232 0 348.5 -93.5t116.5 -256.5q0 -135 -74.5 -236.5t-186.5 -129.5q99 -37 154 -118t55 -196q0 -195 -146 -317.5t-380 -122.5h-672zM465 872h311q115 0 176.5 54t61.5 137q0 76 -52 117t-153 41h-295zM430 629l-53 -377h348q114 0 179 59t65 146
q0 77 -55.5 124.5t-161.5 47.5h-322z" />
    <glyph glyph-name="C" unicode="C" horiz-adv-x="1372" 
d="M1126 958q-25 128 -102.5 199.5t-198.5 71.5q-127 0 -229 -80.5t-156.5 -210t-54.5 -279.5q0 -195 93 -306t237 -111q111 0 198.5 66.5t141.5 193.5l268 -111q-195 -414 -616 -414q-281 0 -454 181.5t-173 482.5q0 131 34 256.5t100.5 233t157.5 188.5t212.5 127.5
t257.5 46.5q227 0 379.5 -121t187.5 -330z" />
    <glyph glyph-name="D" unicode="D" horiz-adv-x="1437" 
d="M53 0l207 1470h473q321 0 499.5 -168.5t178.5 -472.5q0 -172 -55 -322.5t-156 -263.5t-254 -178t-338 -65h-555zM383 258h235q150 0 264.5 74.5t173 199.5t58.5 279q0 196 -106.5 298.5t-300.5 102.5h-191z" />
    <glyph glyph-name="E" unicode="E" horiz-adv-x="1222" 
d="M260 1470h1016l-37 -260h-721l-45 -327h604l-37 -258h-604l-49 -365h719l-37 -260h-1016z" />
    <glyph glyph-name="F" unicode="F" horiz-adv-x="1189" 
d="M350 0h-297l207 1470h1004l-37 -260h-709l-49 -366h590l-35 -260h-592z" />
    <glyph glyph-name="G" unicode="G" horiz-adv-x="1495" 
d="M1032 0l21 143q-50 -74 -147.5 -120t-227.5 -46q-171 0 -306 79t-213.5 230t-78.5 351q0 171 56 327t154.5 273t244.5 186.5t315 69.5q230 0 384 -118t191 -326l-284 -82q-26 129 -108 195.5t-204 66.5q-130 0 -233.5 -78.5t-159 -209t-55.5 -284.5q0 -200 96 -312
t256 -112q134 0 226.5 84.5t125.5 229.5h-356l35 256h651l-112 -803h-271z" />
    <glyph glyph-name="H" unicode="H" horiz-adv-x="1511" 
d="M1212 1470h301l-206 -1470h-301l88 625h-652l-88 -625h-301l207 1470h301l-82 -585h651z" />
    <glyph glyph-name="I" unicode="I" horiz-adv-x="557" 
d="M561 1470l-207 -1470h-301l207 1470h301z" />
    <glyph glyph-name="J" unicode="J" horiz-adv-x="833" 
d="M-29 10l37 264q90 -22 168 -22q111 0 166 47t72 162l141 1009h301l-145 -1044q-32 -224 -157 -331t-355 -107q-107 0 -228 22z" />
    <glyph glyph-name="K" unicode="K" horiz-adv-x="1374" 
d="M561 1470l-90 -647l641 647h369l-639 -628l467 -842h-338l-350 625l-207 -203l-60 -422h-301l207 1470h301z" />
    <glyph glyph-name="L" unicode="L" horiz-adv-x="1136" 
d="M53 0l207 1470h301l-170 -1210h676l-37 -260h-977z" />
    <glyph glyph-name="M" unicode="M" horiz-adv-x="1763" 
d="M920 0h-230l-203 1071l-151 -1071h-283l207 1470h412l188 -1044l481 1044h426l-206 -1470h-287l151 1071z" />
    <glyph glyph-name="N" unicode="N" horiz-adv-x="1497" 
d="M1499 1470l-207 -1470h-258l-547 1030l-145 -1030h-289l207 1470h299l512 -983l139 983h289z" />
    <glyph glyph-name="O" unicode="O" horiz-adv-x="1501" 
d="M844 1493q283 0 457 -180t174 -482q0 -135 -34 -262t-100 -234t-157 -187t-212 -125.5t-257 -45.5q-284 0 -459.5 180t-175.5 482q0 169 55 323.5t152 272.5t242 188t315 70zM829 1229q-97 0 -181 -46.5t-141 -124.5t-89.5 -183t-32.5 -220q0 -194 93.5 -303.5
t250.5 -109.5q129 0 231.5 79t156.5 209t54 285q0 194 -92.5 304t-249.5 110z" />
    <glyph glyph-name="P" unicode="P" horiz-adv-x="1310" 
d="M430 541l-76 -541h-301l207 1470h571q238 0 375 -108t137 -315q0 -223 -152 -364.5t-394 -141.5h-367zM467 797h315q125 0 196 66.5t71 162.5q0 90 -64 139t-182 49h-279z" />
    <glyph glyph-name="Q" unicode="Q" horiz-adv-x="1501" 
d="M1358 -49l-187 -207q-99 30 -182.5 98.5t-118.5 151.5q-83 -17 -155 -17q-284 0 -459.5 180t-175.5 482q0 169 55 323.5t152 272.5t242 188t315 70q283 0 457 -180t174 -482q0 -228 -95 -424t-264 -311q77 -103 242 -145zM829 1229q-97 0 -181 -46.5t-141 -124.5
t-89.5 -183t-32.5 -220q0 -194 93.5 -303.5t250.5 -109.5q129 0 231.5 79t156.5 209t54 285q0 194 -92.5 304t-249.5 110z" />
    <glyph glyph-name="R" unicode="R" horiz-adv-x="1359" 
d="M430 547l-76 -547h-301l207 1470h574q237 0 374.5 -111t137.5 -312q0 -177 -103 -305t-278 -173l278 -569h-328l-258 547h-227zM467 799h315q125 0 196 66t71 161q0 88 -64 138t-182 50h-279z" />
    <glyph glyph-name="S" unicode="S" horiz-adv-x="1218" 
d="M-47 297l221 184q68 -117 179 -184.5t241 -67.5q118 0 195 56.5t77 146.5q0 67 -55.5 107.5t-198.5 72.5q-252 57 -362.5 153.5t-110.5 254.5q0 207 158 340t410 133q184 0 330 -75t220 -199l-208 -177q-57 93 -153.5 146t-209.5 53t-179.5 -49.5t-66.5 -128.5
q0 -43 24 -73.5t90.5 -59.5t186.5 -56q222 -51 325 -145.5t103 -249.5q0 -220 -164 -361t-430 -141q-206 0 -373.5 89.5t-248.5 230.5z" />
    <glyph glyph-name="T" unicode="T" horiz-adv-x="1286" 
d="M1350 1210h-461l-170 -1210h-301l168 1210h-461l37 260h1224z" />
    <glyph glyph-name="U" unicode="U" horiz-adv-x="1425" 
d="M1450 1470l-125 -886q-42 -299 -207.5 -451.5t-437.5 -152.5q-145 0 -260 42t-189.5 120t-105 194t-10.5 260l123 874h303l-123 -872q-24 -171 49.5 -262.5t226.5 -91.5q139 0 222.5 86t109.5 268l123 872h301z" />
    <glyph glyph-name="V" unicode="V" horiz-adv-x="1429" 
d="M778 0h-315l-316 1470h308l215 -1091l555 1091h319z" />
    <glyph glyph-name="W" unicode="W" horiz-adv-x="1931" 
d="M961 1470h260l96 -1032l420 1032h309l-621 -1470h-295l-106 1004l-414 -1004h-295l-168 1470h299l103 -1030z" />
    <glyph glyph-name="X" unicode="X" horiz-adv-x="1406" 
d="M1509 1470l-606 -722l406 -748h-328l-272 520l-428 -520h-342l630 752l-389 718h328l258 -493l403 493h340z" />
    <glyph glyph-name="Y" unicode="Y" horiz-adv-x="1368" 
d="M725 864l440 606h332l-651 -872l-86 -598h-301l84 598l-410 872h316z" />
    <glyph glyph-name="Z" unicode="Z" horiz-adv-x="1288" 
d="M1192 260l-39 -260h-1163l33 229l899 981h-754l37 260h1147l-31 -229l-895 -981h766z" />
    <glyph glyph-name="a" unicode="a" horiz-adv-x="1110" 
d="M989 0q-119 -21 -206 7.5t-115 92.5q-48 -56 -127.5 -87t-178.5 -31q-155 0 -254.5 81.5t-99.5 223.5q0 144 109.5 239.5t316.5 122.5l283 39l2 23q10 69 -30 108t-122 41q-144 3 -196 -137l-260 65q55 142 179.5 226t305.5 84q206 0 317.5 -101t87.5 -276l-61 -438
q-6 -38 13 -53t67 -13zM672 375l16 112l-223 -34q-176 -25 -176 -146q0 -53 39.5 -80.5t109.5 -27.5q97 0 160.5 47.5t73.5 128.5z" />
    <glyph glyph-name="b" unicode="b" 
d="M766 1098q191 0 301.5 -131t110.5 -344q0 -130 -37.5 -247.5t-104.5 -206t-167 -140.5t-218 -52q-101 0 -181 38.5t-126 107.5l-14 -123h-287l207 1470h287l-72 -501q104 129 301 129zM403 571l-6 -59q-17 -128 45 -208.5t168 -80.5q123 0 200 106.5t77 266.5
q0 121 -55.5 188.5t-157.5 67.5q-109 0 -181.5 -75t-89.5 -206z" />
    <glyph glyph-name="c" unicode="c" horiz-adv-x="1077" 
d="M334 487q0 -128 60.5 -198t158.5 -70q84 0 145.5 48.5t92.5 138.5l229 -101q-48 -148 -179 -238t-311 -90q-213 0 -346 137.5t-133 354.5q0 167 73 310.5t209 231t306 87.5q180 0 296 -92.5t144 -233.5l-256 -98q-36 184 -198 184q-123 0 -207 -107.5t-84 -263.5z" />
    <glyph glyph-name="d" unicode="d" 
d="M51 455q0 130 38 247.5t105.5 205.5t167 140t216.5 52q102 0 181.5 -38t125.5 -108l71 516h287l-207 -1470h-286l14 109q-104 -129 -299 -129q-191 0 -302.5 131.5t-111.5 343.5zM825 506l9 59q17 128 -46 208.5t-170 80.5q-122 0 -199 -106.5t-77 -266.5
q0 -121 56.5 -188.5t158.5 -67.5q107 0 179 75t89 206z" />
    <glyph glyph-name="e" unicode="e" horiz-adv-x="1122" 
d="M543 -23q-222 0 -355 135t-133 357q0 169 71.5 312t205.5 230t303 87q155 0 264 -72t154 -197.5t22 -283.5l-10 -70h-737q4 -127 68 -194.5t167 -67.5q80 0 147.5 42.5t100.5 117.5l221 -99q-67 -143 -196 -220t-293 -77zM616 868q-91 0 -158 -53t-100 -145h455
q6 88 -47 143t-150 55z" />
    <glyph glyph-name="f" unicode="f" horiz-adv-x="661" 
d="M784 1483l-32 -236q-118 18 -169.5 -11.5t-62.5 -115.5l-4 -43h209l-35 -239h-209l-116 -838h-287l117 838h-146l35 239h145l9 68q31 204 165.5 288.5t380.5 49.5z" />
    <glyph glyph-name="g" unicode="g" horiz-adv-x="1230" 
d="M1051 113q-33 -239 -179 -369.5t-395 -130.5q-197 0 -328.5 81.5t-168.5 237.5l262 74q25 -81 93.5 -125.5t164.5 -44.5q106 0 174 62.5t88 189.5l10 66q-101 -123 -291 -123q-193 0 -306.5 128t-113.5 333q0 161 63 298t184.5 222.5t275.5 85.5q104 0 183.5 -39
t117.5 -103l18 121h285zM831 575q21 126 -38 203.5t-166 77.5q-121 0 -197 -98.5t-76 -247.5q0 -118 56 -178t159 -60q104 0 172 71.5t88 201.5z" />
    <glyph glyph-name="h" unicode="h" horiz-adv-x="1173" 
d="M43 0l207 1470h287l-70 -497q113 125 297 125q168 0 257 -110.5t62 -301.5l-96 -686h-287l88 633q13 98 -25.5 150.5t-123.5 52.5q-89 0 -148.5 -57.5t-74.5 -162.5l-86 -616h-287z" />
    <glyph glyph-name="i" unicode="i" horiz-adv-x="522" 
d="M209 1204l37 266h293l-37 -266h-293zM481 1077l-151 -1077h-287l152 1077h286z" />
    <glyph glyph-name="j" unicode="j" horiz-adv-x="522" 
d="M209 1204l37 266h293l-37 -266h-293zM39 -18l156 1095h286l-159 -1134q-27 -195 -156 -267.5t-369 -35.5l33 229q110 -15 153.5 7t55.5 106z" />
    <glyph glyph-name="k" unicode="k" horiz-adv-x="1150" 
d="M537 1470l-113 -798l424 405h354l-454 -411l333 -666h-317l-238 467l-149 -135l-47 -332h-287l207 1470h287z" />
    <glyph glyph-name="l" unicode="l" horiz-adv-x="522" 
d="M537 1470l-207 -1470h-287l207 1470h287z" />
    <glyph glyph-name="m" unicode="m" horiz-adv-x="1800" 
d="M416 621l-86 -621h-287l152 1077h286l-14 -102q110 123 297 123q97 0 169 -43t105 -117q70 76 162.5 118t192.5 42q162 0 253.5 -107.5t65.5 -277.5l-100 -713h-287l90 631q14 98 -21.5 151.5t-117.5 53.5q-86 0 -145.5 -59.5t-71.5 -153.5l-88 -623h-287l88 631
q15 99 -21 152t-118 53q-84 0 -143.5 -60t-73.5 -155z" />
    <glyph glyph-name="n" unicode="n" horiz-adv-x="1173" 
d="M43 0l152 1077h286l-14 -104q113 125 297 125q168 0 257 -110.5t62 -301.5l-96 -686h-287l88 633q13 98 -25.5 150.5t-123.5 52.5q-89 0 -148.5 -57.5t-74.5 -162.5l-86 -616h-287z" />
    <glyph glyph-name="o" unicode="o" horiz-adv-x="1167" 
d="M631 1098q219 0 350 -133t131 -365q0 -171 -69.5 -312t-202.5 -226t-305 -85q-218 0 -349 133t-131 365q0 127 41 240.5t114.5 198.5t182.5 134.5t238 49.5zM549 215q123 0 201.5 108.5t78.5 268.5q0 132 -56 200t-152 68q-124 0 -203.5 -108t-79.5 -269
q0 -131 57.5 -199.5t153.5 -68.5z" />
    <glyph glyph-name="p" unicode="p" 
d="M344 123l-65 -488h-287l203 1442h286l-16 -108q104 129 301 129q191 0 301.5 -131t110.5 -344q0 -130 -37.5 -247.5t-104.5 -206t-167 -140.5t-218 -52q-101 0 -181 38.5t-126 107.5zM403 571l-6 -59q-17 -128 45 -208.5t168 -80.5q123 0 200 106.5t77 266.5
q0 121 -55.5 188.5t-157.5 67.5q-109 0 -181.5 -75t-89.5 -206z" />
    <glyph glyph-name="q" unicode="q" 
d="M578 1100q102 0 181.5 -38t125.5 -108l16 123h287l-203 -1442h-287l66 474q-104 -129 -299 -129q-191 0 -302.5 131.5t-111.5 343.5q0 130 38 247.5t105.5 205.5t167 140t216.5 52zM825 506l9 59q17 128 -46 208.5t-170 80.5q-122 0 -199 -106.5t-77 -266.5
q0 -121 56.5 -188.5t158.5 -67.5q107 0 179 75t89 206z" />
    <glyph glyph-name="r" unicode="r" horiz-adv-x="800" 
d="M838 1077l-39 -278q-44 8 -90 8q-118 0 -201.5 -70.5t-101.5 -199.5l-76 -537h-287l152 1077h286l-22 -147q48 70 125.5 111.5t175.5 41.5q48 0 78 -6z" />
    <glyph glyph-name="s" unicode="s" horiz-adv-x="1021" 
d="M-35 205l187 176q61 -87 150 -133.5t190 -46.5q80 0 125 31t45 79q0 44 -38 67.5t-157 49.5q-194 41 -275 114.5t-81 190.5q0 157 121 261t325 104q150 0 274 -59.5t179 -145.5l-183 -170q-45 70 -123.5 110.5t-162.5 40.5q-70 0 -110 -27.5t-40 -70.5q0 -42 41.5 -65.5
t163.5 -51.5q186 -42 266 -115t80 -192q0 -160 -128 -267.5t-343 -107.5q-163 0 -301 62t-205 166z" />
    <glyph glyph-name="t" unicode="t" horiz-adv-x="716" 
d="M115 293l73 545h-143l35 239h143l43 307h283l-43 -307h219l-35 -239h-219l-70 -498q-8 -56 21.5 -81.5t105.5 -25.5q44 0 93 9l-33 -238q-78 -16 -160 -16q-187 0 -261 74t-52 231z" />
    <glyph glyph-name="u" unicode="u" horiz-adv-x="1173" 
d="M1130 1077l-151 -1077h-287l15 104q-112 -124 -297 -124q-168 0 -257.5 110t-62.5 301l96 686h287l-88 -633q-13 -98 26 -150t124 -52q89 0 148.5 57.5t74.5 161.5l86 616h286z" />
    <glyph glyph-name="v" unicode="v" horiz-adv-x="1073" 
d="M584 0h-287l-219 1077h289l122 -729l357 729h299z" />
    <glyph glyph-name="w" unicode="w" horiz-adv-x="1515" 
d="M723 1077h223l68 -676l291 676h284l-499 -1077h-244l-76 655l-291 -655h-250l-151 1077h278l80 -676z" />
    <glyph glyph-name="x" unicode="x" horiz-adv-x="1091" 
d="M705 0l-181 344l-278 -344h-320l455 557l-279 520h312l157 -309l248 309h320l-426 -520l299 -557h-307z" />
    <glyph glyph-name="y" unicode="y" horiz-adv-x="1073" 
d="M1145 1077l-586 -1138q-91 -177 -181 -246.5t-239 -69.5q-71 0 -141 15l33 231q47 -12 90 -12q53 0 87.5 22.5t61.5 77.5l45 88l-237 1032h287l143 -708l338 708h299z" />
    <glyph glyph-name="z" unicode="z" horiz-adv-x="1038" 
d="M924 240l-33 -240h-897l29 211l624 627h-530l35 239h884l-28 -213l-609 -624h525z" />
    <glyph glyph-name="Odieresis" unicode="&#xd6;" horiz-adv-x="1501" 
d="M545 1552l37 273h290l-36 -273h-291zM956 1552l39 273h291l-37 -273h-293zM844 1493q283 0 457 -180t174 -482q0 -135 -34 -262t-100 -234t-157 -187t-212 -125.5t-257 -45.5q-284 0 -459.5 180t-175.5 482q0 169 55 323.5t152 272.5t242 188t315 70zM829 1229
q-97 0 -181 -46.5t-141 -124.5t-89.5 -183t-32.5 -220q0 -194 93.5 -303.5t250.5 -109.5q129 0 231.5 79t156.5 209t54 285q0 194 -92.5 304t-249.5 110z" />
    <glyph glyph-name="odieresis" unicode="&#xf6;" horiz-adv-x="1167" 
d="M332 1204l37 266h290l-36 -266h-291zM729 1204l37 266h291l-37 -266h-291zM631 1098q219 0 350 -133t131 -365q0 -171 -69.5 -312t-202.5 -226t-305 -85q-218 0 -349 133t-131 365q0 127 41 240.5t114.5 198.5t182.5 134.5t238 49.5zM549 215q123 0 201.5 108.5
t78.5 268.5q0 132 -56 200t-152 68q-124 0 -203.5 -108t-79.5 -269q0 -131 57.5 -199.5t153.5 -68.5z" />
    </font>
</defs>
</svg>
